%TF.GenerationSoftware,KiCad,Pcbnew,7.0.6*%
%TF.CreationDate,2023-09-21T17:00:44-04:00*%
%TF.ProjectId,blinkenbrain,626c696e-6b65-46e6-9272-61696e2e6b69,A*%
%TF.SameCoordinates,Original*%
%TF.FileFunction,Soldermask,Bot*%
%TF.FilePolarity,Negative*%
%FSLAX46Y46*%
G04 Gerber Fmt 4.6, Leading zero omitted, Abs format (unit mm)*
G04 Created by KiCad (PCBNEW 7.0.6) date 2023-09-21 17:00:44*
%MOMM*%
%LPD*%
G01*
G04 APERTURE LIST*
G04 Aperture macros list*
%AMRoundRect*
0 Rectangle with rounded corners*
0 $1 Rounding radius*
0 $2 $3 $4 $5 $6 $7 $8 $9 X,Y pos of 4 corners*
0 Add a 4 corners polygon primitive as box body*
4,1,4,$2,$3,$4,$5,$6,$7,$8,$9,$2,$3,0*
0 Add four circle primitives for the rounded corners*
1,1,$1+$1,$2,$3*
1,1,$1+$1,$4,$5*
1,1,$1+$1,$6,$7*
1,1,$1+$1,$8,$9*
0 Add four rect primitives between the rounded corners*
20,1,$1+$1,$2,$3,$4,$5,0*
20,1,$1+$1,$4,$5,$6,$7,0*
20,1,$1+$1,$6,$7,$8,$9,0*
20,1,$1+$1,$8,$9,$2,$3,0*%
G04 Aperture macros list end*
%ADD10RoundRect,0.135000X0.185000X-0.135000X0.185000X0.135000X-0.185000X0.135000X-0.185000X-0.135000X0*%
%ADD11RoundRect,0.225000X-0.250000X0.225000X-0.250000X-0.225000X0.250000X-0.225000X0.250000X0.225000X0*%
%ADD12C,2.000000*%
%ADD13R,0.400000X0.650000*%
%ADD14RoundRect,0.150000X-0.512500X-0.150000X0.512500X-0.150000X0.512500X0.150000X-0.512500X0.150000X0*%
%ADD15R,2.440000X1.120000*%
%ADD16R,2.600000X1.400000*%
%ADD17RoundRect,0.135000X0.135000X0.185000X-0.135000X0.185000X-0.135000X-0.185000X0.135000X-0.185000X0*%
%ADD18R,1.200000X1.200000*%
%ADD19R,1.500000X1.600000*%
%ADD20R,5.080000X1.270000*%
%ADD21C,17.800000*%
%ADD22RoundRect,0.225000X0.250000X-0.225000X0.250000X0.225000X-0.250000X0.225000X-0.250000X-0.225000X0*%
%ADD23RoundRect,0.135000X-0.135000X-0.185000X0.135000X-0.185000X0.135000X0.185000X-0.135000X0.185000X0*%
%ADD24RoundRect,0.200000X-0.275000X0.200000X-0.275000X-0.200000X0.275000X-0.200000X0.275000X0.200000X0*%
%ADD25RoundRect,0.250000X0.375000X0.850000X-0.375000X0.850000X-0.375000X-0.850000X0.375000X-0.850000X0*%
G04 APERTURE END LIST*
%TO.C,G\u002A\u002A\u002A*%
G36*
X138279241Y-90984889D02*
G01*
X138329461Y-90996829D01*
X138371262Y-91026192D01*
X138403716Y-91072367D01*
X138425722Y-91115928D01*
X138425722Y-92701117D01*
X138425722Y-94286306D01*
X138403716Y-94329866D01*
X138396884Y-94341897D01*
X138373477Y-94372793D01*
X138348477Y-94395512D01*
X138306893Y-94413813D01*
X138257954Y-94417864D01*
X138209734Y-94406655D01*
X138167098Y-94381378D01*
X138134913Y-94343225D01*
X138113068Y-94305121D01*
X138112907Y-93328714D01*
X138112746Y-92352307D01*
X137890239Y-92355960D01*
X137848032Y-92356686D01*
X137784777Y-92358047D01*
X137736332Y-92359710D01*
X137699636Y-92361969D01*
X137671624Y-92365114D01*
X137649231Y-92369440D01*
X137629394Y-92375238D01*
X137609049Y-92382801D01*
X137597390Y-92387778D01*
X137539643Y-92422460D01*
X137485276Y-92470177D01*
X137439542Y-92525688D01*
X137407693Y-92583750D01*
X137384097Y-92642434D01*
X137379207Y-93478668D01*
X137378923Y-93527006D01*
X137378070Y-93668478D01*
X137377265Y-93792052D01*
X137376476Y-93898994D01*
X137375667Y-93990570D01*
X137374804Y-94068046D01*
X137373853Y-94132688D01*
X137372778Y-94185761D01*
X137371547Y-94228532D01*
X137370124Y-94262265D01*
X137368475Y-94288226D01*
X137366566Y-94307683D01*
X137364362Y-94321899D01*
X137361829Y-94332141D01*
X137358932Y-94339675D01*
X137355637Y-94345767D01*
X137325675Y-94380031D01*
X137283459Y-94404841D01*
X137235640Y-94416515D01*
X137187421Y-94413829D01*
X137144005Y-94395558D01*
X137141370Y-94393718D01*
X137113631Y-94368469D01*
X137091211Y-94339320D01*
X137088147Y-94333884D01*
X137085002Y-94327017D01*
X137082270Y-94318342D01*
X137079922Y-94306589D01*
X137077930Y-94290491D01*
X137076263Y-94268780D01*
X137074893Y-94240189D01*
X137073791Y-94203448D01*
X137072928Y-94157290D01*
X137072274Y-94100447D01*
X137071800Y-94031651D01*
X137071478Y-93949635D01*
X137071278Y-93853129D01*
X137071171Y-93740866D01*
X137071129Y-93611578D01*
X137071121Y-93463997D01*
X137071121Y-92622872D01*
X137093647Y-92544226D01*
X137096851Y-92533347D01*
X137138151Y-92428085D01*
X137195702Y-92332803D01*
X137270692Y-92245491D01*
X137347682Y-92178008D01*
X137435839Y-92121902D01*
X137535695Y-92078680D01*
X137555238Y-92072189D01*
X137576045Y-92066645D01*
X137599396Y-92062353D01*
X137628127Y-92059066D01*
X137665072Y-92056538D01*
X137713069Y-92054522D01*
X137774954Y-92052772D01*
X137853562Y-92051040D01*
X138107856Y-92045822D01*
X138112746Y-91566577D01*
X138113363Y-91506785D01*
X138114460Y-91406922D01*
X138115524Y-91323985D01*
X138116637Y-91256247D01*
X138117881Y-91201980D01*
X138119340Y-91159456D01*
X138121094Y-91126950D01*
X138123228Y-91102732D01*
X138125822Y-91085076D01*
X138128960Y-91072255D01*
X138132724Y-91062541D01*
X138137197Y-91054206D01*
X138138279Y-91052408D01*
X138171452Y-91016182D01*
X138216747Y-90992879D01*
X138270080Y-90984636D01*
X138279241Y-90984889D01*
G37*
G36*
X144168371Y-92050747D02*
G01*
X144239548Y-92050932D01*
X144295602Y-92051393D01*
X144338643Y-92052255D01*
X144370780Y-92053645D01*
X144394123Y-92055688D01*
X144410781Y-92058511D01*
X144422863Y-92062239D01*
X144432479Y-92066998D01*
X144441738Y-92072913D01*
X144450033Y-92078163D01*
X144459511Y-92083853D01*
X144467923Y-92089498D01*
X144475333Y-92096189D01*
X144481803Y-92105014D01*
X144487396Y-92117063D01*
X144492177Y-92133425D01*
X144496207Y-92155189D01*
X144499550Y-92183443D01*
X144502269Y-92219278D01*
X144504427Y-92263783D01*
X144506088Y-92318046D01*
X144507314Y-92383156D01*
X144508168Y-92460204D01*
X144508714Y-92550277D01*
X144509015Y-92654466D01*
X144509133Y-92773859D01*
X144509133Y-92909545D01*
X144509077Y-93062614D01*
X144509027Y-93234155D01*
X144508882Y-94305121D01*
X144487036Y-94343225D01*
X144482430Y-94350553D01*
X144458092Y-94378901D01*
X144431112Y-94399463D01*
X144392913Y-94414157D01*
X144341393Y-94417862D01*
X144292763Y-94404283D01*
X144250539Y-94374568D01*
X144218233Y-94329866D01*
X144196227Y-94286306D01*
X144196227Y-93319178D01*
X144196227Y-92352050D01*
X143973720Y-92355988D01*
X143904398Y-92357373D01*
X143845874Y-92359055D01*
X143801347Y-92361174D01*
X143767931Y-92363979D01*
X143742739Y-92367715D01*
X143722885Y-92372631D01*
X143705482Y-92378974D01*
X143649604Y-92406669D01*
X143582997Y-92456326D01*
X143530236Y-92519305D01*
X143489939Y-92597005D01*
X143467651Y-92652214D01*
X143462725Y-93488890D01*
X143462290Y-93564312D01*
X143461504Y-93705421D01*
X143460781Y-93828817D01*
X143460025Y-93935742D01*
X143459137Y-94027439D01*
X143458021Y-94105150D01*
X143456578Y-94170118D01*
X143454710Y-94223585D01*
X143452322Y-94266794D01*
X143449314Y-94300986D01*
X143445589Y-94327405D01*
X143441049Y-94347293D01*
X143435598Y-94361892D01*
X143429137Y-94372445D01*
X143421570Y-94380194D01*
X143412797Y-94386382D01*
X143402723Y-94392250D01*
X143391248Y-94399042D01*
X143389830Y-94399911D01*
X143351624Y-94413320D01*
X143305565Y-94415940D01*
X143259477Y-94408167D01*
X143221187Y-94390400D01*
X143219240Y-94389026D01*
X143208842Y-94381887D01*
X143199723Y-94375133D01*
X143191800Y-94367517D01*
X143184989Y-94357793D01*
X143179207Y-94344714D01*
X143174371Y-94327033D01*
X143170396Y-94303503D01*
X143167199Y-94272879D01*
X143164697Y-94233913D01*
X143162806Y-94185359D01*
X143161443Y-94125970D01*
X143160523Y-94054500D01*
X143159964Y-93969702D01*
X143159682Y-93870330D01*
X143159593Y-93755136D01*
X143159615Y-93622875D01*
X143159662Y-93472299D01*
X143159664Y-93461436D01*
X143159695Y-93309418D01*
X143159784Y-93175527D01*
X143160018Y-93058419D01*
X143160485Y-92956750D01*
X143161270Y-92869177D01*
X143162461Y-92794354D01*
X143164145Y-92730939D01*
X143166410Y-92677587D01*
X143169342Y-92632955D01*
X143173028Y-92595698D01*
X143177555Y-92564472D01*
X143183011Y-92537934D01*
X143189482Y-92514740D01*
X143197056Y-92493545D01*
X143205819Y-92473005D01*
X143215859Y-92451777D01*
X143227262Y-92428518D01*
X143230544Y-92421895D01*
X143289644Y-92323479D01*
X143361205Y-92239901D01*
X143446255Y-92170143D01*
X143545823Y-92113186D01*
X143558759Y-92107081D01*
X143591190Y-92092453D01*
X143621279Y-92080597D01*
X143651458Y-92071222D01*
X143684162Y-92064040D01*
X143721825Y-92058758D01*
X143766879Y-92055088D01*
X143821759Y-92052738D01*
X143888898Y-92051419D01*
X143970730Y-92050841D01*
X144069689Y-92050712D01*
X144079962Y-92050712D01*
X144168371Y-92050747D01*
G37*
G36*
X140221854Y-92382954D02*
G01*
X140222620Y-92470492D01*
X140223235Y-92574130D01*
X140223700Y-92694303D01*
X140224017Y-92831441D01*
X140224189Y-92985977D01*
X140224217Y-93158344D01*
X140224103Y-93348974D01*
X140223850Y-93558300D01*
X140223460Y-93786754D01*
X140223179Y-93932058D01*
X140222799Y-94123589D01*
X140222432Y-94297111D01*
X140222065Y-94453536D01*
X140221685Y-94593777D01*
X140221280Y-94718746D01*
X140220836Y-94829355D01*
X140220339Y-94926517D01*
X140219778Y-95011144D01*
X140219139Y-95084150D01*
X140218410Y-95146446D01*
X140217576Y-95198946D01*
X140216625Y-95242561D01*
X140215545Y-95278204D01*
X140214321Y-95306788D01*
X140212942Y-95329225D01*
X140211394Y-95346428D01*
X140209663Y-95359310D01*
X140207738Y-95368782D01*
X140205605Y-95375757D01*
X140203251Y-95381149D01*
X140200662Y-95385868D01*
X140197969Y-95390198D01*
X140171728Y-95418983D01*
X140137089Y-95442738D01*
X140120683Y-95450299D01*
X140068467Y-95462121D01*
X140018858Y-95455017D01*
X139973582Y-95429471D01*
X139934367Y-95385968D01*
X139912361Y-95353634D01*
X139912361Y-94876686D01*
X139912361Y-94399739D01*
X139660513Y-94395713D01*
X139587175Y-94394443D01*
X139524733Y-94393000D01*
X139476337Y-94391242D01*
X139439133Y-94388932D01*
X139410267Y-94385830D01*
X139386886Y-94381699D01*
X139366134Y-94376300D01*
X139345157Y-94369396D01*
X139262224Y-94335347D01*
X139160316Y-94276858D01*
X139072398Y-94205024D01*
X138998876Y-94120192D01*
X138940156Y-94022709D01*
X138932922Y-94008072D01*
X138920288Y-93982097D01*
X138909492Y-93958149D01*
X138900390Y-93934566D01*
X138892837Y-93909688D01*
X138886688Y-93881855D01*
X138881800Y-93849406D01*
X138878555Y-93816095D01*
X139183712Y-93816095D01*
X139209733Y-93871601D01*
X139252885Y-93942431D01*
X139311433Y-94002603D01*
X139382761Y-94048383D01*
X139447280Y-94080169D01*
X139679820Y-94083109D01*
X139912361Y-94086048D01*
X139912361Y-93219978D01*
X139912361Y-92353908D01*
X139717232Y-92353908D01*
X139680687Y-92354012D01*
X139601917Y-92355300D01*
X139538542Y-92358343D01*
X139487613Y-92363504D01*
X139446184Y-92371146D01*
X139411309Y-92381629D01*
X139380040Y-92395315D01*
X139340457Y-92420066D01*
X139289390Y-92464619D01*
X139244533Y-92517271D01*
X139211823Y-92571795D01*
X139183712Y-92632653D01*
X139183712Y-93224374D01*
X139183712Y-93816095D01*
X138878555Y-93816095D01*
X138878028Y-93810681D01*
X138875227Y-93764018D01*
X138873253Y-93707758D01*
X138871962Y-93640240D01*
X138871209Y-93559803D01*
X138870850Y-93464787D01*
X138870740Y-93353531D01*
X138870736Y-93224374D01*
X138870731Y-93139261D01*
X138870773Y-93021798D01*
X138871011Y-92921140D01*
X138871601Y-92835609D01*
X138872696Y-92763527D01*
X138874452Y-92703216D01*
X138877024Y-92652997D01*
X138880565Y-92611193D01*
X138885231Y-92576126D01*
X138891177Y-92546118D01*
X138898557Y-92519491D01*
X138907525Y-92494566D01*
X138918237Y-92469666D01*
X138930847Y-92443113D01*
X138945509Y-92413229D01*
X138964370Y-92377163D01*
X138990473Y-92336186D01*
X139022483Y-92296603D01*
X139065271Y-92251850D01*
X139122683Y-92198566D01*
X139185333Y-92151111D01*
X139251381Y-92113559D01*
X139327148Y-92081807D01*
X139398884Y-92055603D01*
X139767547Y-92055603D01*
X140136210Y-92055603D01*
X140170646Y-92088971D01*
X140171029Y-92089343D01*
X140199706Y-92126337D01*
X140215777Y-92172106D01*
X140217228Y-92185162D01*
X140218622Y-92212621D01*
X140219857Y-92254451D01*
X140220933Y-92311084D01*
X140221482Y-92353908D01*
X140221854Y-92382954D01*
G37*
G36*
X149789162Y-93848585D02*
G01*
X149786977Y-93871261D01*
X149784351Y-93889486D01*
X149781242Y-93904813D01*
X149777612Y-93918791D01*
X149756166Y-93981217D01*
X149710264Y-94074518D01*
X149651126Y-94161884D01*
X149581892Y-94238898D01*
X149505705Y-94301143D01*
X149497515Y-94306639D01*
X149432956Y-94344733D01*
X149365559Y-94374080D01*
X149286985Y-94398389D01*
X149261199Y-94404254D01*
X149190100Y-94413684D01*
X149112219Y-94416583D01*
X149035808Y-94412849D01*
X148969119Y-94402376D01*
X148935746Y-94393570D01*
X148832610Y-94353497D01*
X148737262Y-94296764D01*
X148651866Y-94225095D01*
X148578586Y-94140216D01*
X148519585Y-94043853D01*
X148508734Y-94022192D01*
X148496954Y-93997611D01*
X148486866Y-93973978D01*
X148478345Y-93949718D01*
X148471269Y-93923251D01*
X148465514Y-93892999D01*
X148460957Y-93857387D01*
X148457474Y-93814835D01*
X148454942Y-93763765D01*
X148453238Y-93702602D01*
X148452237Y-93629765D01*
X148451817Y-93543679D01*
X148451851Y-93453371D01*
X148755033Y-93453371D01*
X148755364Y-93551859D01*
X148756147Y-93633359D01*
X148757393Y-93698698D01*
X148759113Y-93748699D01*
X148761317Y-93784188D01*
X148764018Y-93805989D01*
X148781100Y-93868986D01*
X148817397Y-93943968D01*
X148868095Y-94006327D01*
X148932350Y-94055087D01*
X149009317Y-94089273D01*
X149054706Y-94100866D01*
X149136681Y-94107404D01*
X149215762Y-94095996D01*
X149289611Y-94067676D01*
X149355889Y-94023478D01*
X149412260Y-93964435D01*
X149456383Y-93891582D01*
X149482596Y-93835656D01*
X149482596Y-93219484D01*
X149482596Y-92603311D01*
X149455143Y-92547398D01*
X149438333Y-92516702D01*
X149388133Y-92451264D01*
X149326919Y-92399798D01*
X149257281Y-92363148D01*
X149181805Y-92342157D01*
X149103080Y-92337669D01*
X149023696Y-92350527D01*
X148946238Y-92381574D01*
X148901739Y-92411737D01*
X148852980Y-92458261D01*
X148811034Y-92512015D01*
X148781534Y-92566667D01*
X148780869Y-92568315D01*
X148776165Y-92580319D01*
X148772174Y-92592226D01*
X148768827Y-92605672D01*
X148766056Y-92622296D01*
X148763792Y-92643738D01*
X148761968Y-92671634D01*
X148760515Y-92707623D01*
X148759365Y-92753343D01*
X148758450Y-92810433D01*
X148757701Y-92880530D01*
X148757051Y-92965274D01*
X148756431Y-93066302D01*
X148755773Y-93185252D01*
X148755683Y-93202138D01*
X148755143Y-93337073D01*
X148755033Y-93453371D01*
X148451851Y-93453371D01*
X148451855Y-93442765D01*
X148452226Y-93325445D01*
X148452807Y-93190142D01*
X148455642Y-92554409D01*
X148486828Y-92473493D01*
X148520885Y-92397678D01*
X148580545Y-92301530D01*
X148652056Y-92218861D01*
X148733647Y-92150187D01*
X148823544Y-92096028D01*
X148919975Y-92056902D01*
X149021166Y-92033325D01*
X149125346Y-92025817D01*
X149230741Y-92034894D01*
X149335579Y-92061076D01*
X149438086Y-92104880D01*
X149536491Y-92166823D01*
X149559638Y-92185093D01*
X149630584Y-92255468D01*
X149692488Y-92339187D01*
X149742573Y-92432074D01*
X149778062Y-92529958D01*
X149780172Y-92538010D01*
X149783419Y-92552912D01*
X149786179Y-92570344D01*
X149788491Y-92591852D01*
X149790394Y-92618985D01*
X149791926Y-92653293D01*
X149793128Y-92696322D01*
X149794037Y-92749622D01*
X149794694Y-92814741D01*
X149795137Y-92893227D01*
X149795405Y-92986629D01*
X149795537Y-93096495D01*
X149795572Y-93224374D01*
X149795556Y-93320828D01*
X149795460Y-93434947D01*
X149795243Y-93532207D01*
X149794866Y-93614159D01*
X149794288Y-93682354D01*
X149793468Y-93738343D01*
X149792368Y-93783677D01*
X149790946Y-93819907D01*
X149789966Y-93835656D01*
X149789162Y-93848585D01*
G37*
G36*
X141974516Y-93120160D02*
G01*
X141973906Y-93253716D01*
X141970909Y-93874779D01*
X141947914Y-93943242D01*
X141947025Y-93945876D01*
X141900101Y-94056437D01*
X141839204Y-94153614D01*
X141764913Y-94236860D01*
X141677806Y-94305625D01*
X141578463Y-94359364D01*
X141467463Y-94397530D01*
X141367091Y-94414599D01*
X141260249Y-94415525D01*
X141153578Y-94400320D01*
X141050703Y-94369784D01*
X140955252Y-94324717D01*
X140870851Y-94265918D01*
X140836426Y-94234037D01*
X140798416Y-94185746D01*
X140778913Y-94138191D01*
X140777367Y-94090339D01*
X140792265Y-94045844D01*
X140822601Y-94006227D01*
X140863896Y-93977170D01*
X140912068Y-93961494D01*
X140963035Y-93962021D01*
X140984160Y-93969303D01*
X141017825Y-93987811D01*
X141052964Y-94013084D01*
X141062520Y-94020719D01*
X141137475Y-94070084D01*
X141212312Y-94100284D01*
X141288101Y-94111633D01*
X141365909Y-94104441D01*
X141381855Y-94100819D01*
X141461799Y-94071814D01*
X141531653Y-94027719D01*
X141589162Y-93970257D01*
X141632067Y-93901152D01*
X141634465Y-93896017D01*
X141642183Y-93878523D01*
X141648066Y-93861725D01*
X141652408Y-93842730D01*
X141655500Y-93818643D01*
X141657639Y-93786572D01*
X141659117Y-93743622D01*
X141660227Y-93686899D01*
X141661265Y-93613511D01*
X141664347Y-93381585D01*
X141194951Y-93378778D01*
X141115883Y-93378296D01*
X141020826Y-93377648D01*
X140942366Y-93376959D01*
X140878775Y-93376146D01*
X140828326Y-93375129D01*
X140789289Y-93373828D01*
X140759936Y-93372162D01*
X140738540Y-93370048D01*
X140723372Y-93367408D01*
X140712703Y-93364159D01*
X140704807Y-93360220D01*
X140697953Y-93355512D01*
X140695702Y-93353793D01*
X140670693Y-93330169D01*
X140648345Y-93302718D01*
X140643255Y-93294961D01*
X140638280Y-93285484D01*
X140634393Y-93273747D01*
X140631462Y-93257586D01*
X140629353Y-93234839D01*
X140627934Y-93203344D01*
X140627073Y-93160937D01*
X140626637Y-93105458D01*
X140626560Y-93067886D01*
X140938327Y-93067886D01*
X141301340Y-93067886D01*
X141664353Y-93067886D01*
X141661268Y-92835599D01*
X141660957Y-92812399D01*
X141659932Y-92744104D01*
X141658750Y-92691636D01*
X141657119Y-92652103D01*
X141654742Y-92622612D01*
X141651326Y-92600270D01*
X141646575Y-92582185D01*
X141640195Y-92565463D01*
X141631891Y-92547212D01*
X141608975Y-92507050D01*
X141566794Y-92453876D01*
X141517203Y-92407896D01*
X141465953Y-92375077D01*
X141452858Y-92369040D01*
X141373918Y-92344126D01*
X141294223Y-92336994D01*
X141216401Y-92346772D01*
X141143076Y-92372589D01*
X141076876Y-92413572D01*
X141020425Y-92468852D01*
X140976351Y-92537555D01*
X140944205Y-92602805D01*
X140941266Y-92835346D01*
X140938327Y-93067886D01*
X140626560Y-93067886D01*
X140626493Y-93034742D01*
X140626508Y-92946628D01*
X140626522Y-92929028D01*
X140626856Y-92830627D01*
X140627862Y-92748885D01*
X140629876Y-92681305D01*
X140633229Y-92625388D01*
X140638255Y-92578637D01*
X140645288Y-92538555D01*
X140654661Y-92502645D01*
X140666708Y-92468408D01*
X140681761Y-92433348D01*
X140700155Y-92394967D01*
X140718513Y-92359466D01*
X140746121Y-92314333D01*
X140778169Y-92273361D01*
X140820332Y-92228698D01*
X140834863Y-92214482D01*
X140920846Y-92143142D01*
X141011854Y-92089671D01*
X141110666Y-92052691D01*
X141220061Y-92030828D01*
X141308182Y-92025590D01*
X141417346Y-92035637D01*
X141522448Y-92063199D01*
X141621472Y-92107136D01*
X141712400Y-92166311D01*
X141793214Y-92239585D01*
X141861898Y-92325819D01*
X141916435Y-92423875D01*
X141920630Y-92433191D01*
X141931743Y-92458611D01*
X141941286Y-92482712D01*
X141949372Y-92507102D01*
X141956112Y-92533385D01*
X141961615Y-92563168D01*
X141965995Y-92598058D01*
X141969361Y-92639659D01*
X141971826Y-92689578D01*
X141973500Y-92749422D01*
X141974495Y-92820796D01*
X141974922Y-92905306D01*
X141974892Y-93004559D01*
X141974686Y-93067886D01*
X141974516Y-93120160D01*
G37*
G36*
X134450143Y-92029113D02*
G01*
X134549136Y-92050780D01*
X134645153Y-92088163D01*
X134734404Y-92139854D01*
X134813103Y-92204444D01*
X134862016Y-92256383D01*
X134921232Y-92337089D01*
X134963112Y-92422281D01*
X134988999Y-92514925D01*
X135000233Y-92617982D01*
X135000540Y-92686263D01*
X134991941Y-92769400D01*
X134971639Y-92847699D01*
X134938203Y-92928316D01*
X134928469Y-92947753D01*
X134909414Y-92981051D01*
X134887211Y-93012987D01*
X134860210Y-93045074D01*
X134826760Y-93078824D01*
X134785212Y-93115750D01*
X134733916Y-93157365D01*
X134671222Y-93205183D01*
X134595479Y-93260715D01*
X134505037Y-93325476D01*
X134452398Y-93363125D01*
X134388197Y-93409727D01*
X134329477Y-93453094D01*
X134278347Y-93491634D01*
X134236918Y-93523750D01*
X134207300Y-93547848D01*
X134191604Y-93562333D01*
X134161508Y-93603565D01*
X134130487Y-93671383D01*
X134114593Y-93745123D01*
X134114692Y-93820048D01*
X134131645Y-93891421D01*
X134142228Y-93915631D01*
X134180590Y-93975655D01*
X134231523Y-94029241D01*
X134290047Y-94070756D01*
X134313657Y-94083143D01*
X134336404Y-94092092D01*
X134361175Y-94097087D01*
X134393814Y-94099258D01*
X134440162Y-94099730D01*
X134455846Y-94099635D01*
X134506198Y-94097197D01*
X134548756Y-94090087D01*
X134586772Y-94076473D01*
X134623496Y-94054521D01*
X134662179Y-94022400D01*
X134706073Y-93978277D01*
X134758428Y-93920320D01*
X134771762Y-93905285D01*
X134791849Y-93884925D01*
X134809026Y-93874410D01*
X134829911Y-93870493D01*
X134861123Y-93869925D01*
X134899883Y-93873189D01*
X134950788Y-93890306D01*
X134989237Y-93920745D01*
X135013555Y-93962990D01*
X135022066Y-94015525D01*
X135021453Y-94030237D01*
X135011774Y-94074165D01*
X134989229Y-94120107D01*
X134952394Y-94170536D01*
X134899846Y-94227925D01*
X134861039Y-94265670D01*
X134822756Y-94297830D01*
X134784069Y-94323558D01*
X134738468Y-94347686D01*
X134724418Y-94354368D01*
X134679105Y-94374244D01*
X134635552Y-94391232D01*
X134601541Y-94402232D01*
X134586669Y-94405617D01*
X134532910Y-94412920D01*
X134469543Y-94416306D01*
X134403694Y-94415762D01*
X134342492Y-94411274D01*
X134293064Y-94402829D01*
X134278640Y-94398985D01*
X134176558Y-94360498D01*
X134081724Y-94304721D01*
X133996989Y-94233288D01*
X133954212Y-94187941D01*
X133903508Y-94122927D01*
X133863893Y-94054399D01*
X133831181Y-93975856D01*
X133830010Y-93972570D01*
X133819207Y-93939578D01*
X133812124Y-93909668D01*
X133808023Y-93877184D01*
X133806163Y-93836468D01*
X133805805Y-93781864D01*
X133806357Y-93731572D01*
X133808463Y-93687851D01*
X133812898Y-93652275D01*
X133820449Y-93618795D01*
X133831903Y-93581363D01*
X133861928Y-93504927D01*
X133916744Y-93407385D01*
X133985368Y-93322789D01*
X133993059Y-93315392D01*
X134021368Y-93291262D01*
X134062701Y-93258545D01*
X134114848Y-93218905D01*
X134175604Y-93174006D01*
X134242758Y-93125511D01*
X134314104Y-93075085D01*
X134353743Y-93047342D01*
X134434012Y-92990745D01*
X134500128Y-92942980D01*
X134553462Y-92902481D01*
X134595387Y-92867684D01*
X134627274Y-92837022D01*
X134650494Y-92808930D01*
X134666421Y-92781841D01*
X134676425Y-92754191D01*
X134681879Y-92724414D01*
X134684154Y-92690943D01*
X134684623Y-92652214D01*
X134684509Y-92627287D01*
X134683087Y-92586606D01*
X134679269Y-92556909D01*
X134672097Y-92532404D01*
X134660609Y-92507298D01*
X134643334Y-92477550D01*
X134594732Y-92420069D01*
X134534771Y-92376957D01*
X134466072Y-92349840D01*
X134391260Y-92340344D01*
X134338362Y-92342866D01*
X134273626Y-92356338D01*
X134217122Y-92383194D01*
X134165059Y-92425408D01*
X134113649Y-92484956D01*
X134091146Y-92511796D01*
X134046437Y-92549182D01*
X133999741Y-92567344D01*
X133950328Y-92566490D01*
X133897467Y-92546830D01*
X133870094Y-92528631D01*
X133837722Y-92490306D01*
X133821533Y-92443819D01*
X133822269Y-92391907D01*
X133840672Y-92337308D01*
X133869490Y-92289405D01*
X133924656Y-92224294D01*
X133993326Y-92164693D01*
X134071991Y-92112825D01*
X134157140Y-92070911D01*
X134245263Y-92041174D01*
X134332848Y-92025833D01*
X134351961Y-92024571D01*
X134450143Y-92029113D01*
G37*
G36*
X136679680Y-92035169D02*
G01*
X136720519Y-92053954D01*
X136754218Y-92083579D01*
X136777282Y-92123258D01*
X136786216Y-92172207D01*
X136784544Y-92183341D01*
X136777369Y-92213875D01*
X136764673Y-92262216D01*
X136746599Y-92327871D01*
X136723290Y-92410343D01*
X136694888Y-92509138D01*
X136661535Y-92623761D01*
X136623375Y-92753716D01*
X136580550Y-92898508D01*
X136533202Y-93057643D01*
X136481473Y-93230624D01*
X136477510Y-93243850D01*
X136436691Y-93380215D01*
X136397520Y-93511353D01*
X136360361Y-93636036D01*
X136325575Y-93753037D01*
X136293525Y-93861128D01*
X136264573Y-93959081D01*
X136239081Y-94045669D01*
X136217411Y-94119663D01*
X136199926Y-94179836D01*
X136186989Y-94224960D01*
X136178960Y-94253807D01*
X136176204Y-94265150D01*
X136177803Y-94274982D01*
X136184586Y-94302511D01*
X136195936Y-94344007D01*
X136211035Y-94396801D01*
X136229066Y-94458223D01*
X136249212Y-94525603D01*
X136270657Y-94596273D01*
X136292584Y-94667563D01*
X136314174Y-94736802D01*
X136334612Y-94801323D01*
X136353081Y-94858456D01*
X136368763Y-94905530D01*
X136380842Y-94939877D01*
X136388500Y-94958826D01*
X136406698Y-94990786D01*
X136457042Y-95051376D01*
X136520845Y-95098663D01*
X136596761Y-95131776D01*
X136683441Y-95149840D01*
X136685163Y-95150036D01*
X136728953Y-95157001D01*
X136767367Y-95166538D01*
X136793323Y-95176903D01*
X136821634Y-95200449D01*
X136846741Y-95240795D01*
X136859429Y-95288556D01*
X136858485Y-95338596D01*
X136842694Y-95385777D01*
X136840432Y-95389701D01*
X136815483Y-95418583D01*
X136781565Y-95442780D01*
X136756972Y-95454654D01*
X136733783Y-95461042D01*
X136705600Y-95462608D01*
X136665230Y-95460443D01*
X136584522Y-95450115D01*
X136483001Y-95422714D01*
X136386362Y-95378579D01*
X136291087Y-95316356D01*
X136257628Y-95289644D01*
X136200091Y-95233347D01*
X136150732Y-95168713D01*
X136107845Y-95092947D01*
X136069720Y-95003255D01*
X136034650Y-94896842D01*
X136031931Y-94887654D01*
X136022233Y-94855050D01*
X136007455Y-94805491D01*
X135987957Y-94740189D01*
X135964102Y-94660352D01*
X135936252Y-94567191D01*
X135904769Y-94461915D01*
X135870014Y-94345734D01*
X135832349Y-94219858D01*
X135792137Y-94085498D01*
X135749739Y-93943862D01*
X135705517Y-93796161D01*
X135659834Y-93643604D01*
X135613050Y-93487402D01*
X135585528Y-93395458D01*
X135540301Y-93244101D01*
X135496840Y-93098323D01*
X135455467Y-92959220D01*
X135416504Y-92827887D01*
X135380274Y-92705421D01*
X135347099Y-92592918D01*
X135317301Y-92491475D01*
X135291203Y-92402187D01*
X135269127Y-92326150D01*
X135251396Y-92264461D01*
X135238332Y-92218215D01*
X135230257Y-92188510D01*
X135227494Y-92176440D01*
X135234146Y-92143463D01*
X135252229Y-92105224D01*
X135277209Y-92070476D01*
X135304542Y-92046861D01*
X135347477Y-92031628D01*
X135395671Y-92029953D01*
X135442931Y-92040932D01*
X135483739Y-92063272D01*
X135512580Y-92095679D01*
X135515116Y-92101757D01*
X135523527Y-92125980D01*
X135536818Y-92166641D01*
X135554545Y-92222303D01*
X135576262Y-92291531D01*
X135601525Y-92372889D01*
X135629889Y-92464943D01*
X135660908Y-92566256D01*
X135694138Y-92675393D01*
X135729134Y-92790919D01*
X135765450Y-92911398D01*
X135788712Y-92988687D01*
X135823879Y-93105257D01*
X135857253Y-93215552D01*
X135888409Y-93318188D01*
X135916923Y-93411779D01*
X135942371Y-93494941D01*
X135964328Y-93566289D01*
X135982371Y-93624437D01*
X135996076Y-93668001D01*
X136005017Y-93695596D01*
X136008772Y-93705836D01*
X136010529Y-93702786D01*
X136017560Y-93683484D01*
X136029444Y-93647642D01*
X136045762Y-93596618D01*
X136066095Y-93531768D01*
X136090023Y-93454448D01*
X136117128Y-93366015D01*
X136146991Y-93267826D01*
X136179192Y-93161237D01*
X136213313Y-93047604D01*
X136248935Y-92928285D01*
X136269691Y-92858657D01*
X136304979Y-92740706D01*
X136338739Y-92628398D01*
X136370524Y-92523190D01*
X136399888Y-92426539D01*
X136426383Y-92339901D01*
X136449564Y-92264736D01*
X136468985Y-92202499D01*
X136484198Y-92154649D01*
X136494758Y-92122642D01*
X136500218Y-92107936D01*
X136514838Y-92084140D01*
X136549281Y-92051710D01*
X136590566Y-92033262D01*
X136635197Y-92028010D01*
X136679680Y-92035169D01*
G37*
G36*
X147998040Y-92355819D02*
G01*
X147998696Y-92416358D01*
X147999241Y-92487411D01*
X147999686Y-92569882D01*
X148000041Y-92664677D01*
X148000315Y-92772699D01*
X148000520Y-92894855D01*
X148000665Y-93032048D01*
X148000760Y-93185183D01*
X148000815Y-93355164D01*
X148000841Y-93542898D01*
X148000848Y-93749288D01*
X148000827Y-93896321D01*
X148000710Y-94116795D01*
X148000486Y-94318206D01*
X148000153Y-94500861D01*
X147999710Y-94665065D01*
X147999154Y-94811125D01*
X147998483Y-94939349D01*
X147997696Y-95050042D01*
X147996791Y-95143511D01*
X147995765Y-95220062D01*
X147994616Y-95280003D01*
X147993343Y-95323639D01*
X147991944Y-95351278D01*
X147990416Y-95363225D01*
X147981860Y-95381509D01*
X147949946Y-95421972D01*
X147907933Y-95450306D01*
X147894133Y-95455549D01*
X147844417Y-95462127D01*
X147794861Y-95452245D01*
X147750478Y-95427495D01*
X147716279Y-95389468D01*
X147692761Y-95351636D01*
X147689965Y-94875696D01*
X147687169Y-94399755D01*
X147440562Y-94396083D01*
X147406411Y-94395566D01*
X147337514Y-94394373D01*
X147283920Y-94393006D01*
X147242632Y-94391180D01*
X147210649Y-94388608D01*
X147184974Y-94385006D01*
X147162608Y-94380088D01*
X147140551Y-94373568D01*
X147115805Y-94365162D01*
X147054547Y-94340596D01*
X146954430Y-94284927D01*
X146865522Y-94214822D01*
X146789515Y-94131966D01*
X146728103Y-94038044D01*
X146682979Y-93934738D01*
X146656027Y-93855217D01*
X146653771Y-93368941D01*
X146955706Y-93368941D01*
X146955962Y-93463955D01*
X146956590Y-93549163D01*
X146957572Y-93622616D01*
X146958886Y-93682361D01*
X146960512Y-93726450D01*
X146962431Y-93752929D01*
X146969642Y-93796064D01*
X146996454Y-93878206D01*
X147038688Y-93948896D01*
X147095779Y-94007305D01*
X147167162Y-94052604D01*
X147175443Y-94056655D01*
X147192363Y-94064427D01*
X147208698Y-94070317D01*
X147227326Y-94074631D01*
X147251125Y-94077674D01*
X147282972Y-94079751D01*
X147325746Y-94081170D01*
X147382324Y-94082236D01*
X147455584Y-94083254D01*
X147687871Y-94086339D01*
X147687871Y-93219195D01*
X147687871Y-92352050D01*
X147465364Y-92355988D01*
X147396043Y-92357373D01*
X147337518Y-92359055D01*
X147292991Y-92361174D01*
X147259575Y-92363979D01*
X147234383Y-92367715D01*
X147214529Y-92372631D01*
X147197127Y-92378974D01*
X147141045Y-92406793D01*
X147074421Y-92456528D01*
X147021772Y-92519500D01*
X146981817Y-92597005D01*
X146980147Y-92601209D01*
X146975524Y-92613613D01*
X146971640Y-92626497D01*
X146968419Y-92641594D01*
X146965781Y-92660641D01*
X146963650Y-92685370D01*
X146961947Y-92717518D01*
X146960594Y-92758818D01*
X146959514Y-92811006D01*
X146958627Y-92875815D01*
X146957857Y-92954982D01*
X146957125Y-93050239D01*
X146956352Y-93163323D01*
X146955843Y-93266073D01*
X146955706Y-93368941D01*
X146653771Y-93368941D01*
X146653230Y-93252331D01*
X146652998Y-93201823D01*
X146652485Y-93076374D01*
X146652255Y-92968258D01*
X146652438Y-92875840D01*
X146653163Y-92797490D01*
X146654561Y-92731575D01*
X146656762Y-92676462D01*
X146659895Y-92630520D01*
X146664092Y-92592115D01*
X146669481Y-92559616D01*
X146676194Y-92531391D01*
X146684360Y-92505806D01*
X146694109Y-92481231D01*
X146705572Y-92456031D01*
X146718878Y-92428576D01*
X146722218Y-92421836D01*
X146781326Y-92323431D01*
X146852880Y-92239871D01*
X146937915Y-92170131D01*
X147037467Y-92113186D01*
X147050403Y-92107081D01*
X147082835Y-92092453D01*
X147112923Y-92080597D01*
X147143103Y-92071222D01*
X147175807Y-92064040D01*
X147213469Y-92058758D01*
X147258523Y-92055088D01*
X147313403Y-92052738D01*
X147380542Y-92051419D01*
X147462374Y-92050841D01*
X147561333Y-92050712D01*
X147569519Y-92050712D01*
X147658328Y-92050747D01*
X147729854Y-92050930D01*
X147786201Y-92051386D01*
X147829475Y-92052240D01*
X147861778Y-92053618D01*
X147885215Y-92055643D01*
X147901890Y-92058441D01*
X147913908Y-92062136D01*
X147923373Y-92066854D01*
X147932389Y-92072718D01*
X147934743Y-92074381D01*
X147961670Y-92099610D01*
X147982738Y-92128804D01*
X147983183Y-92129656D01*
X147985499Y-92134815D01*
X147987604Y-92141441D01*
X147989507Y-92150439D01*
X147991219Y-92162713D01*
X147992750Y-92179168D01*
X147994110Y-92200708D01*
X147995309Y-92228239D01*
X147996356Y-92262664D01*
X147997263Y-92304889D01*
X147997982Y-92352050D01*
X147998040Y-92355819D01*
G37*
G36*
X146264812Y-93093215D02*
G01*
X146264806Y-93224374D01*
X146264797Y-93293966D01*
X146264716Y-93410961D01*
X146264516Y-93510789D01*
X146264157Y-93595014D01*
X146263600Y-93665201D01*
X146262803Y-93722913D01*
X146261726Y-93769716D01*
X146260328Y-93807172D01*
X146258570Y-93836847D01*
X146256410Y-93860304D01*
X146253809Y-93879107D01*
X146250727Y-93894821D01*
X146247121Y-93909010D01*
X146244626Y-93917784D01*
X146203372Y-94027387D01*
X146146989Y-94126046D01*
X146076552Y-94212425D01*
X145993138Y-94285184D01*
X145897824Y-94342988D01*
X145874369Y-94354087D01*
X145825520Y-94374764D01*
X145778726Y-94391836D01*
X145741548Y-94402427D01*
X145679173Y-94411855D01*
X145598184Y-94416059D01*
X145516425Y-94413104D01*
X145443243Y-94402972D01*
X145390006Y-94388305D01*
X145326039Y-94363185D01*
X145261988Y-94331291D01*
X145201661Y-94294942D01*
X145148866Y-94256459D01*
X145107412Y-94218160D01*
X145081106Y-94182367D01*
X145075517Y-94169587D01*
X145066921Y-94124048D01*
X145071463Y-94076694D01*
X145088699Y-94036058D01*
X145101808Y-94018096D01*
X145135159Y-93985402D01*
X145173538Y-93967959D01*
X145222353Y-93962803D01*
X145229502Y-93962842D01*
X145263530Y-93965306D01*
X145288200Y-93973470D01*
X145312106Y-93989934D01*
X145369390Y-94033162D01*
X145442364Y-94076368D01*
X145512318Y-94102433D01*
X145581758Y-94111921D01*
X145653190Y-94105392D01*
X145729121Y-94083409D01*
X145747185Y-94075690D01*
X145802022Y-94041573D01*
X145853806Y-93994977D01*
X145897483Y-93940956D01*
X145928003Y-93884559D01*
X145932739Y-93872319D01*
X145939262Y-93852796D01*
X145944170Y-93832097D01*
X145947756Y-93807160D01*
X145950311Y-93774918D01*
X145952126Y-93732309D01*
X145953492Y-93676268D01*
X145954702Y-93603730D01*
X145958035Y-93381585D01*
X145490358Y-93378778D01*
X145022680Y-93375972D01*
X144985766Y-93353022D01*
X144972861Y-93344894D01*
X144957212Y-93333773D01*
X144944680Y-93321483D01*
X144934919Y-93305981D01*
X144927582Y-93285222D01*
X144922324Y-93257163D01*
X144918798Y-93219761D01*
X144916659Y-93170972D01*
X144915559Y-93108753D01*
X144915345Y-93067886D01*
X145221605Y-93067886D01*
X145589950Y-93067886D01*
X145958296Y-93067886D01*
X145955063Y-92840489D01*
X145954871Y-92827088D01*
X145953782Y-92757456D01*
X145952570Y-92703954D01*
X145950929Y-92663646D01*
X145948555Y-92633593D01*
X145945142Y-92610856D01*
X145940385Y-92592498D01*
X145933979Y-92575581D01*
X145925617Y-92557166D01*
X145918879Y-92543570D01*
X145872599Y-92474553D01*
X145812464Y-92415548D01*
X145742781Y-92370939D01*
X145725021Y-92362385D01*
X145695174Y-92350007D01*
X145667593Y-92343062D01*
X145635010Y-92340052D01*
X145590156Y-92339479D01*
X145585508Y-92339497D01*
X145539870Y-92340734D01*
X145505712Y-92344822D01*
X145475630Y-92353141D01*
X145442220Y-92367073D01*
X145407766Y-92385654D01*
X145347009Y-92432237D01*
X145294480Y-92490248D01*
X145255442Y-92554409D01*
X145252887Y-92559899D01*
X145244748Y-92578249D01*
X145238565Y-92595464D01*
X145234022Y-92614501D01*
X145230803Y-92638317D01*
X145228591Y-92669868D01*
X145227070Y-92712109D01*
X145225925Y-92767998D01*
X145224838Y-92840489D01*
X145221605Y-93067886D01*
X144915345Y-93067886D01*
X144915153Y-93031060D01*
X144915095Y-92935849D01*
X144915116Y-92887261D01*
X144915432Y-92797221D01*
X144916405Y-92722997D01*
X144918386Y-92662043D01*
X144921725Y-92611812D01*
X144926775Y-92569758D01*
X144933886Y-92533335D01*
X144943409Y-92499997D01*
X144955697Y-92467198D01*
X144971100Y-92432391D01*
X144989968Y-92393030D01*
X145001699Y-92370468D01*
X145055558Y-92289618D01*
X145123219Y-92214765D01*
X145200161Y-92150431D01*
X145281864Y-92101135D01*
X145359564Y-92066997D01*
X145432866Y-92044093D01*
X145507179Y-92031649D01*
X145589950Y-92027895D01*
X145670626Y-92031440D01*
X145745252Y-92043673D01*
X145818566Y-92066379D01*
X145898037Y-92101337D01*
X145919284Y-92112394D01*
X146000377Y-92166287D01*
X146075503Y-92234044D01*
X146140131Y-92311135D01*
X146189730Y-92393030D01*
X146202976Y-92419994D01*
X146215676Y-92446501D01*
X146226508Y-92471191D01*
X146235620Y-92495710D01*
X146243160Y-92521701D01*
X146249278Y-92550809D01*
X146254121Y-92584679D01*
X146257838Y-92624954D01*
X146260577Y-92673280D01*
X146262488Y-92731300D01*
X146263719Y-92800660D01*
X146264417Y-92883002D01*
X146264732Y-92979973D01*
X146264794Y-93067886D01*
X146264812Y-93093215D01*
G37*
G36*
X141233628Y-87865925D02*
G01*
X141216615Y-87956086D01*
X141202299Y-88032521D01*
X141190889Y-88094137D01*
X141182593Y-88139837D01*
X141177617Y-88168527D01*
X141176172Y-88179112D01*
X141176391Y-88179155D01*
X141186694Y-88172957D01*
X141211738Y-88155859D01*
X141250655Y-88128491D01*
X141302577Y-88091484D01*
X141366635Y-88045467D01*
X141441962Y-87991072D01*
X141527689Y-87928927D01*
X141622949Y-87859664D01*
X141726872Y-87783912D01*
X141838591Y-87702302D01*
X141957238Y-87615464D01*
X142081945Y-87524028D01*
X142211842Y-87428625D01*
X142346063Y-87329884D01*
X142358300Y-87320875D01*
X142492977Y-87221765D01*
X142623698Y-87125645D01*
X142749556Y-87033179D01*
X142869644Y-86945029D01*
X142983056Y-86861858D01*
X143088884Y-86784330D01*
X143186223Y-86713107D01*
X143274166Y-86648852D01*
X143351805Y-86592229D01*
X143418234Y-86543900D01*
X143472547Y-86504528D01*
X143513836Y-86474777D01*
X143541196Y-86455309D01*
X143553718Y-86446788D01*
X143564552Y-86441124D01*
X143612590Y-86426492D01*
X143667666Y-86421674D01*
X143721915Y-86426840D01*
X143767472Y-86442161D01*
X143774806Y-86447740D01*
X143796399Y-86466220D01*
X143830933Y-86496744D01*
X143877623Y-86538597D01*
X143935688Y-86591063D01*
X144004344Y-86653426D01*
X144082809Y-86724970D01*
X144170300Y-86804978D01*
X144266033Y-86892735D01*
X144369227Y-86987525D01*
X144479098Y-87088630D01*
X144594863Y-87195336D01*
X144715740Y-87306926D01*
X144840946Y-87422684D01*
X144969698Y-87541894D01*
X145062206Y-87627601D01*
X145189589Y-87745588D01*
X145313263Y-87860107D01*
X145432410Y-87970401D01*
X145546211Y-88075715D01*
X145653848Y-88175291D01*
X145754504Y-88268374D01*
X145847360Y-88354208D01*
X145931598Y-88432035D01*
X146006400Y-88501101D01*
X146070948Y-88560649D01*
X146124423Y-88609923D01*
X146166009Y-88648166D01*
X146194885Y-88674623D01*
X146210235Y-88688537D01*
X146244352Y-88720447D01*
X146245569Y-88721585D01*
X146288975Y-88770435D01*
X146317588Y-88817066D01*
X146333339Y-88864935D01*
X146338160Y-88917499D01*
X146334290Y-88961458D01*
X146315236Y-89023032D01*
X146282361Y-89076736D01*
X146238009Y-89119080D01*
X146184520Y-89146573D01*
X146178915Y-89148757D01*
X146155877Y-89158107D01*
X146115920Y-89174486D01*
X146059732Y-89197606D01*
X145988003Y-89227184D01*
X145901422Y-89262932D01*
X145800679Y-89304567D01*
X145772189Y-89316349D01*
X145686462Y-89351802D01*
X145559461Y-89404353D01*
X145420366Y-89461932D01*
X145269865Y-89524256D01*
X145108649Y-89591039D01*
X144937406Y-89661994D01*
X144756826Y-89736837D01*
X144567597Y-89815283D01*
X144370410Y-89897044D01*
X144165954Y-89981838D01*
X143954918Y-90069376D01*
X143737992Y-90159376D01*
X143515864Y-90251549D01*
X143289224Y-90345613D01*
X143140814Y-90407207D01*
X142916857Y-90500131D01*
X142697794Y-90590995D01*
X142484319Y-90679513D01*
X142277125Y-90765397D01*
X142076905Y-90848362D01*
X141884352Y-90928121D01*
X141700160Y-91004387D01*
X141525021Y-91076874D01*
X141359629Y-91145294D01*
X141204676Y-91209363D01*
X141060856Y-91268792D01*
X140928863Y-91323295D01*
X140809388Y-91372587D01*
X140703126Y-91416379D01*
X140610769Y-91454387D01*
X140533011Y-91486322D01*
X140470544Y-91511900D01*
X140424062Y-91530832D01*
X140394258Y-91542833D01*
X140381826Y-91547615D01*
X140318916Y-91557391D01*
X140256909Y-91549542D01*
X140199136Y-91525775D01*
X140148706Y-91487864D01*
X140108730Y-91437584D01*
X140082317Y-91376709D01*
X140078074Y-91361787D01*
X140063207Y-91309898D01*
X140044404Y-91244711D01*
X140022133Y-91167830D01*
X139996867Y-91080858D01*
X139969076Y-90985401D01*
X139939229Y-90883061D01*
X139907798Y-90775442D01*
X139898455Y-90743491D01*
X141031096Y-90743491D01*
X141034098Y-90749607D01*
X141039677Y-90747567D01*
X141062158Y-90738592D01*
X141100832Y-90722877D01*
X141154629Y-90700864D01*
X141222476Y-90673000D01*
X141303304Y-90639727D01*
X141396041Y-90601491D01*
X141499616Y-90558736D01*
X141612959Y-90511905D01*
X141734998Y-90461444D01*
X141864664Y-90407796D01*
X142000884Y-90351406D01*
X142142588Y-90292719D01*
X142288705Y-90232178D01*
X142438165Y-90170227D01*
X142589895Y-90107312D01*
X142742826Y-90043876D01*
X142895887Y-89980364D01*
X143048006Y-89917220D01*
X143198113Y-89854888D01*
X143345137Y-89793813D01*
X143488007Y-89734439D01*
X143625652Y-89677210D01*
X143757001Y-89622570D01*
X143880983Y-89570965D01*
X143996527Y-89522837D01*
X144102563Y-89478632D01*
X144198020Y-89438794D01*
X144281826Y-89403767D01*
X144352911Y-89373995D01*
X144410204Y-89349923D01*
X144452634Y-89331995D01*
X144479131Y-89320656D01*
X144488622Y-89316349D01*
X144488157Y-89314729D01*
X144475188Y-89313977D01*
X144450520Y-89316355D01*
X144441842Y-89317370D01*
X144413329Y-89320341D01*
X144368119Y-89324850D01*
X144307909Y-89330735D01*
X144234398Y-89337832D01*
X144149284Y-89345979D01*
X144054265Y-89355013D01*
X143951040Y-89364770D01*
X143841306Y-89375089D01*
X143726762Y-89385805D01*
X143551694Y-89402149D01*
X143342762Y-89421676D01*
X143145241Y-89440160D01*
X142959753Y-89457542D01*
X142786917Y-89473763D01*
X142627355Y-89488766D01*
X142481687Y-89502491D01*
X142350534Y-89514880D01*
X142234514Y-89525874D01*
X142134250Y-89535414D01*
X142050362Y-89543443D01*
X141983469Y-89549901D01*
X141934192Y-89554729D01*
X141903152Y-89557870D01*
X141890970Y-89559264D01*
X141889229Y-89560986D01*
X141877584Y-89575622D01*
X141856093Y-89603940D01*
X141832407Y-89635657D01*
X141825852Y-89644435D01*
X141787955Y-89695603D01*
X141743497Y-89755938D01*
X141693572Y-89823935D01*
X141639276Y-89898090D01*
X141581703Y-89976897D01*
X141521949Y-90058852D01*
X141461107Y-90142450D01*
X141400272Y-90226185D01*
X141340540Y-90308553D01*
X141283005Y-90388048D01*
X141228762Y-90463167D01*
X141178905Y-90532403D01*
X141134530Y-90594252D01*
X141096731Y-90647209D01*
X141066603Y-90689769D01*
X141045241Y-90720427D01*
X141033739Y-90737678D01*
X141031096Y-90743491D01*
X139898455Y-90743491D01*
X139875253Y-90664149D01*
X139842064Y-90550786D01*
X139808702Y-90436955D01*
X139775638Y-90324262D01*
X139743342Y-90214309D01*
X139712284Y-90108701D01*
X139682935Y-90009042D01*
X139655765Y-89916936D01*
X139631246Y-89833986D01*
X139609846Y-89761797D01*
X139603805Y-89741502D01*
X140112493Y-89741502D01*
X140112500Y-89741526D01*
X140116497Y-89754882D01*
X140125206Y-89784382D01*
X140137860Y-89827409D01*
X140153688Y-89881345D01*
X140171922Y-89943573D01*
X140191793Y-90011475D01*
X140212789Y-90083070D01*
X140232182Y-90148585D01*
X140247177Y-90198273D01*
X140258289Y-90233723D01*
X140266036Y-90256526D01*
X140270936Y-90268272D01*
X140273506Y-90270551D01*
X140274263Y-90264953D01*
X140274326Y-90264196D01*
X140275792Y-90255259D01*
X140774341Y-90255259D01*
X140775135Y-90254725D01*
X140784713Y-90243172D01*
X140804052Y-90217899D01*
X140831919Y-90180578D01*
X140867080Y-90132880D01*
X140908299Y-90076478D01*
X140954343Y-90013044D01*
X141003978Y-89944248D01*
X141030443Y-89907431D01*
X141082784Y-89834341D01*
X141124875Y-89775013D01*
X141157620Y-89728043D01*
X141181927Y-89692027D01*
X141198700Y-89665560D01*
X141208846Y-89647238D01*
X141213271Y-89635657D01*
X141212881Y-89629413D01*
X141208582Y-89627100D01*
X141202484Y-89626892D01*
X141179166Y-89627849D01*
X141143635Y-89630247D01*
X141099854Y-89633723D01*
X141051790Y-89637910D01*
X141003407Y-89642445D01*
X140958670Y-89646963D01*
X140921543Y-89651100D01*
X140895992Y-89654490D01*
X140885982Y-89656769D01*
X140885451Y-89658951D01*
X140881814Y-89676664D01*
X140876188Y-89705050D01*
X140875167Y-89710200D01*
X140865966Y-89757216D01*
X140854669Y-89815370D01*
X140841733Y-89882317D01*
X140827616Y-89955717D01*
X140821211Y-89989235D01*
X140807862Y-90060060D01*
X140796171Y-90123419D01*
X140786557Y-90176964D01*
X140779435Y-90218351D01*
X140775224Y-90245231D01*
X140774341Y-90255259D01*
X140275792Y-90255259D01*
X140276757Y-90249380D01*
X140282369Y-90218336D01*
X140290694Y-90173577D01*
X140301259Y-90117615D01*
X140313595Y-90052963D01*
X140327230Y-89982133D01*
X140330007Y-89967745D01*
X140343240Y-89898373D01*
X140354894Y-89835980D01*
X140364531Y-89783007D01*
X140371713Y-89741900D01*
X140376001Y-89715099D01*
X140376957Y-89705050D01*
X140375831Y-89704771D01*
X140360591Y-89704913D01*
X140330555Y-89706625D01*
X140289362Y-89709673D01*
X140240652Y-89713822D01*
X140214459Y-89716234D01*
X140168526Y-89720978D01*
X140138122Y-89725281D01*
X140120488Y-89729738D01*
X140112864Y-89734947D01*
X140112493Y-89741502D01*
X139603805Y-89741502D01*
X139592038Y-89701972D01*
X139578291Y-89656115D01*
X139569076Y-89625830D01*
X139564863Y-89612721D01*
X139562984Y-89607593D01*
X139552780Y-89558832D01*
X139550931Y-89502270D01*
X139557178Y-89446520D01*
X139571262Y-89400192D01*
X139573025Y-89396042D01*
X139581703Y-89374969D01*
X139597095Y-89337299D01*
X139618801Y-89284020D01*
X139646417Y-89216126D01*
X139679544Y-89134607D01*
X139679923Y-89133673D01*
X140988674Y-89133673D01*
X140991467Y-89148520D01*
X141005334Y-89154537D01*
X141006033Y-89154485D01*
X141022105Y-89153016D01*
X141054653Y-89149874D01*
X141101012Y-89145320D01*
X141158516Y-89139618D01*
X141224501Y-89133031D01*
X141296304Y-89125822D01*
X141304451Y-89125003D01*
X141376037Y-89117860D01*
X141441751Y-89111403D01*
X141498873Y-89105891D01*
X141544688Y-89101584D01*
X141576478Y-89098742D01*
X141591525Y-89097624D01*
X141595940Y-89095733D01*
X141605514Y-89087385D01*
X141619977Y-89071594D01*
X141639972Y-89047507D01*
X141658576Y-89023878D01*
X142269465Y-89023878D01*
X142269894Y-89024802D01*
X142279406Y-89027098D01*
X142302180Y-89027491D01*
X142339240Y-89025913D01*
X142391616Y-89022296D01*
X142460334Y-89016571D01*
X142546421Y-89008671D01*
X142650905Y-88998526D01*
X142690520Y-88994648D01*
X142751848Y-88988726D01*
X142829792Y-88981259D01*
X142922844Y-88972388D01*
X143029497Y-88962258D01*
X143148241Y-88951009D01*
X143277569Y-88938785D01*
X143415972Y-88925728D01*
X143561943Y-88911981D01*
X143713973Y-88897686D01*
X143870554Y-88882985D01*
X144030178Y-88868023D01*
X144191337Y-88852940D01*
X144220124Y-88850247D01*
X144375125Y-88835711D01*
X144524925Y-88821607D01*
X144668335Y-88808047D01*
X144804165Y-88795148D01*
X144931225Y-88783024D01*
X145048325Y-88771789D01*
X145154276Y-88761558D01*
X145247889Y-88752447D01*
X145327972Y-88744570D01*
X145393337Y-88738042D01*
X145442794Y-88732978D01*
X145475153Y-88729492D01*
X145489225Y-88727699D01*
X145525426Y-88720447D01*
X144659871Y-87918444D01*
X144583243Y-87847452D01*
X144474250Y-87746507D01*
X144369271Y-87649318D01*
X144269246Y-87556751D01*
X144175113Y-87469676D01*
X144087812Y-87388958D01*
X144008281Y-87315467D01*
X143937460Y-87250069D01*
X143876288Y-87193633D01*
X143825703Y-87147026D01*
X143786645Y-87111115D01*
X143760054Y-87086769D01*
X143746867Y-87074855D01*
X143699418Y-87033267D01*
X143150494Y-87795627D01*
X142984442Y-88026245D01*
X142895774Y-88149425D01*
X142809548Y-88269284D01*
X142727227Y-88383784D01*
X142649497Y-88491971D01*
X142577041Y-88592888D01*
X142510545Y-88685581D01*
X142450694Y-88769094D01*
X142398172Y-88842471D01*
X142353663Y-88904756D01*
X142317854Y-88954995D01*
X142291428Y-88992232D01*
X142275070Y-89015512D01*
X142269465Y-89023878D01*
X141658576Y-89023878D01*
X141666139Y-89014273D01*
X141699120Y-88971039D01*
X141739557Y-88916954D01*
X141788091Y-88851165D01*
X141845363Y-88772820D01*
X141912014Y-88681067D01*
X141988686Y-88575053D01*
X142076021Y-88453928D01*
X142107558Y-88410132D01*
X142178205Y-88311991D01*
X142245271Y-88218776D01*
X142307882Y-88131705D01*
X142365166Y-88051992D01*
X142416251Y-87980854D01*
X142460262Y-87919506D01*
X142496328Y-87869164D01*
X142523576Y-87831044D01*
X142541132Y-87806362D01*
X142548124Y-87796333D01*
X142548520Y-87795627D01*
X142544681Y-87794616D01*
X142528731Y-87803577D01*
X142503797Y-87820784D01*
X142489673Y-87831139D01*
X142460400Y-87852627D01*
X142417732Y-87883964D01*
X142362897Y-87924246D01*
X142297121Y-87972574D01*
X142221629Y-88028045D01*
X142137648Y-88089760D01*
X142046405Y-88156816D01*
X141949125Y-88228313D01*
X141847036Y-88303349D01*
X141741363Y-88381023D01*
X141032230Y-88902286D01*
X141010681Y-89006976D01*
X141003840Y-89041232D01*
X140996131Y-89082786D01*
X140990785Y-89115276D01*
X140988674Y-89133673D01*
X139679923Y-89133673D01*
X139717779Y-89040454D01*
X139760721Y-88934660D01*
X139807969Y-88818213D01*
X139815546Y-88799532D01*
X140345612Y-88799532D01*
X140348252Y-88799199D01*
X140363469Y-88790430D01*
X140388998Y-88772640D01*
X140421671Y-88748334D01*
X140458317Y-88720022D01*
X140495765Y-88690210D01*
X140530846Y-88661405D01*
X140560389Y-88636114D01*
X140581225Y-88616845D01*
X140590182Y-88606105D01*
X140590721Y-88604336D01*
X140595070Y-88585898D01*
X140602277Y-88551965D01*
X140611868Y-88505014D01*
X140623366Y-88447523D01*
X140636295Y-88381969D01*
X140650180Y-88310829D01*
X140664545Y-88236581D01*
X140678913Y-88161702D01*
X140692810Y-88088670D01*
X140705760Y-88019961D01*
X140717285Y-87958054D01*
X140726912Y-87905425D01*
X140734163Y-87864551D01*
X140738563Y-87837911D01*
X140739636Y-87827981D01*
X140738407Y-87830045D01*
X140730835Y-87846955D01*
X140716990Y-87879522D01*
X140697550Y-87926101D01*
X140673195Y-87985046D01*
X140644604Y-88054709D01*
X140612455Y-88133445D01*
X140577427Y-88219608D01*
X140540200Y-88311551D01*
X140521047Y-88358978D01*
X140485011Y-88448384D01*
X140451678Y-88531308D01*
X140421713Y-88606084D01*
X140395778Y-88671049D01*
X140374537Y-88724541D01*
X140358654Y-88764894D01*
X140348791Y-88790445D01*
X140345612Y-88799532D01*
X139815546Y-88799532D01*
X139859120Y-88692108D01*
X139913774Y-88557333D01*
X139971529Y-88414881D01*
X140031984Y-88265744D01*
X140094736Y-88110911D01*
X140159385Y-87951375D01*
X140225529Y-87788127D01*
X140292767Y-87622157D01*
X140360697Y-87454458D01*
X140428917Y-87286020D01*
X140497027Y-87117835D01*
X140564624Y-86950895D01*
X140631307Y-86786189D01*
X140696674Y-86624710D01*
X140760325Y-86467448D01*
X140821858Y-86315396D01*
X140880870Y-86169544D01*
X140936962Y-86030883D01*
X140989730Y-85900405D01*
X141038774Y-85779102D01*
X141083692Y-85667963D01*
X141124083Y-85567981D01*
X141159545Y-85480147D01*
X141189677Y-85405452D01*
X141214077Y-85344887D01*
X141232344Y-85299444D01*
X141244076Y-85270114D01*
X141254765Y-85251054D01*
X141282354Y-85219060D01*
X141318517Y-85187664D01*
X141357494Y-85161657D01*
X141393521Y-85145833D01*
X141403597Y-85143236D01*
X141470538Y-85136855D01*
X141535226Y-85148370D01*
X141594519Y-85176371D01*
X141645278Y-85219451D01*
X141684363Y-85276203D01*
X141692700Y-85294745D01*
X141699101Y-85319323D01*
X141701182Y-85350267D01*
X141699795Y-85394086D01*
X141697707Y-85411862D01*
X141691934Y-85448940D01*
X141682678Y-85503542D01*
X141670100Y-85574794D01*
X141654363Y-85661824D01*
X141635629Y-85763759D01*
X141614061Y-85879727D01*
X141589820Y-86008854D01*
X141563070Y-86150269D01*
X141533972Y-86303099D01*
X141502689Y-86466470D01*
X141469384Y-86639512D01*
X141434218Y-86821350D01*
X141410758Y-86942493D01*
X141380692Y-87098065D01*
X141351866Y-87247578D01*
X141324489Y-87389936D01*
X141298769Y-87524045D01*
X141274913Y-87648810D01*
X141253130Y-87763135D01*
X141240827Y-87827981D01*
X141233628Y-87865925D01*
G37*
%TD*%
D10*
%TO.C,R2*%
X136400000Y-100710000D03*
X136400000Y-99690000D03*
%TD*%
D11*
%TO.C,C6*%
X139100000Y-102025000D03*
X139100000Y-103575000D03*
%TD*%
D12*
%TO.C,TP1*%
X129400000Y-98700000D03*
%TD*%
D13*
%TO.C,Q1*%
X129050000Y-101250000D03*
X129700000Y-101250000D03*
X130350000Y-101250000D03*
X130350000Y-103150000D03*
X129700000Y-103150000D03*
X129050000Y-103150000D03*
%TD*%
D12*
%TO.C,TP2*%
X141600000Y-101800000D03*
%TD*%
D14*
%TO.C,U1*%
X140906250Y-106025000D03*
X140906250Y-105075000D03*
X140906250Y-104125000D03*
X143181250Y-104125000D03*
X143181250Y-106025000D03*
%TD*%
D15*
%TO.C,SW1*%
X155375000Y-108570000D03*
X146765000Y-108570000D03*
%TD*%
D10*
%TO.C,R5*%
X134400000Y-103010000D03*
X134400000Y-101990000D03*
%TD*%
D16*
%TO.C,D1*%
X147920000Y-96760000D03*
X147920000Y-101960000D03*
%TD*%
D17*
%TO.C,R3*%
X136410000Y-98150000D03*
X135390000Y-98150000D03*
%TD*%
D18*
%TO.C,RV1*%
X128500000Y-107700000D03*
D19*
X131750000Y-106700000D03*
D18*
X128500000Y-105700000D03*
%TD*%
D20*
%TO.C,BT1*%
X160100000Y-83015000D03*
X160100000Y-104985000D03*
D21*
X160100000Y-94000000D03*
%TD*%
D22*
%TO.C,C1*%
X137800000Y-98875000D03*
X137800000Y-97325000D03*
%TD*%
D11*
%TO.C,C4*%
X144973750Y-103825000D03*
X144973750Y-105375000D03*
%TD*%
%TO.C,C5*%
X146633750Y-103855000D03*
X146633750Y-105405000D03*
%TD*%
D23*
%TO.C,R6*%
X131690000Y-100400000D03*
X132710000Y-100400000D03*
%TD*%
D24*
%TO.C,R7*%
X148300000Y-103775000D03*
X148300000Y-105425000D03*
%TD*%
D11*
%TO.C,C7*%
X136000000Y-102825000D03*
X136000000Y-104375000D03*
%TD*%
D10*
%TO.C,R8*%
X126800000Y-103910000D03*
X126800000Y-102890000D03*
%TD*%
D22*
%TO.C,C2*%
X133700000Y-98875000D03*
X133700000Y-97325000D03*
%TD*%
%TO.C,C3*%
X131900000Y-98875000D03*
X131900000Y-97325000D03*
%TD*%
D25*
%TO.C,L1*%
X143685000Y-108290000D03*
X141535000Y-108290000D03*
%TD*%
D17*
%TO.C,R4*%
X134710000Y-100400000D03*
X133690000Y-100400000D03*
%TD*%
D12*
%TO.C,TP4*%
X144600000Y-101600000D03*
%TD*%
D14*
%TO.C,Q2*%
X142562500Y-98850000D03*
X142562500Y-96950000D03*
X144837500Y-97900000D03*
%TD*%
D12*
%TO.C,TP3*%
X140100000Y-98100000D03*
%TD*%
D10*
%TO.C,R9*%
X126800000Y-105910000D03*
X126800000Y-104890000D03*
%TD*%
%TO.C,R1*%
X137600000Y-101810000D03*
X137600000Y-100790000D03*
%TD*%
D12*
%TO.C,TP5*%
X137500000Y-107600000D03*
%TD*%
G36*
X149543039Y-97619685D02*
G01*
X149588794Y-97672489D01*
X149600000Y-97724000D01*
X149600000Y-100976000D01*
X149580315Y-101043039D01*
X149527511Y-101088794D01*
X149476000Y-101100000D01*
X146324000Y-101100000D01*
X146256961Y-101080315D01*
X146211206Y-101027511D01*
X146200000Y-100976000D01*
X146200000Y-97724000D01*
X146219685Y-97656961D01*
X146272489Y-97611206D01*
X146324000Y-97600000D01*
X149476000Y-97600000D01*
X149543039Y-97619685D01*
G37*
M02*
