%TF.GenerationSoftware,KiCad,Pcbnew,7.0.6*%
%TF.CreationDate,2023-09-21T17:00:44-04:00*%
%TF.ProjectId,blinkenbrain,626c696e-6b65-46e6-9272-61696e2e6b69,A*%
%TF.SameCoordinates,Original*%
%TF.FileFunction,Legend,Bot*%
%TF.FilePolarity,Positive*%
%FSLAX46Y46*%
G04 Gerber Fmt 4.6, Leading zero omitted, Abs format (unit mm)*
G04 Created by KiCad (PCBNEW 7.0.6) date 2023-09-21 17:00:44*
%MOMM*%
%LPD*%
G01*
G04 APERTURE LIST*
%ADD10C,0.150000*%
%ADD11C,0.120000*%
G04 APERTURE END LIST*
D10*
X132606077Y-108869819D02*
X132034649Y-108869819D01*
X132320363Y-109869819D02*
X132320363Y-108869819D01*
X131272744Y-109203152D02*
X131272744Y-109869819D01*
X131701315Y-109203152D02*
X131701315Y-109726961D01*
X131701315Y-109726961D02*
X131653696Y-109822200D01*
X131653696Y-109822200D02*
X131558458Y-109869819D01*
X131558458Y-109869819D02*
X131415601Y-109869819D01*
X131415601Y-109869819D02*
X131320363Y-109822200D01*
X131320363Y-109822200D02*
X131272744Y-109774580D01*
X130796553Y-109203152D02*
X130796553Y-109869819D01*
X130796553Y-109298390D02*
X130748934Y-109250771D01*
X130748934Y-109250771D02*
X130653696Y-109203152D01*
X130653696Y-109203152D02*
X130510839Y-109203152D01*
X130510839Y-109203152D02*
X130415601Y-109250771D01*
X130415601Y-109250771D02*
X130367982Y-109346009D01*
X130367982Y-109346009D02*
X130367982Y-109869819D01*
X129510839Y-109822200D02*
X129606077Y-109869819D01*
X129606077Y-109869819D02*
X129796553Y-109869819D01*
X129796553Y-109869819D02*
X129891791Y-109822200D01*
X129891791Y-109822200D02*
X129939410Y-109726961D01*
X129939410Y-109726961D02*
X129939410Y-109346009D01*
X129939410Y-109346009D02*
X129891791Y-109250771D01*
X129891791Y-109250771D02*
X129796553Y-109203152D01*
X129796553Y-109203152D02*
X129606077Y-109203152D01*
X129606077Y-109203152D02*
X129510839Y-109250771D01*
X129510839Y-109250771D02*
X129463220Y-109346009D01*
X129463220Y-109346009D02*
X129463220Y-109441247D01*
X129463220Y-109441247D02*
X129939410Y-109536485D01*
X129034648Y-109869819D02*
X129034648Y-109203152D01*
X129034648Y-109393628D02*
X128987029Y-109298390D01*
X128987029Y-109298390D02*
X128939410Y-109250771D01*
X128939410Y-109250771D02*
X128844172Y-109203152D01*
X128844172Y-109203152D02*
X128748934Y-109203152D01*
X151429887Y-84726009D02*
X151287030Y-84773628D01*
X151287030Y-84773628D02*
X151239411Y-84821247D01*
X151239411Y-84821247D02*
X151191792Y-84916485D01*
X151191792Y-84916485D02*
X151191792Y-85059342D01*
X151191792Y-85059342D02*
X151239411Y-85154580D01*
X151239411Y-85154580D02*
X151287030Y-85202200D01*
X151287030Y-85202200D02*
X151382268Y-85249819D01*
X151382268Y-85249819D02*
X151763220Y-85249819D01*
X151763220Y-85249819D02*
X151763220Y-84249819D01*
X151763220Y-84249819D02*
X151429887Y-84249819D01*
X151429887Y-84249819D02*
X151334649Y-84297438D01*
X151334649Y-84297438D02*
X151287030Y-84345057D01*
X151287030Y-84345057D02*
X151239411Y-84440295D01*
X151239411Y-84440295D02*
X151239411Y-84535533D01*
X151239411Y-84535533D02*
X151287030Y-84630771D01*
X151287030Y-84630771D02*
X151334649Y-84678390D01*
X151334649Y-84678390D02*
X151429887Y-84726009D01*
X151429887Y-84726009D02*
X151763220Y-84726009D01*
X150620363Y-85249819D02*
X150715601Y-85202200D01*
X150715601Y-85202200D02*
X150763220Y-85106961D01*
X150763220Y-85106961D02*
X150763220Y-84249819D01*
X150239410Y-85249819D02*
X150239410Y-84583152D01*
X150239410Y-84249819D02*
X150287029Y-84297438D01*
X150287029Y-84297438D02*
X150239410Y-84345057D01*
X150239410Y-84345057D02*
X150191791Y-84297438D01*
X150191791Y-84297438D02*
X150239410Y-84249819D01*
X150239410Y-84249819D02*
X150239410Y-84345057D01*
X149763220Y-84583152D02*
X149763220Y-85249819D01*
X149763220Y-84678390D02*
X149715601Y-84630771D01*
X149715601Y-84630771D02*
X149620363Y-84583152D01*
X149620363Y-84583152D02*
X149477506Y-84583152D01*
X149477506Y-84583152D02*
X149382268Y-84630771D01*
X149382268Y-84630771D02*
X149334649Y-84726009D01*
X149334649Y-84726009D02*
X149334649Y-85249819D01*
X148858458Y-85249819D02*
X148858458Y-84249819D01*
X148763220Y-84868866D02*
X148477506Y-85249819D01*
X148477506Y-84583152D02*
X148858458Y-84964104D01*
X147667982Y-85202200D02*
X147763220Y-85249819D01*
X147763220Y-85249819D02*
X147953696Y-85249819D01*
X147953696Y-85249819D02*
X148048934Y-85202200D01*
X148048934Y-85202200D02*
X148096553Y-85106961D01*
X148096553Y-85106961D02*
X148096553Y-84726009D01*
X148096553Y-84726009D02*
X148048934Y-84630771D01*
X148048934Y-84630771D02*
X147953696Y-84583152D01*
X147953696Y-84583152D02*
X147763220Y-84583152D01*
X147763220Y-84583152D02*
X147667982Y-84630771D01*
X147667982Y-84630771D02*
X147620363Y-84726009D01*
X147620363Y-84726009D02*
X147620363Y-84821247D01*
X147620363Y-84821247D02*
X148096553Y-84916485D01*
X147191791Y-84583152D02*
X147191791Y-85249819D01*
X147191791Y-84678390D02*
X147144172Y-84630771D01*
X147144172Y-84630771D02*
X147048934Y-84583152D01*
X147048934Y-84583152D02*
X146906077Y-84583152D01*
X146906077Y-84583152D02*
X146810839Y-84630771D01*
X146810839Y-84630771D02*
X146763220Y-84726009D01*
X146763220Y-84726009D02*
X146763220Y-85249819D01*
X146287029Y-85249819D02*
X146287029Y-84249819D01*
X146287029Y-84630771D02*
X146191791Y-84583152D01*
X146191791Y-84583152D02*
X146001315Y-84583152D01*
X146001315Y-84583152D02*
X145906077Y-84630771D01*
X145906077Y-84630771D02*
X145858458Y-84678390D01*
X145858458Y-84678390D02*
X145810839Y-84773628D01*
X145810839Y-84773628D02*
X145810839Y-85059342D01*
X145810839Y-85059342D02*
X145858458Y-85154580D01*
X145858458Y-85154580D02*
X145906077Y-85202200D01*
X145906077Y-85202200D02*
X146001315Y-85249819D01*
X146001315Y-85249819D02*
X146191791Y-85249819D01*
X146191791Y-85249819D02*
X146287029Y-85202200D01*
X145382267Y-85249819D02*
X145382267Y-84583152D01*
X145382267Y-84773628D02*
X145334648Y-84678390D01*
X145334648Y-84678390D02*
X145287029Y-84630771D01*
X145287029Y-84630771D02*
X145191791Y-84583152D01*
X145191791Y-84583152D02*
X145096553Y-84583152D01*
X144334648Y-85249819D02*
X144334648Y-84726009D01*
X144334648Y-84726009D02*
X144382267Y-84630771D01*
X144382267Y-84630771D02*
X144477505Y-84583152D01*
X144477505Y-84583152D02*
X144667981Y-84583152D01*
X144667981Y-84583152D02*
X144763219Y-84630771D01*
X144334648Y-85202200D02*
X144429886Y-85249819D01*
X144429886Y-85249819D02*
X144667981Y-85249819D01*
X144667981Y-85249819D02*
X144763219Y-85202200D01*
X144763219Y-85202200D02*
X144810838Y-85106961D01*
X144810838Y-85106961D02*
X144810838Y-85011723D01*
X144810838Y-85011723D02*
X144763219Y-84916485D01*
X144763219Y-84916485D02*
X144667981Y-84868866D01*
X144667981Y-84868866D02*
X144429886Y-84868866D01*
X144429886Y-84868866D02*
X144334648Y-84821247D01*
X143858457Y-85249819D02*
X143858457Y-84583152D01*
X143858457Y-84249819D02*
X143906076Y-84297438D01*
X143906076Y-84297438D02*
X143858457Y-84345057D01*
X143858457Y-84345057D02*
X143810838Y-84297438D01*
X143810838Y-84297438D02*
X143858457Y-84249819D01*
X143858457Y-84249819D02*
X143858457Y-84345057D01*
X143382267Y-84583152D02*
X143382267Y-85249819D01*
X143382267Y-84678390D02*
X143334648Y-84630771D01*
X143334648Y-84630771D02*
X143239410Y-84583152D01*
X143239410Y-84583152D02*
X143096553Y-84583152D01*
X143096553Y-84583152D02*
X143001315Y-84630771D01*
X143001315Y-84630771D02*
X142953696Y-84726009D01*
X142953696Y-84726009D02*
X142953696Y-85249819D01*
X151191792Y-86859819D02*
X151525125Y-86383628D01*
X151763220Y-86859819D02*
X151763220Y-85859819D01*
X151763220Y-85859819D02*
X151382268Y-85859819D01*
X151382268Y-85859819D02*
X151287030Y-85907438D01*
X151287030Y-85907438D02*
X151239411Y-85955057D01*
X151239411Y-85955057D02*
X151191792Y-86050295D01*
X151191792Y-86050295D02*
X151191792Y-86193152D01*
X151191792Y-86193152D02*
X151239411Y-86288390D01*
X151239411Y-86288390D02*
X151287030Y-86336009D01*
X151287030Y-86336009D02*
X151382268Y-86383628D01*
X151382268Y-86383628D02*
X151763220Y-86383628D01*
X150382268Y-86812200D02*
X150477506Y-86859819D01*
X150477506Y-86859819D02*
X150667982Y-86859819D01*
X150667982Y-86859819D02*
X150763220Y-86812200D01*
X150763220Y-86812200D02*
X150810839Y-86716961D01*
X150810839Y-86716961D02*
X150810839Y-86336009D01*
X150810839Y-86336009D02*
X150763220Y-86240771D01*
X150763220Y-86240771D02*
X150667982Y-86193152D01*
X150667982Y-86193152D02*
X150477506Y-86193152D01*
X150477506Y-86193152D02*
X150382268Y-86240771D01*
X150382268Y-86240771D02*
X150334649Y-86336009D01*
X150334649Y-86336009D02*
X150334649Y-86431247D01*
X150334649Y-86431247D02*
X150810839Y-86526485D01*
X150001315Y-86193152D02*
X149763220Y-86859819D01*
X149763220Y-86859819D02*
X149525125Y-86193152D01*
X149144172Y-86764580D02*
X149096553Y-86812200D01*
X149096553Y-86812200D02*
X149144172Y-86859819D01*
X149144172Y-86859819D02*
X149191791Y-86812200D01*
X149191791Y-86812200D02*
X149144172Y-86764580D01*
X149144172Y-86764580D02*
X149144172Y-86859819D01*
X147953696Y-86574104D02*
X147477506Y-86574104D01*
X148048934Y-86859819D02*
X147715601Y-85859819D01*
X147715601Y-85859819D02*
X147382268Y-86859819D01*
X151477506Y-87469819D02*
X151477506Y-88184104D01*
X151477506Y-88184104D02*
X151525125Y-88326961D01*
X151525125Y-88326961D02*
X151620363Y-88422200D01*
X151620363Y-88422200D02*
X151763220Y-88469819D01*
X151763220Y-88469819D02*
X151858458Y-88469819D01*
X151001315Y-88469819D02*
X151001315Y-87469819D01*
X151001315Y-87469819D02*
X150620363Y-87469819D01*
X150620363Y-87469819D02*
X150525125Y-87517438D01*
X150525125Y-87517438D02*
X150477506Y-87565057D01*
X150477506Y-87565057D02*
X150429887Y-87660295D01*
X150429887Y-87660295D02*
X150429887Y-87803152D01*
X150429887Y-87803152D02*
X150477506Y-87898390D01*
X150477506Y-87898390D02*
X150525125Y-87946009D01*
X150525125Y-87946009D02*
X150620363Y-87993628D01*
X150620363Y-87993628D02*
X151001315Y-87993628D01*
X150001315Y-88469819D02*
X150001315Y-87469819D01*
X150001315Y-87469819D02*
X149429887Y-88469819D01*
X149429887Y-88469819D02*
X149429887Y-87469819D01*
X148144172Y-87469819D02*
X148239410Y-87660295D01*
X147763220Y-87565057D02*
X147715601Y-87517438D01*
X147715601Y-87517438D02*
X147620363Y-87469819D01*
X147620363Y-87469819D02*
X147382268Y-87469819D01*
X147382268Y-87469819D02*
X147287030Y-87517438D01*
X147287030Y-87517438D02*
X147239411Y-87565057D01*
X147239411Y-87565057D02*
X147191792Y-87660295D01*
X147191792Y-87660295D02*
X147191792Y-87755533D01*
X147191792Y-87755533D02*
X147239411Y-87898390D01*
X147239411Y-87898390D02*
X147810839Y-88469819D01*
X147810839Y-88469819D02*
X147191792Y-88469819D01*
X146858458Y-87469819D02*
X146239411Y-87469819D01*
X146239411Y-87469819D02*
X146572744Y-87850771D01*
X146572744Y-87850771D02*
X146429887Y-87850771D01*
X146429887Y-87850771D02*
X146334649Y-87898390D01*
X146334649Y-87898390D02*
X146287030Y-87946009D01*
X146287030Y-87946009D02*
X146239411Y-88041247D01*
X146239411Y-88041247D02*
X146239411Y-88279342D01*
X146239411Y-88279342D02*
X146287030Y-88374580D01*
X146287030Y-88374580D02*
X146334649Y-88422200D01*
X146334649Y-88422200D02*
X146429887Y-88469819D01*
X146429887Y-88469819D02*
X146715601Y-88469819D01*
X146715601Y-88469819D02*
X146810839Y-88422200D01*
X146810839Y-88422200D02*
X146858458Y-88374580D01*
X153963220Y-105969819D02*
X153963220Y-104969819D01*
X153963220Y-104969819D02*
X153582268Y-104969819D01*
X153582268Y-104969819D02*
X153487030Y-105017438D01*
X153487030Y-105017438D02*
X153439411Y-105065057D01*
X153439411Y-105065057D02*
X153391792Y-105160295D01*
X153391792Y-105160295D02*
X153391792Y-105303152D01*
X153391792Y-105303152D02*
X153439411Y-105398390D01*
X153439411Y-105398390D02*
X153487030Y-105446009D01*
X153487030Y-105446009D02*
X153582268Y-105493628D01*
X153582268Y-105493628D02*
X153963220Y-105493628D01*
X152820363Y-105969819D02*
X152915601Y-105922200D01*
X152915601Y-105922200D02*
X152963220Y-105874580D01*
X152963220Y-105874580D02*
X153010839Y-105779342D01*
X153010839Y-105779342D02*
X153010839Y-105493628D01*
X153010839Y-105493628D02*
X152963220Y-105398390D01*
X152963220Y-105398390D02*
X152915601Y-105350771D01*
X152915601Y-105350771D02*
X152820363Y-105303152D01*
X152820363Y-105303152D02*
X152677506Y-105303152D01*
X152677506Y-105303152D02*
X152582268Y-105350771D01*
X152582268Y-105350771D02*
X152534649Y-105398390D01*
X152534649Y-105398390D02*
X152487030Y-105493628D01*
X152487030Y-105493628D02*
X152487030Y-105779342D01*
X152487030Y-105779342D02*
X152534649Y-105874580D01*
X152534649Y-105874580D02*
X152582268Y-105922200D01*
X152582268Y-105922200D02*
X152677506Y-105969819D01*
X152677506Y-105969819D02*
X152820363Y-105969819D01*
X152153696Y-105303152D02*
X151963220Y-105969819D01*
X151963220Y-105969819D02*
X151772744Y-105493628D01*
X151772744Y-105493628D02*
X151582268Y-105969819D01*
X151582268Y-105969819D02*
X151391792Y-105303152D01*
X150629887Y-105922200D02*
X150725125Y-105969819D01*
X150725125Y-105969819D02*
X150915601Y-105969819D01*
X150915601Y-105969819D02*
X151010839Y-105922200D01*
X151010839Y-105922200D02*
X151058458Y-105826961D01*
X151058458Y-105826961D02*
X151058458Y-105446009D01*
X151058458Y-105446009D02*
X151010839Y-105350771D01*
X151010839Y-105350771D02*
X150915601Y-105303152D01*
X150915601Y-105303152D02*
X150725125Y-105303152D01*
X150725125Y-105303152D02*
X150629887Y-105350771D01*
X150629887Y-105350771D02*
X150582268Y-105446009D01*
X150582268Y-105446009D02*
X150582268Y-105541247D01*
X150582268Y-105541247D02*
X151058458Y-105636485D01*
X150153696Y-105969819D02*
X150153696Y-105303152D01*
X150153696Y-105493628D02*
X150106077Y-105398390D01*
X150106077Y-105398390D02*
X150058458Y-105350771D01*
X150058458Y-105350771D02*
X149963220Y-105303152D01*
X149963220Y-105303152D02*
X149867982Y-105303152D01*
X135291792Y-107832390D02*
X135367982Y-107794295D01*
X135367982Y-107794295D02*
X135482268Y-107794295D01*
X135482268Y-107794295D02*
X135596554Y-107832390D01*
X135596554Y-107832390D02*
X135672744Y-107908580D01*
X135672744Y-107908580D02*
X135710839Y-107984771D01*
X135710839Y-107984771D02*
X135748935Y-108137152D01*
X135748935Y-108137152D02*
X135748935Y-108251438D01*
X135748935Y-108251438D02*
X135710839Y-108403819D01*
X135710839Y-108403819D02*
X135672744Y-108480009D01*
X135672744Y-108480009D02*
X135596554Y-108556200D01*
X135596554Y-108556200D02*
X135482268Y-108594295D01*
X135482268Y-108594295D02*
X135406077Y-108594295D01*
X135406077Y-108594295D02*
X135291792Y-108556200D01*
X135291792Y-108556200D02*
X135253696Y-108518104D01*
X135253696Y-108518104D02*
X135253696Y-108251438D01*
X135253696Y-108251438D02*
X135406077Y-108251438D01*
X134910839Y-108594295D02*
X134910839Y-107794295D01*
X134910839Y-107794295D02*
X134453696Y-108594295D01*
X134453696Y-108594295D02*
X134453696Y-107794295D01*
X134072744Y-108594295D02*
X134072744Y-107794295D01*
X134072744Y-107794295D02*
X133882268Y-107794295D01*
X133882268Y-107794295D02*
X133767982Y-107832390D01*
X133767982Y-107832390D02*
X133691792Y-107908580D01*
X133691792Y-107908580D02*
X133653697Y-107984771D01*
X133653697Y-107984771D02*
X133615601Y-108137152D01*
X133615601Y-108137152D02*
X133615601Y-108251438D01*
X133615601Y-108251438D02*
X133653697Y-108403819D01*
X133653697Y-108403819D02*
X133691792Y-108480009D01*
X133691792Y-108480009D02*
X133767982Y-108556200D01*
X133767982Y-108556200D02*
X133882268Y-108594295D01*
X133882268Y-108594295D02*
X134072744Y-108594295D01*
X136358332Y-102087295D02*
X136624999Y-101706342D01*
X136815475Y-102087295D02*
X136815475Y-101287295D01*
X136815475Y-101287295D02*
X136510713Y-101287295D01*
X136510713Y-101287295D02*
X136434523Y-101325390D01*
X136434523Y-101325390D02*
X136396428Y-101363485D01*
X136396428Y-101363485D02*
X136358332Y-101439676D01*
X136358332Y-101439676D02*
X136358332Y-101553961D01*
X136358332Y-101553961D02*
X136396428Y-101630152D01*
X136396428Y-101630152D02*
X136434523Y-101668247D01*
X136434523Y-101668247D02*
X136510713Y-101706342D01*
X136510713Y-101706342D02*
X136815475Y-101706342D01*
X136053571Y-101363485D02*
X136015475Y-101325390D01*
X136015475Y-101325390D02*
X135939285Y-101287295D01*
X135939285Y-101287295D02*
X135748809Y-101287295D01*
X135748809Y-101287295D02*
X135672618Y-101325390D01*
X135672618Y-101325390D02*
X135634523Y-101363485D01*
X135634523Y-101363485D02*
X135596428Y-101439676D01*
X135596428Y-101439676D02*
X135596428Y-101515866D01*
X135596428Y-101515866D02*
X135634523Y-101630152D01*
X135634523Y-101630152D02*
X136091666Y-102087295D01*
X136091666Y-102087295D02*
X135596428Y-102087295D01*
X137933332Y-105186104D02*
X137971428Y-105224200D01*
X137971428Y-105224200D02*
X138085713Y-105262295D01*
X138085713Y-105262295D02*
X138161904Y-105262295D01*
X138161904Y-105262295D02*
X138276190Y-105224200D01*
X138276190Y-105224200D02*
X138352380Y-105148009D01*
X138352380Y-105148009D02*
X138390475Y-105071819D01*
X138390475Y-105071819D02*
X138428571Y-104919438D01*
X138428571Y-104919438D02*
X138428571Y-104805152D01*
X138428571Y-104805152D02*
X138390475Y-104652771D01*
X138390475Y-104652771D02*
X138352380Y-104576580D01*
X138352380Y-104576580D02*
X138276190Y-104500390D01*
X138276190Y-104500390D02*
X138161904Y-104462295D01*
X138161904Y-104462295D02*
X138085713Y-104462295D01*
X138085713Y-104462295D02*
X137971428Y-104500390D01*
X137971428Y-104500390D02*
X137933332Y-104538485D01*
X137247618Y-104462295D02*
X137399999Y-104462295D01*
X137399999Y-104462295D02*
X137476190Y-104500390D01*
X137476190Y-104500390D02*
X137514285Y-104538485D01*
X137514285Y-104538485D02*
X137590475Y-104652771D01*
X137590475Y-104652771D02*
X137628571Y-104805152D01*
X137628571Y-104805152D02*
X137628571Y-105109914D01*
X137628571Y-105109914D02*
X137590475Y-105186104D01*
X137590475Y-105186104D02*
X137552380Y-105224200D01*
X137552380Y-105224200D02*
X137476190Y-105262295D01*
X137476190Y-105262295D02*
X137323809Y-105262295D01*
X137323809Y-105262295D02*
X137247618Y-105224200D01*
X137247618Y-105224200D02*
X137209523Y-105186104D01*
X137209523Y-105186104D02*
X137171428Y-105109914D01*
X137171428Y-105109914D02*
X137171428Y-104919438D01*
X137171428Y-104919438D02*
X137209523Y-104843247D01*
X137209523Y-104843247D02*
X137247618Y-104805152D01*
X137247618Y-104805152D02*
X137323809Y-104767057D01*
X137323809Y-104767057D02*
X137476190Y-104767057D01*
X137476190Y-104767057D02*
X137552380Y-104805152D01*
X137552380Y-104805152D02*
X137590475Y-104843247D01*
X137590475Y-104843247D02*
X137628571Y-104919438D01*
X128009523Y-99362295D02*
X127552380Y-99362295D01*
X127780952Y-100162295D02*
X127780952Y-99362295D01*
X127285713Y-100162295D02*
X127285713Y-99362295D01*
X127285713Y-99362295D02*
X126980951Y-99362295D01*
X126980951Y-99362295D02*
X126904761Y-99400390D01*
X126904761Y-99400390D02*
X126866666Y-99438485D01*
X126866666Y-99438485D02*
X126828570Y-99514676D01*
X126828570Y-99514676D02*
X126828570Y-99628961D01*
X126828570Y-99628961D02*
X126866666Y-99705152D01*
X126866666Y-99705152D02*
X126904761Y-99743247D01*
X126904761Y-99743247D02*
X126980951Y-99781342D01*
X126980951Y-99781342D02*
X127285713Y-99781342D01*
X126066666Y-100162295D02*
X126523809Y-100162295D01*
X126295237Y-100162295D02*
X126295237Y-99362295D01*
X126295237Y-99362295D02*
X126371428Y-99476580D01*
X126371428Y-99476580D02*
X126447618Y-99552771D01*
X126447618Y-99552771D02*
X126523809Y-99590866D01*
X128138485Y-101523809D02*
X128100390Y-101447619D01*
X128100390Y-101447619D02*
X128024200Y-101371428D01*
X128024200Y-101371428D02*
X127909914Y-101257142D01*
X127909914Y-101257142D02*
X127871819Y-101180952D01*
X127871819Y-101180952D02*
X127871819Y-101104761D01*
X128062295Y-101142857D02*
X128024200Y-101066666D01*
X128024200Y-101066666D02*
X127948009Y-100990476D01*
X127948009Y-100990476D02*
X127795628Y-100952380D01*
X127795628Y-100952380D02*
X127528961Y-100952380D01*
X127528961Y-100952380D02*
X127376580Y-100990476D01*
X127376580Y-100990476D02*
X127300390Y-101066666D01*
X127300390Y-101066666D02*
X127262295Y-101142857D01*
X127262295Y-101142857D02*
X127262295Y-101295238D01*
X127262295Y-101295238D02*
X127300390Y-101371428D01*
X127300390Y-101371428D02*
X127376580Y-101447619D01*
X127376580Y-101447619D02*
X127528961Y-101485714D01*
X127528961Y-101485714D02*
X127795628Y-101485714D01*
X127795628Y-101485714D02*
X127948009Y-101447619D01*
X127948009Y-101447619D02*
X128024200Y-101371428D01*
X128024200Y-101371428D02*
X128062295Y-101295238D01*
X128062295Y-101295238D02*
X128062295Y-101142857D01*
X128062295Y-102247618D02*
X128062295Y-101790475D01*
X128062295Y-102019047D02*
X127262295Y-102019047D01*
X127262295Y-102019047D02*
X127376580Y-101942856D01*
X127376580Y-101942856D02*
X127452771Y-101866666D01*
X127452771Y-101866666D02*
X127490866Y-101790475D01*
X141109523Y-99862295D02*
X140652380Y-99862295D01*
X140880952Y-100662295D02*
X140880952Y-99862295D01*
X140385713Y-100662295D02*
X140385713Y-99862295D01*
X140385713Y-99862295D02*
X140080951Y-99862295D01*
X140080951Y-99862295D02*
X140004761Y-99900390D01*
X140004761Y-99900390D02*
X139966666Y-99938485D01*
X139966666Y-99938485D02*
X139928570Y-100014676D01*
X139928570Y-100014676D02*
X139928570Y-100128961D01*
X139928570Y-100128961D02*
X139966666Y-100205152D01*
X139966666Y-100205152D02*
X140004761Y-100243247D01*
X140004761Y-100243247D02*
X140080951Y-100281342D01*
X140080951Y-100281342D02*
X140385713Y-100281342D01*
X139623809Y-99938485D02*
X139585713Y-99900390D01*
X139585713Y-99900390D02*
X139509523Y-99862295D01*
X139509523Y-99862295D02*
X139319047Y-99862295D01*
X139319047Y-99862295D02*
X139242856Y-99900390D01*
X139242856Y-99900390D02*
X139204761Y-99938485D01*
X139204761Y-99938485D02*
X139166666Y-100014676D01*
X139166666Y-100014676D02*
X139166666Y-100090866D01*
X139166666Y-100090866D02*
X139204761Y-100205152D01*
X139204761Y-100205152D02*
X139661904Y-100662295D01*
X139661904Y-100662295D02*
X139166666Y-100662295D01*
X139062295Y-104790476D02*
X139709914Y-104790476D01*
X139709914Y-104790476D02*
X139786104Y-104828571D01*
X139786104Y-104828571D02*
X139824200Y-104866666D01*
X139824200Y-104866666D02*
X139862295Y-104942857D01*
X139862295Y-104942857D02*
X139862295Y-105095238D01*
X139862295Y-105095238D02*
X139824200Y-105171428D01*
X139824200Y-105171428D02*
X139786104Y-105209523D01*
X139786104Y-105209523D02*
X139709914Y-105247619D01*
X139709914Y-105247619D02*
X139062295Y-105247619D01*
X139862295Y-106047618D02*
X139862295Y-105590475D01*
X139862295Y-105819047D02*
X139062295Y-105819047D01*
X139062295Y-105819047D02*
X139176580Y-105742856D01*
X139176580Y-105742856D02*
X139252771Y-105666666D01*
X139252771Y-105666666D02*
X139290866Y-105590475D01*
X147166667Y-110624200D02*
X147052381Y-110662295D01*
X147052381Y-110662295D02*
X146861905Y-110662295D01*
X146861905Y-110662295D02*
X146785714Y-110624200D01*
X146785714Y-110624200D02*
X146747619Y-110586104D01*
X146747619Y-110586104D02*
X146709524Y-110509914D01*
X146709524Y-110509914D02*
X146709524Y-110433723D01*
X146709524Y-110433723D02*
X146747619Y-110357533D01*
X146747619Y-110357533D02*
X146785714Y-110319438D01*
X146785714Y-110319438D02*
X146861905Y-110281342D01*
X146861905Y-110281342D02*
X147014286Y-110243247D01*
X147014286Y-110243247D02*
X147090476Y-110205152D01*
X147090476Y-110205152D02*
X147128571Y-110167057D01*
X147128571Y-110167057D02*
X147166667Y-110090866D01*
X147166667Y-110090866D02*
X147166667Y-110014676D01*
X147166667Y-110014676D02*
X147128571Y-109938485D01*
X147128571Y-109938485D02*
X147090476Y-109900390D01*
X147090476Y-109900390D02*
X147014286Y-109862295D01*
X147014286Y-109862295D02*
X146823809Y-109862295D01*
X146823809Y-109862295D02*
X146709524Y-109900390D01*
X146442857Y-109862295D02*
X146252381Y-110662295D01*
X146252381Y-110662295D02*
X146100000Y-110090866D01*
X146100000Y-110090866D02*
X145947619Y-110662295D01*
X145947619Y-110662295D02*
X145757143Y-109862295D01*
X145033333Y-110662295D02*
X145490476Y-110662295D01*
X145261904Y-110662295D02*
X145261904Y-109862295D01*
X145261904Y-109862295D02*
X145338095Y-109976580D01*
X145338095Y-109976580D02*
X145414285Y-110052771D01*
X145414285Y-110052771D02*
X145490476Y-110090866D01*
X134862295Y-104366667D02*
X134481342Y-104100000D01*
X134862295Y-103909524D02*
X134062295Y-103909524D01*
X134062295Y-103909524D02*
X134062295Y-104214286D01*
X134062295Y-104214286D02*
X134100390Y-104290476D01*
X134100390Y-104290476D02*
X134138485Y-104328571D01*
X134138485Y-104328571D02*
X134214676Y-104366667D01*
X134214676Y-104366667D02*
X134328961Y-104366667D01*
X134328961Y-104366667D02*
X134405152Y-104328571D01*
X134405152Y-104328571D02*
X134443247Y-104290476D01*
X134443247Y-104290476D02*
X134481342Y-104214286D01*
X134481342Y-104214286D02*
X134481342Y-103909524D01*
X134062295Y-105090476D02*
X134062295Y-104709524D01*
X134062295Y-104709524D02*
X134443247Y-104671428D01*
X134443247Y-104671428D02*
X134405152Y-104709524D01*
X134405152Y-104709524D02*
X134367057Y-104785714D01*
X134367057Y-104785714D02*
X134367057Y-104976190D01*
X134367057Y-104976190D02*
X134405152Y-105052381D01*
X134405152Y-105052381D02*
X134443247Y-105090476D01*
X134443247Y-105090476D02*
X134519438Y-105128571D01*
X134519438Y-105128571D02*
X134709914Y-105128571D01*
X134709914Y-105128571D02*
X134786104Y-105090476D01*
X134786104Y-105090476D02*
X134824200Y-105052381D01*
X134824200Y-105052381D02*
X134862295Y-104976190D01*
X134862295Y-104976190D02*
X134862295Y-104785714D01*
X134862295Y-104785714D02*
X134824200Y-104709524D01*
X134824200Y-104709524D02*
X134786104Y-104671428D01*
X151190475Y-102462295D02*
X151190475Y-101662295D01*
X151190475Y-101662295D02*
X150999999Y-101662295D01*
X150999999Y-101662295D02*
X150885713Y-101700390D01*
X150885713Y-101700390D02*
X150809523Y-101776580D01*
X150809523Y-101776580D02*
X150771428Y-101852771D01*
X150771428Y-101852771D02*
X150733332Y-102005152D01*
X150733332Y-102005152D02*
X150733332Y-102119438D01*
X150733332Y-102119438D02*
X150771428Y-102271819D01*
X150771428Y-102271819D02*
X150809523Y-102348009D01*
X150809523Y-102348009D02*
X150885713Y-102424200D01*
X150885713Y-102424200D02*
X150999999Y-102462295D01*
X150999999Y-102462295D02*
X151190475Y-102462295D01*
X149971428Y-102462295D02*
X150428571Y-102462295D01*
X150199999Y-102462295D02*
X150199999Y-101662295D01*
X150199999Y-101662295D02*
X150276190Y-101776580D01*
X150276190Y-101776580D02*
X150352380Y-101852771D01*
X150352380Y-101852771D02*
X150428571Y-101890866D01*
X135933332Y-97462295D02*
X136199999Y-97081342D01*
X136390475Y-97462295D02*
X136390475Y-96662295D01*
X136390475Y-96662295D02*
X136085713Y-96662295D01*
X136085713Y-96662295D02*
X136009523Y-96700390D01*
X136009523Y-96700390D02*
X135971428Y-96738485D01*
X135971428Y-96738485D02*
X135933332Y-96814676D01*
X135933332Y-96814676D02*
X135933332Y-96928961D01*
X135933332Y-96928961D02*
X135971428Y-97005152D01*
X135971428Y-97005152D02*
X136009523Y-97043247D01*
X136009523Y-97043247D02*
X136085713Y-97081342D01*
X136085713Y-97081342D02*
X136390475Y-97081342D01*
X135666666Y-96662295D02*
X135171428Y-96662295D01*
X135171428Y-96662295D02*
X135438094Y-96967057D01*
X135438094Y-96967057D02*
X135323809Y-96967057D01*
X135323809Y-96967057D02*
X135247618Y-97005152D01*
X135247618Y-97005152D02*
X135209523Y-97043247D01*
X135209523Y-97043247D02*
X135171428Y-97119438D01*
X135171428Y-97119438D02*
X135171428Y-97309914D01*
X135171428Y-97309914D02*
X135209523Y-97386104D01*
X135209523Y-97386104D02*
X135247618Y-97424200D01*
X135247618Y-97424200D02*
X135323809Y-97462295D01*
X135323809Y-97462295D02*
X135552380Y-97462295D01*
X135552380Y-97462295D02*
X135628571Y-97424200D01*
X135628571Y-97424200D02*
X135666666Y-97386104D01*
X132676189Y-104462295D02*
X132942856Y-104081342D01*
X133133332Y-104462295D02*
X133133332Y-103662295D01*
X133133332Y-103662295D02*
X132828570Y-103662295D01*
X132828570Y-103662295D02*
X132752380Y-103700390D01*
X132752380Y-103700390D02*
X132714285Y-103738485D01*
X132714285Y-103738485D02*
X132676189Y-103814676D01*
X132676189Y-103814676D02*
X132676189Y-103928961D01*
X132676189Y-103928961D02*
X132714285Y-104005152D01*
X132714285Y-104005152D02*
X132752380Y-104043247D01*
X132752380Y-104043247D02*
X132828570Y-104081342D01*
X132828570Y-104081342D02*
X133133332Y-104081342D01*
X132447618Y-103662295D02*
X132180951Y-104462295D01*
X132180951Y-104462295D02*
X131914285Y-103662295D01*
X131228571Y-104462295D02*
X131685714Y-104462295D01*
X131457142Y-104462295D02*
X131457142Y-103662295D01*
X131457142Y-103662295D02*
X131533333Y-103776580D01*
X131533333Y-103776580D02*
X131609523Y-103852771D01*
X131609523Y-103852771D02*
X131685714Y-103890866D01*
X171443247Y-93471428D02*
X171481342Y-93585714D01*
X171481342Y-93585714D02*
X171519438Y-93623809D01*
X171519438Y-93623809D02*
X171595628Y-93661905D01*
X171595628Y-93661905D02*
X171709914Y-93661905D01*
X171709914Y-93661905D02*
X171786104Y-93623809D01*
X171786104Y-93623809D02*
X171824200Y-93585714D01*
X171824200Y-93585714D02*
X171862295Y-93509524D01*
X171862295Y-93509524D02*
X171862295Y-93204762D01*
X171862295Y-93204762D02*
X171062295Y-93204762D01*
X171062295Y-93204762D02*
X171062295Y-93471428D01*
X171062295Y-93471428D02*
X171100390Y-93547619D01*
X171100390Y-93547619D02*
X171138485Y-93585714D01*
X171138485Y-93585714D02*
X171214676Y-93623809D01*
X171214676Y-93623809D02*
X171290866Y-93623809D01*
X171290866Y-93623809D02*
X171367057Y-93585714D01*
X171367057Y-93585714D02*
X171405152Y-93547619D01*
X171405152Y-93547619D02*
X171443247Y-93471428D01*
X171443247Y-93471428D02*
X171443247Y-93204762D01*
X171062295Y-93890476D02*
X171062295Y-94347619D01*
X171862295Y-94119047D02*
X171062295Y-94119047D01*
X171862295Y-95033333D02*
X171862295Y-94576190D01*
X171862295Y-94804762D02*
X171062295Y-94804762D01*
X171062295Y-94804762D02*
X171176580Y-94728571D01*
X171176580Y-94728571D02*
X171252771Y-94652381D01*
X171252771Y-94652381D02*
X171290866Y-94576190D01*
X137970832Y-96386104D02*
X138008928Y-96424200D01*
X138008928Y-96424200D02*
X138123213Y-96462295D01*
X138123213Y-96462295D02*
X138199404Y-96462295D01*
X138199404Y-96462295D02*
X138313690Y-96424200D01*
X138313690Y-96424200D02*
X138389880Y-96348009D01*
X138389880Y-96348009D02*
X138427975Y-96271819D01*
X138427975Y-96271819D02*
X138466071Y-96119438D01*
X138466071Y-96119438D02*
X138466071Y-96005152D01*
X138466071Y-96005152D02*
X138427975Y-95852771D01*
X138427975Y-95852771D02*
X138389880Y-95776580D01*
X138389880Y-95776580D02*
X138313690Y-95700390D01*
X138313690Y-95700390D02*
X138199404Y-95662295D01*
X138199404Y-95662295D02*
X138123213Y-95662295D01*
X138123213Y-95662295D02*
X138008928Y-95700390D01*
X138008928Y-95700390D02*
X137970832Y-95738485D01*
X137208928Y-96462295D02*
X137666071Y-96462295D01*
X137437499Y-96462295D02*
X137437499Y-95662295D01*
X137437499Y-95662295D02*
X137513690Y-95776580D01*
X137513690Y-95776580D02*
X137589880Y-95852771D01*
X137589880Y-95852771D02*
X137666071Y-95890866D01*
X145586104Y-106716667D02*
X145624200Y-106678571D01*
X145624200Y-106678571D02*
X145662295Y-106564286D01*
X145662295Y-106564286D02*
X145662295Y-106488095D01*
X145662295Y-106488095D02*
X145624200Y-106373809D01*
X145624200Y-106373809D02*
X145548009Y-106297619D01*
X145548009Y-106297619D02*
X145471819Y-106259524D01*
X145471819Y-106259524D02*
X145319438Y-106221428D01*
X145319438Y-106221428D02*
X145205152Y-106221428D01*
X145205152Y-106221428D02*
X145052771Y-106259524D01*
X145052771Y-106259524D02*
X144976580Y-106297619D01*
X144976580Y-106297619D02*
X144900390Y-106373809D01*
X144900390Y-106373809D02*
X144862295Y-106488095D01*
X144862295Y-106488095D02*
X144862295Y-106564286D01*
X144862295Y-106564286D02*
X144900390Y-106678571D01*
X144900390Y-106678571D02*
X144938485Y-106716667D01*
X145128961Y-107402381D02*
X145662295Y-107402381D01*
X144824200Y-107211905D02*
X145395628Y-107021428D01*
X145395628Y-107021428D02*
X145395628Y-107516667D01*
X146986104Y-106866667D02*
X147024200Y-106828571D01*
X147024200Y-106828571D02*
X147062295Y-106714286D01*
X147062295Y-106714286D02*
X147062295Y-106638095D01*
X147062295Y-106638095D02*
X147024200Y-106523809D01*
X147024200Y-106523809D02*
X146948009Y-106447619D01*
X146948009Y-106447619D02*
X146871819Y-106409524D01*
X146871819Y-106409524D02*
X146719438Y-106371428D01*
X146719438Y-106371428D02*
X146605152Y-106371428D01*
X146605152Y-106371428D02*
X146452771Y-106409524D01*
X146452771Y-106409524D02*
X146376580Y-106447619D01*
X146376580Y-106447619D02*
X146300390Y-106523809D01*
X146300390Y-106523809D02*
X146262295Y-106638095D01*
X146262295Y-106638095D02*
X146262295Y-106714286D01*
X146262295Y-106714286D02*
X146300390Y-106828571D01*
X146300390Y-106828571D02*
X146338485Y-106866667D01*
X146262295Y-107590476D02*
X146262295Y-107209524D01*
X146262295Y-107209524D02*
X146643247Y-107171428D01*
X146643247Y-107171428D02*
X146605152Y-107209524D01*
X146605152Y-107209524D02*
X146567057Y-107285714D01*
X146567057Y-107285714D02*
X146567057Y-107476190D01*
X146567057Y-107476190D02*
X146605152Y-107552381D01*
X146605152Y-107552381D02*
X146643247Y-107590476D01*
X146643247Y-107590476D02*
X146719438Y-107628571D01*
X146719438Y-107628571D02*
X146909914Y-107628571D01*
X146909914Y-107628571D02*
X146986104Y-107590476D01*
X146986104Y-107590476D02*
X147024200Y-107552381D01*
X147024200Y-107552381D02*
X147062295Y-107476190D01*
X147062295Y-107476190D02*
X147062295Y-107285714D01*
X147062295Y-107285714D02*
X147024200Y-107209524D01*
X147024200Y-107209524D02*
X146986104Y-107171428D01*
X132333332Y-101962295D02*
X132599999Y-101581342D01*
X132790475Y-101962295D02*
X132790475Y-101162295D01*
X132790475Y-101162295D02*
X132485713Y-101162295D01*
X132485713Y-101162295D02*
X132409523Y-101200390D01*
X132409523Y-101200390D02*
X132371428Y-101238485D01*
X132371428Y-101238485D02*
X132333332Y-101314676D01*
X132333332Y-101314676D02*
X132333332Y-101428961D01*
X132333332Y-101428961D02*
X132371428Y-101505152D01*
X132371428Y-101505152D02*
X132409523Y-101543247D01*
X132409523Y-101543247D02*
X132485713Y-101581342D01*
X132485713Y-101581342D02*
X132790475Y-101581342D01*
X131647618Y-101162295D02*
X131799999Y-101162295D01*
X131799999Y-101162295D02*
X131876190Y-101200390D01*
X131876190Y-101200390D02*
X131914285Y-101238485D01*
X131914285Y-101238485D02*
X131990475Y-101352771D01*
X131990475Y-101352771D02*
X132028571Y-101505152D01*
X132028571Y-101505152D02*
X132028571Y-101809914D01*
X132028571Y-101809914D02*
X131990475Y-101886104D01*
X131990475Y-101886104D02*
X131952380Y-101924200D01*
X131952380Y-101924200D02*
X131876190Y-101962295D01*
X131876190Y-101962295D02*
X131723809Y-101962295D01*
X131723809Y-101962295D02*
X131647618Y-101924200D01*
X131647618Y-101924200D02*
X131609523Y-101886104D01*
X131609523Y-101886104D02*
X131571428Y-101809914D01*
X131571428Y-101809914D02*
X131571428Y-101619438D01*
X131571428Y-101619438D02*
X131609523Y-101543247D01*
X131609523Y-101543247D02*
X131647618Y-101505152D01*
X131647618Y-101505152D02*
X131723809Y-101467057D01*
X131723809Y-101467057D02*
X131876190Y-101467057D01*
X131876190Y-101467057D02*
X131952380Y-101505152D01*
X131952380Y-101505152D02*
X131990475Y-101543247D01*
X131990475Y-101543247D02*
X132028571Y-101619438D01*
X150162295Y-103866667D02*
X149781342Y-103600000D01*
X150162295Y-103409524D02*
X149362295Y-103409524D01*
X149362295Y-103409524D02*
X149362295Y-103714286D01*
X149362295Y-103714286D02*
X149400390Y-103790476D01*
X149400390Y-103790476D02*
X149438485Y-103828571D01*
X149438485Y-103828571D02*
X149514676Y-103866667D01*
X149514676Y-103866667D02*
X149628961Y-103866667D01*
X149628961Y-103866667D02*
X149705152Y-103828571D01*
X149705152Y-103828571D02*
X149743247Y-103790476D01*
X149743247Y-103790476D02*
X149781342Y-103714286D01*
X149781342Y-103714286D02*
X149781342Y-103409524D01*
X149362295Y-104133333D02*
X149362295Y-104666667D01*
X149362295Y-104666667D02*
X150162295Y-104323809D01*
X136133332Y-106286104D02*
X136171428Y-106324200D01*
X136171428Y-106324200D02*
X136285713Y-106362295D01*
X136285713Y-106362295D02*
X136361904Y-106362295D01*
X136361904Y-106362295D02*
X136476190Y-106324200D01*
X136476190Y-106324200D02*
X136552380Y-106248009D01*
X136552380Y-106248009D02*
X136590475Y-106171819D01*
X136590475Y-106171819D02*
X136628571Y-106019438D01*
X136628571Y-106019438D02*
X136628571Y-105905152D01*
X136628571Y-105905152D02*
X136590475Y-105752771D01*
X136590475Y-105752771D02*
X136552380Y-105676580D01*
X136552380Y-105676580D02*
X136476190Y-105600390D01*
X136476190Y-105600390D02*
X136361904Y-105562295D01*
X136361904Y-105562295D02*
X136285713Y-105562295D01*
X136285713Y-105562295D02*
X136171428Y-105600390D01*
X136171428Y-105600390D02*
X136133332Y-105638485D01*
X135866666Y-105562295D02*
X135333332Y-105562295D01*
X135333332Y-105562295D02*
X135676190Y-106362295D01*
X125333332Y-103862295D02*
X125599999Y-103481342D01*
X125790475Y-103862295D02*
X125790475Y-103062295D01*
X125790475Y-103062295D02*
X125485713Y-103062295D01*
X125485713Y-103062295D02*
X125409523Y-103100390D01*
X125409523Y-103100390D02*
X125371428Y-103138485D01*
X125371428Y-103138485D02*
X125333332Y-103214676D01*
X125333332Y-103214676D02*
X125333332Y-103328961D01*
X125333332Y-103328961D02*
X125371428Y-103405152D01*
X125371428Y-103405152D02*
X125409523Y-103443247D01*
X125409523Y-103443247D02*
X125485713Y-103481342D01*
X125485713Y-103481342D02*
X125790475Y-103481342D01*
X124876190Y-103405152D02*
X124952380Y-103367057D01*
X124952380Y-103367057D02*
X124990475Y-103328961D01*
X124990475Y-103328961D02*
X125028571Y-103252771D01*
X125028571Y-103252771D02*
X125028571Y-103214676D01*
X125028571Y-103214676D02*
X124990475Y-103138485D01*
X124990475Y-103138485D02*
X124952380Y-103100390D01*
X124952380Y-103100390D02*
X124876190Y-103062295D01*
X124876190Y-103062295D02*
X124723809Y-103062295D01*
X124723809Y-103062295D02*
X124647618Y-103100390D01*
X124647618Y-103100390D02*
X124609523Y-103138485D01*
X124609523Y-103138485D02*
X124571428Y-103214676D01*
X124571428Y-103214676D02*
X124571428Y-103252771D01*
X124571428Y-103252771D02*
X124609523Y-103328961D01*
X124609523Y-103328961D02*
X124647618Y-103367057D01*
X124647618Y-103367057D02*
X124723809Y-103405152D01*
X124723809Y-103405152D02*
X124876190Y-103405152D01*
X124876190Y-103405152D02*
X124952380Y-103443247D01*
X124952380Y-103443247D02*
X124990475Y-103481342D01*
X124990475Y-103481342D02*
X125028571Y-103557533D01*
X125028571Y-103557533D02*
X125028571Y-103709914D01*
X125028571Y-103709914D02*
X124990475Y-103786104D01*
X124990475Y-103786104D02*
X124952380Y-103824200D01*
X124952380Y-103824200D02*
X124876190Y-103862295D01*
X124876190Y-103862295D02*
X124723809Y-103862295D01*
X124723809Y-103862295D02*
X124647618Y-103824200D01*
X124647618Y-103824200D02*
X124609523Y-103786104D01*
X124609523Y-103786104D02*
X124571428Y-103709914D01*
X124571428Y-103709914D02*
X124571428Y-103557533D01*
X124571428Y-103557533D02*
X124609523Y-103481342D01*
X124609523Y-103481342D02*
X124647618Y-103443247D01*
X124647618Y-103443247D02*
X124723809Y-103405152D01*
X133633332Y-96486104D02*
X133671428Y-96524200D01*
X133671428Y-96524200D02*
X133785713Y-96562295D01*
X133785713Y-96562295D02*
X133861904Y-96562295D01*
X133861904Y-96562295D02*
X133976190Y-96524200D01*
X133976190Y-96524200D02*
X134052380Y-96448009D01*
X134052380Y-96448009D02*
X134090475Y-96371819D01*
X134090475Y-96371819D02*
X134128571Y-96219438D01*
X134128571Y-96219438D02*
X134128571Y-96105152D01*
X134128571Y-96105152D02*
X134090475Y-95952771D01*
X134090475Y-95952771D02*
X134052380Y-95876580D01*
X134052380Y-95876580D02*
X133976190Y-95800390D01*
X133976190Y-95800390D02*
X133861904Y-95762295D01*
X133861904Y-95762295D02*
X133785713Y-95762295D01*
X133785713Y-95762295D02*
X133671428Y-95800390D01*
X133671428Y-95800390D02*
X133633332Y-95838485D01*
X133328571Y-95838485D02*
X133290475Y-95800390D01*
X133290475Y-95800390D02*
X133214285Y-95762295D01*
X133214285Y-95762295D02*
X133023809Y-95762295D01*
X133023809Y-95762295D02*
X132947618Y-95800390D01*
X132947618Y-95800390D02*
X132909523Y-95838485D01*
X132909523Y-95838485D02*
X132871428Y-95914676D01*
X132871428Y-95914676D02*
X132871428Y-95990866D01*
X132871428Y-95990866D02*
X132909523Y-96105152D01*
X132909523Y-96105152D02*
X133366666Y-96562295D01*
X133366666Y-96562295D02*
X132871428Y-96562295D01*
X131833332Y-96486104D02*
X131871428Y-96524200D01*
X131871428Y-96524200D02*
X131985713Y-96562295D01*
X131985713Y-96562295D02*
X132061904Y-96562295D01*
X132061904Y-96562295D02*
X132176190Y-96524200D01*
X132176190Y-96524200D02*
X132252380Y-96448009D01*
X132252380Y-96448009D02*
X132290475Y-96371819D01*
X132290475Y-96371819D02*
X132328571Y-96219438D01*
X132328571Y-96219438D02*
X132328571Y-96105152D01*
X132328571Y-96105152D02*
X132290475Y-95952771D01*
X132290475Y-95952771D02*
X132252380Y-95876580D01*
X132252380Y-95876580D02*
X132176190Y-95800390D01*
X132176190Y-95800390D02*
X132061904Y-95762295D01*
X132061904Y-95762295D02*
X131985713Y-95762295D01*
X131985713Y-95762295D02*
X131871428Y-95800390D01*
X131871428Y-95800390D02*
X131833332Y-95838485D01*
X131566666Y-95762295D02*
X131071428Y-95762295D01*
X131071428Y-95762295D02*
X131338094Y-96067057D01*
X131338094Y-96067057D02*
X131223809Y-96067057D01*
X131223809Y-96067057D02*
X131147618Y-96105152D01*
X131147618Y-96105152D02*
X131109523Y-96143247D01*
X131109523Y-96143247D02*
X131071428Y-96219438D01*
X131071428Y-96219438D02*
X131071428Y-96409914D01*
X131071428Y-96409914D02*
X131109523Y-96486104D01*
X131109523Y-96486104D02*
X131147618Y-96524200D01*
X131147618Y-96524200D02*
X131223809Y-96562295D01*
X131223809Y-96562295D02*
X131452380Y-96562295D01*
X131452380Y-96562295D02*
X131528571Y-96524200D01*
X131528571Y-96524200D02*
X131566666Y-96486104D01*
X139933333Y-108662295D02*
X140314285Y-108662295D01*
X140314285Y-108662295D02*
X140314285Y-107862295D01*
X139247619Y-108662295D02*
X139704762Y-108662295D01*
X139476190Y-108662295D02*
X139476190Y-107862295D01*
X139476190Y-107862295D02*
X139552381Y-107976580D01*
X139552381Y-107976580D02*
X139628571Y-108052771D01*
X139628571Y-108052771D02*
X139704762Y-108090866D01*
X135333332Y-99762295D02*
X135599999Y-99381342D01*
X135790475Y-99762295D02*
X135790475Y-98962295D01*
X135790475Y-98962295D02*
X135485713Y-98962295D01*
X135485713Y-98962295D02*
X135409523Y-99000390D01*
X135409523Y-99000390D02*
X135371428Y-99038485D01*
X135371428Y-99038485D02*
X135333332Y-99114676D01*
X135333332Y-99114676D02*
X135333332Y-99228961D01*
X135333332Y-99228961D02*
X135371428Y-99305152D01*
X135371428Y-99305152D02*
X135409523Y-99343247D01*
X135409523Y-99343247D02*
X135485713Y-99381342D01*
X135485713Y-99381342D02*
X135790475Y-99381342D01*
X134647618Y-99228961D02*
X134647618Y-99762295D01*
X134838094Y-98924200D02*
X135028571Y-99495628D01*
X135028571Y-99495628D02*
X134533332Y-99495628D01*
X144009523Y-99762295D02*
X143552380Y-99762295D01*
X143780952Y-100562295D02*
X143780952Y-99762295D01*
X143285713Y-100562295D02*
X143285713Y-99762295D01*
X143285713Y-99762295D02*
X142980951Y-99762295D01*
X142980951Y-99762295D02*
X142904761Y-99800390D01*
X142904761Y-99800390D02*
X142866666Y-99838485D01*
X142866666Y-99838485D02*
X142828570Y-99914676D01*
X142828570Y-99914676D02*
X142828570Y-100028961D01*
X142828570Y-100028961D02*
X142866666Y-100105152D01*
X142866666Y-100105152D02*
X142904761Y-100143247D01*
X142904761Y-100143247D02*
X142980951Y-100181342D01*
X142980951Y-100181342D02*
X143285713Y-100181342D01*
X142142856Y-100028961D02*
X142142856Y-100562295D01*
X142333332Y-99724200D02*
X142523809Y-100295628D01*
X142523809Y-100295628D02*
X142028570Y-100295628D01*
X143676190Y-96038485D02*
X143752380Y-96000390D01*
X143752380Y-96000390D02*
X143828571Y-95924200D01*
X143828571Y-95924200D02*
X143942857Y-95809914D01*
X143942857Y-95809914D02*
X144019047Y-95771819D01*
X144019047Y-95771819D02*
X144095238Y-95771819D01*
X144057142Y-95962295D02*
X144133333Y-95924200D01*
X144133333Y-95924200D02*
X144209523Y-95848009D01*
X144209523Y-95848009D02*
X144247619Y-95695628D01*
X144247619Y-95695628D02*
X144247619Y-95428961D01*
X144247619Y-95428961D02*
X144209523Y-95276580D01*
X144209523Y-95276580D02*
X144133333Y-95200390D01*
X144133333Y-95200390D02*
X144057142Y-95162295D01*
X144057142Y-95162295D02*
X143904761Y-95162295D01*
X143904761Y-95162295D02*
X143828571Y-95200390D01*
X143828571Y-95200390D02*
X143752380Y-95276580D01*
X143752380Y-95276580D02*
X143714285Y-95428961D01*
X143714285Y-95428961D02*
X143714285Y-95695628D01*
X143714285Y-95695628D02*
X143752380Y-95848009D01*
X143752380Y-95848009D02*
X143828571Y-95924200D01*
X143828571Y-95924200D02*
X143904761Y-95962295D01*
X143904761Y-95962295D02*
X144057142Y-95962295D01*
X143409524Y-95238485D02*
X143371428Y-95200390D01*
X143371428Y-95200390D02*
X143295238Y-95162295D01*
X143295238Y-95162295D02*
X143104762Y-95162295D01*
X143104762Y-95162295D02*
X143028571Y-95200390D01*
X143028571Y-95200390D02*
X142990476Y-95238485D01*
X142990476Y-95238485D02*
X142952381Y-95314676D01*
X142952381Y-95314676D02*
X142952381Y-95390866D01*
X142952381Y-95390866D02*
X142990476Y-95505152D01*
X142990476Y-95505152D02*
X143447619Y-95962295D01*
X143447619Y-95962295D02*
X142952381Y-95962295D01*
X141109523Y-95962295D02*
X140652380Y-95962295D01*
X140880952Y-96762295D02*
X140880952Y-95962295D01*
X140385713Y-96762295D02*
X140385713Y-95962295D01*
X140385713Y-95962295D02*
X140080951Y-95962295D01*
X140080951Y-95962295D02*
X140004761Y-96000390D01*
X140004761Y-96000390D02*
X139966666Y-96038485D01*
X139966666Y-96038485D02*
X139928570Y-96114676D01*
X139928570Y-96114676D02*
X139928570Y-96228961D01*
X139928570Y-96228961D02*
X139966666Y-96305152D01*
X139966666Y-96305152D02*
X140004761Y-96343247D01*
X140004761Y-96343247D02*
X140080951Y-96381342D01*
X140080951Y-96381342D02*
X140385713Y-96381342D01*
X139661904Y-95962295D02*
X139166666Y-95962295D01*
X139166666Y-95962295D02*
X139433332Y-96267057D01*
X139433332Y-96267057D02*
X139319047Y-96267057D01*
X139319047Y-96267057D02*
X139242856Y-96305152D01*
X139242856Y-96305152D02*
X139204761Y-96343247D01*
X139204761Y-96343247D02*
X139166666Y-96419438D01*
X139166666Y-96419438D02*
X139166666Y-96609914D01*
X139166666Y-96609914D02*
X139204761Y-96686104D01*
X139204761Y-96686104D02*
X139242856Y-96724200D01*
X139242856Y-96724200D02*
X139319047Y-96762295D01*
X139319047Y-96762295D02*
X139547618Y-96762295D01*
X139547618Y-96762295D02*
X139623809Y-96724200D01*
X139623809Y-96724200D02*
X139661904Y-96686104D01*
X125333332Y-105762295D02*
X125599999Y-105381342D01*
X125790475Y-105762295D02*
X125790475Y-104962295D01*
X125790475Y-104962295D02*
X125485713Y-104962295D01*
X125485713Y-104962295D02*
X125409523Y-105000390D01*
X125409523Y-105000390D02*
X125371428Y-105038485D01*
X125371428Y-105038485D02*
X125333332Y-105114676D01*
X125333332Y-105114676D02*
X125333332Y-105228961D01*
X125333332Y-105228961D02*
X125371428Y-105305152D01*
X125371428Y-105305152D02*
X125409523Y-105343247D01*
X125409523Y-105343247D02*
X125485713Y-105381342D01*
X125485713Y-105381342D02*
X125790475Y-105381342D01*
X124952380Y-105762295D02*
X124799999Y-105762295D01*
X124799999Y-105762295D02*
X124723809Y-105724200D01*
X124723809Y-105724200D02*
X124685713Y-105686104D01*
X124685713Y-105686104D02*
X124609523Y-105571819D01*
X124609523Y-105571819D02*
X124571428Y-105419438D01*
X124571428Y-105419438D02*
X124571428Y-105114676D01*
X124571428Y-105114676D02*
X124609523Y-105038485D01*
X124609523Y-105038485D02*
X124647618Y-105000390D01*
X124647618Y-105000390D02*
X124723809Y-104962295D01*
X124723809Y-104962295D02*
X124876190Y-104962295D01*
X124876190Y-104962295D02*
X124952380Y-105000390D01*
X124952380Y-105000390D02*
X124990475Y-105038485D01*
X124990475Y-105038485D02*
X125028571Y-105114676D01*
X125028571Y-105114676D02*
X125028571Y-105305152D01*
X125028571Y-105305152D02*
X124990475Y-105381342D01*
X124990475Y-105381342D02*
X124952380Y-105419438D01*
X124952380Y-105419438D02*
X124876190Y-105457533D01*
X124876190Y-105457533D02*
X124723809Y-105457533D01*
X124723809Y-105457533D02*
X124647618Y-105419438D01*
X124647618Y-105419438D02*
X124609523Y-105381342D01*
X124609523Y-105381342D02*
X124571428Y-105305152D01*
X138062295Y-102966667D02*
X137681342Y-102700000D01*
X138062295Y-102509524D02*
X137262295Y-102509524D01*
X137262295Y-102509524D02*
X137262295Y-102814286D01*
X137262295Y-102814286D02*
X137300390Y-102890476D01*
X137300390Y-102890476D02*
X137338485Y-102928571D01*
X137338485Y-102928571D02*
X137414676Y-102966667D01*
X137414676Y-102966667D02*
X137528961Y-102966667D01*
X137528961Y-102966667D02*
X137605152Y-102928571D01*
X137605152Y-102928571D02*
X137643247Y-102890476D01*
X137643247Y-102890476D02*
X137681342Y-102814286D01*
X137681342Y-102814286D02*
X137681342Y-102509524D01*
X138062295Y-103728571D02*
X138062295Y-103271428D01*
X138062295Y-103500000D02*
X137262295Y-103500000D01*
X137262295Y-103500000D02*
X137376580Y-103423809D01*
X137376580Y-103423809D02*
X137452771Y-103347619D01*
X137452771Y-103347619D02*
X137490866Y-103271428D01*
X136409523Y-109062295D02*
X135952380Y-109062295D01*
X136180952Y-109862295D02*
X136180952Y-109062295D01*
X135685713Y-109862295D02*
X135685713Y-109062295D01*
X135685713Y-109062295D02*
X135380951Y-109062295D01*
X135380951Y-109062295D02*
X135304761Y-109100390D01*
X135304761Y-109100390D02*
X135266666Y-109138485D01*
X135266666Y-109138485D02*
X135228570Y-109214676D01*
X135228570Y-109214676D02*
X135228570Y-109328961D01*
X135228570Y-109328961D02*
X135266666Y-109405152D01*
X135266666Y-109405152D02*
X135304761Y-109443247D01*
X135304761Y-109443247D02*
X135380951Y-109481342D01*
X135380951Y-109481342D02*
X135685713Y-109481342D01*
X134504761Y-109062295D02*
X134885713Y-109062295D01*
X134885713Y-109062295D02*
X134923809Y-109443247D01*
X134923809Y-109443247D02*
X134885713Y-109405152D01*
X134885713Y-109405152D02*
X134809523Y-109367057D01*
X134809523Y-109367057D02*
X134619047Y-109367057D01*
X134619047Y-109367057D02*
X134542856Y-109405152D01*
X134542856Y-109405152D02*
X134504761Y-109443247D01*
X134504761Y-109443247D02*
X134466666Y-109519438D01*
X134466666Y-109519438D02*
X134466666Y-109709914D01*
X134466666Y-109709914D02*
X134504761Y-109786104D01*
X134504761Y-109786104D02*
X134542856Y-109824200D01*
X134542856Y-109824200D02*
X134619047Y-109862295D01*
X134619047Y-109862295D02*
X134809523Y-109862295D01*
X134809523Y-109862295D02*
X134885713Y-109824200D01*
X134885713Y-109824200D02*
X134923809Y-109786104D01*
D11*
%TO.C,R2*%
X136020000Y-100353641D02*
X136020000Y-100046359D01*
X136780000Y-100353641D02*
X136780000Y-100046359D01*
%TO.C,C6*%
X139610000Y-102659420D02*
X139610000Y-102940580D01*
X138590000Y-102659420D02*
X138590000Y-102940580D01*
%TO.C,TP1*%
X130600000Y-98700000D02*
G75*
G03*
X130600000Y-98700000I-1200000J0D01*
G01*
%TO.C,Q1*%
X130860000Y-101500000D02*
X130860000Y-102900000D01*
X128540000Y-102900000D02*
X128540000Y-101000000D01*
%TO.C,TP2*%
X142800000Y-101800000D02*
G75*
G03*
X142800000Y-101800000I-1200000J0D01*
G01*
%TO.C,U1*%
X142043750Y-103515000D02*
X141243750Y-103515000D01*
X142043750Y-103515000D02*
X142843750Y-103515000D01*
X142043750Y-106635000D02*
X140243750Y-106635000D01*
X142043750Y-106635000D02*
X142843750Y-106635000D01*
%TO.C,SW1*%
X154720000Y-106220000D02*
X154720000Y-107603000D01*
X154720000Y-106220000D02*
X153337000Y-106220000D01*
X154480000Y-110680000D02*
X147660000Y-110680000D01*
X154480000Y-109370000D02*
X154480000Y-110680000D01*
X154480000Y-106460000D02*
X154480000Y-107770000D01*
X154480000Y-106460000D02*
X147660000Y-106460000D01*
X152880000Y-109205000D02*
X149260000Y-109205000D01*
X152880000Y-109135000D02*
X151673333Y-109135000D01*
X152880000Y-109015000D02*
X151673333Y-109015000D01*
X152880000Y-108895000D02*
X151673333Y-108895000D01*
X152880000Y-108775000D02*
X151673333Y-108775000D01*
X152880000Y-108655000D02*
X151673333Y-108655000D01*
X152880000Y-108535000D02*
X151673333Y-108535000D01*
X152880000Y-108415000D02*
X151673333Y-108415000D01*
X152880000Y-108295000D02*
X151673333Y-108295000D01*
X152880000Y-108175000D02*
X151673333Y-108175000D01*
X152880000Y-108055000D02*
X151673333Y-108055000D01*
X152880000Y-107935000D02*
X152880000Y-109205000D01*
X151673333Y-107935000D02*
X151673333Y-109205000D01*
X149260000Y-109205000D02*
X149260000Y-107935000D01*
X149260000Y-107935000D02*
X152880000Y-107935000D01*
X147660000Y-109370000D02*
X147660000Y-110680000D01*
X147660000Y-106460000D02*
X147660000Y-107770000D01*
%TO.C,R5*%
X134020000Y-102653641D02*
X134020000Y-102346359D01*
X134780000Y-102653641D02*
X134780000Y-102346359D01*
%TO.C,D1*%
X146320000Y-95860000D02*
X149520000Y-95860000D01*
%TO.C,R3*%
X136053641Y-98530000D02*
X135746359Y-98530000D01*
X136053641Y-97770000D02*
X135746359Y-97770000D01*
%TO.C,BT1*%
X163730000Y-83220000D02*
X167680000Y-84660000D01*
X163100000Y-83220000D02*
X163730000Y-83220000D01*
X154640000Y-83220000D02*
X157100000Y-83220000D01*
X152560000Y-85300000D02*
X154640000Y-83220000D01*
X152560000Y-88800000D02*
X152560000Y-85300000D01*
X152560000Y-102700000D02*
X152560000Y-99200000D01*
X152560000Y-102700000D02*
X154640000Y-104780000D01*
X163730000Y-104780000D02*
X167680000Y-103340000D01*
X163100000Y-104780000D02*
X163730000Y-104780000D01*
X154640000Y-104780000D02*
X157100000Y-104780000D01*
X168666530Y-87996646D02*
G75*
G03*
X167680000Y-84660000I-1716531J1306646D01*
G01*
X167688169Y-103325243D02*
G75*
G03*
X168649999Y-100000000I-738169J2015243D01*
G01*
%TO.C,C1*%
X137290000Y-98240580D02*
X137290000Y-97959420D01*
X138310000Y-98240580D02*
X138310000Y-97959420D01*
%TO.C,C4*%
X145483750Y-104459420D02*
X145483750Y-104740580D01*
X144463750Y-104459420D02*
X144463750Y-104740580D01*
%TO.C,C5*%
X147143750Y-104489420D02*
X147143750Y-104770580D01*
X146123750Y-104489420D02*
X146123750Y-104770580D01*
%TO.C,R6*%
X132046359Y-100020000D02*
X132353641Y-100020000D01*
X132046359Y-100780000D02*
X132353641Y-100780000D01*
%TO.C,R7*%
X148822500Y-104362742D02*
X148822500Y-104837258D01*
X147777500Y-104362742D02*
X147777500Y-104837258D01*
%TO.C,C7*%
X136510000Y-103459420D02*
X136510000Y-103740580D01*
X135490000Y-103459420D02*
X135490000Y-103740580D01*
%TO.C,R8*%
X126420000Y-103553641D02*
X126420000Y-103246359D01*
X127180000Y-103553641D02*
X127180000Y-103246359D01*
%TO.C,C2*%
X133190000Y-98240580D02*
X133190000Y-97959420D01*
X134210000Y-98240580D02*
X134210000Y-97959420D01*
%TO.C,C3*%
X131390000Y-98240580D02*
X131390000Y-97959420D01*
X132410000Y-98240580D02*
X132410000Y-97959420D01*
%TO.C,L1*%
X142871252Y-109400000D02*
X142348748Y-109400000D01*
X142871252Y-107180000D02*
X142348748Y-107180000D01*
%TO.C,R4*%
X134353641Y-100780000D02*
X134046359Y-100780000D01*
X134353641Y-100020000D02*
X134046359Y-100020000D01*
%TO.C,TP4*%
X145800000Y-101600000D02*
G75*
G03*
X145800000Y-101600000I-1200000J0D01*
G01*
%TO.C,Q2*%
X143700000Y-96340000D02*
X142900000Y-96340000D01*
X143700000Y-96340000D02*
X144500000Y-96340000D01*
X143700000Y-99460000D02*
X141900000Y-99460000D01*
X143700000Y-99460000D02*
X144500000Y-99460000D01*
%TO.C,TP3*%
X141300000Y-98100000D02*
G75*
G03*
X141300000Y-98100000I-1200000J0D01*
G01*
%TO.C,R9*%
X126420000Y-105553641D02*
X126420000Y-105246359D01*
X127180000Y-105553641D02*
X127180000Y-105246359D01*
%TO.C,R1*%
X137220000Y-101453641D02*
X137220000Y-101146359D01*
X137980000Y-101453641D02*
X137980000Y-101146359D01*
%TO.C,TP5*%
X138700000Y-107600000D02*
G75*
G03*
X138700000Y-107600000I-1200000J0D01*
G01*
%TD*%
M02*
