%TF.GenerationSoftware,KiCad,Pcbnew,(7.0.0)*%
%TF.CreationDate,2023-09-20T14:53:45-04:00*%
%TF.ProjectId,blinkenbrain,626c696e-6b65-46e6-9272-61696e2e6b69,A*%
%TF.SameCoordinates,Original*%
%TF.FileFunction,Paste,Bot*%
%TF.FilePolarity,Positive*%
%FSLAX46Y46*%
G04 Gerber Fmt 4.6, Leading zero omitted, Abs format (unit mm)*
G04 Created by KiCad (PCBNEW (7.0.0)) date 2023-09-20 14:53:45*
%MOMM*%
%LPD*%
G01*
G04 APERTURE LIST*
G04 Aperture macros list*
%AMRoundRect*
0 Rectangle with rounded corners*
0 $1 Rounding radius*
0 $2 $3 $4 $5 $6 $7 $8 $9 X,Y pos of 4 corners*
0 Add a 4 corners polygon primitive as box body*
4,1,4,$2,$3,$4,$5,$6,$7,$8,$9,$2,$3,0*
0 Add four circle primitives for the rounded corners*
1,1,$1+$1,$2,$3*
1,1,$1+$1,$4,$5*
1,1,$1+$1,$6,$7*
1,1,$1+$1,$8,$9*
0 Add four rect primitives between the rounded corners*
20,1,$1+$1,$2,$3,$4,$5,0*
20,1,$1+$1,$4,$5,$6,$7,0*
20,1,$1+$1,$6,$7,$8,$9,0*
20,1,$1+$1,$8,$9,$2,$3,0*%
G04 Aperture macros list end*
%ADD10R,1.200000X1.200000*%
%ADD11R,1.500000X1.600000*%
%ADD12RoundRect,0.135000X0.185000X-0.135000X0.185000X0.135000X-0.185000X0.135000X-0.185000X-0.135000X0*%
%ADD13RoundRect,0.225000X-0.250000X0.225000X-0.250000X-0.225000X0.250000X-0.225000X0.250000X0.225000X0*%
%ADD14R,0.400000X0.650000*%
%ADD15RoundRect,0.150000X-0.512500X-0.150000X0.512500X-0.150000X0.512500X0.150000X-0.512500X0.150000X0*%
%ADD16R,2.440000X1.120000*%
%ADD17R,2.600000X1.400000*%
%ADD18RoundRect,0.135000X0.135000X0.185000X-0.135000X0.185000X-0.135000X-0.185000X0.135000X-0.185000X0*%
%ADD19R,5.080000X1.270000*%
%ADD20RoundRect,0.225000X0.250000X-0.225000X0.250000X0.225000X-0.250000X0.225000X-0.250000X-0.225000X0*%
%ADD21RoundRect,0.135000X-0.135000X-0.185000X0.135000X-0.185000X0.135000X0.185000X-0.135000X0.185000X0*%
%ADD22RoundRect,0.200000X-0.275000X0.200000X-0.275000X-0.200000X0.275000X-0.200000X0.275000X0.200000X0*%
%ADD23RoundRect,0.250000X0.375000X0.850000X-0.375000X0.850000X-0.375000X-0.850000X0.375000X-0.850000X0*%
G04 APERTURE END LIST*
D10*
%TO.C,RV1*%
X128499999Y-107699999D03*
D11*
X131749999Y-106699999D03*
D10*
X128499999Y-105699999D03*
%TD*%
D12*
%TO.C,R2*%
X136400000Y-100710000D03*
X136400000Y-99690000D03*
%TD*%
D13*
%TO.C,C6*%
X139100000Y-102025000D03*
X139100000Y-103575000D03*
%TD*%
D14*
%TO.C,Q1*%
X129049999Y-101249999D03*
X129699999Y-101249999D03*
X130349999Y-101249999D03*
X130349999Y-103149999D03*
X129699999Y-103149999D03*
X129049999Y-103149999D03*
%TD*%
D15*
%TO.C,U1*%
X140906250Y-106025000D03*
X140906250Y-105075000D03*
X140906250Y-104125000D03*
X143181250Y-104125000D03*
X143181250Y-106025000D03*
%TD*%
D16*
%TO.C,SW1*%
X146764999Y-108569999D03*
X155374999Y-108569999D03*
%TD*%
D12*
%TO.C,R5*%
X134400000Y-103010000D03*
X134400000Y-101990000D03*
%TD*%
D17*
%TO.C,D1*%
X147919999Y-96759999D03*
X147919999Y-101959999D03*
%TD*%
D18*
%TO.C,R3*%
X136410000Y-98150000D03*
X135390000Y-98150000D03*
%TD*%
D19*
%TO.C,BT1*%
X160099999Y-83014999D03*
X160099999Y-104984999D03*
%TD*%
D20*
%TO.C,C1*%
X137800000Y-98875000D03*
X137800000Y-97325000D03*
%TD*%
D13*
%TO.C,C4*%
X144973750Y-103825000D03*
X144973750Y-105375000D03*
%TD*%
%TO.C,C5*%
X146633750Y-103855000D03*
X146633750Y-105405000D03*
%TD*%
D21*
%TO.C,R6*%
X131690000Y-100400000D03*
X132710000Y-100400000D03*
%TD*%
D22*
%TO.C,R7*%
X148300000Y-103775000D03*
X148300000Y-105425000D03*
%TD*%
D13*
%TO.C,C7*%
X136000000Y-102825000D03*
X136000000Y-104375000D03*
%TD*%
D12*
%TO.C,R8*%
X126800000Y-103910000D03*
X126800000Y-102890000D03*
%TD*%
D20*
%TO.C,C2*%
X133700000Y-98875000D03*
X133700000Y-97325000D03*
%TD*%
%TO.C,C3*%
X131900000Y-98875000D03*
X131900000Y-97325000D03*
%TD*%
D23*
%TO.C,L1*%
X143685000Y-108290000D03*
X141535000Y-108290000D03*
%TD*%
D18*
%TO.C,R4*%
X134710000Y-100400000D03*
X133690000Y-100400000D03*
%TD*%
D15*
%TO.C,Q2*%
X142562500Y-98850000D03*
X142562500Y-96950000D03*
X144837500Y-97900000D03*
%TD*%
D12*
%TO.C,R9*%
X126800000Y-105910000D03*
X126800000Y-104890000D03*
%TD*%
%TO.C,R1*%
X137600000Y-101810000D03*
X137600000Y-100790000D03*
%TD*%
M02*
