%TF.GenerationSoftware,KiCad,Pcbnew,(7.0.0)*%
%TF.CreationDate,2023-09-20T14:53:45-04:00*%
%TF.ProjectId,blinkenbrain,626c696e-6b65-46e6-9272-61696e2e6b69,A*%
%TF.SameCoordinates,Original*%
%TF.FileFunction,Legend,Bot*%
%TF.FilePolarity,Positive*%
%FSLAX46Y46*%
G04 Gerber Fmt 4.6, Leading zero omitted, Abs format (unit mm)*
G04 Created by KiCad (PCBNEW (7.0.0)) date 2023-09-20 14:53:45*
%MOMM*%
%LPD*%
G01*
G04 APERTURE LIST*
%ADD10C,0.150000*%
%ADD11C,0.120000*%
G04 APERTURE END LIST*
D10*
X132704761Y-108782380D02*
X132133333Y-108782380D01*
X132419047Y-109782380D02*
X132419047Y-108782380D01*
X131371428Y-109115714D02*
X131371428Y-109782380D01*
X131799999Y-109115714D02*
X131799999Y-109639523D01*
X131799999Y-109639523D02*
X131752380Y-109734761D01*
X131752380Y-109734761D02*
X131657142Y-109782380D01*
X131657142Y-109782380D02*
X131514285Y-109782380D01*
X131514285Y-109782380D02*
X131419047Y-109734761D01*
X131419047Y-109734761D02*
X131371428Y-109687142D01*
X130895237Y-109115714D02*
X130895237Y-109782380D01*
X130895237Y-109210952D02*
X130847618Y-109163333D01*
X130847618Y-109163333D02*
X130752380Y-109115714D01*
X130752380Y-109115714D02*
X130609523Y-109115714D01*
X130609523Y-109115714D02*
X130514285Y-109163333D01*
X130514285Y-109163333D02*
X130466666Y-109258571D01*
X130466666Y-109258571D02*
X130466666Y-109782380D01*
X129609523Y-109734761D02*
X129704761Y-109782380D01*
X129704761Y-109782380D02*
X129895237Y-109782380D01*
X129895237Y-109782380D02*
X129990475Y-109734761D01*
X129990475Y-109734761D02*
X130038094Y-109639523D01*
X130038094Y-109639523D02*
X130038094Y-109258571D01*
X130038094Y-109258571D02*
X129990475Y-109163333D01*
X129990475Y-109163333D02*
X129895237Y-109115714D01*
X129895237Y-109115714D02*
X129704761Y-109115714D01*
X129704761Y-109115714D02*
X129609523Y-109163333D01*
X129609523Y-109163333D02*
X129561904Y-109258571D01*
X129561904Y-109258571D02*
X129561904Y-109353809D01*
X129561904Y-109353809D02*
X130038094Y-109449047D01*
X129133332Y-109782380D02*
X129133332Y-109115714D01*
X129133332Y-109306190D02*
X129085713Y-109210952D01*
X129085713Y-109210952D02*
X129038094Y-109163333D01*
X129038094Y-109163333D02*
X128942856Y-109115714D01*
X128942856Y-109115714D02*
X128847618Y-109115714D01*
X151528571Y-84618571D02*
X151385714Y-84666190D01*
X151385714Y-84666190D02*
X151338095Y-84713809D01*
X151338095Y-84713809D02*
X151290476Y-84809047D01*
X151290476Y-84809047D02*
X151290476Y-84951904D01*
X151290476Y-84951904D02*
X151338095Y-85047142D01*
X151338095Y-85047142D02*
X151385714Y-85094761D01*
X151385714Y-85094761D02*
X151480952Y-85142380D01*
X151480952Y-85142380D02*
X151861904Y-85142380D01*
X151861904Y-85142380D02*
X151861904Y-84142380D01*
X151861904Y-84142380D02*
X151528571Y-84142380D01*
X151528571Y-84142380D02*
X151433333Y-84190000D01*
X151433333Y-84190000D02*
X151385714Y-84237619D01*
X151385714Y-84237619D02*
X151338095Y-84332857D01*
X151338095Y-84332857D02*
X151338095Y-84428095D01*
X151338095Y-84428095D02*
X151385714Y-84523333D01*
X151385714Y-84523333D02*
X151433333Y-84570952D01*
X151433333Y-84570952D02*
X151528571Y-84618571D01*
X151528571Y-84618571D02*
X151861904Y-84618571D01*
X150719047Y-85142380D02*
X150814285Y-85094761D01*
X150814285Y-85094761D02*
X150861904Y-84999523D01*
X150861904Y-84999523D02*
X150861904Y-84142380D01*
X150338094Y-85142380D02*
X150338094Y-84475714D01*
X150338094Y-84142380D02*
X150385713Y-84190000D01*
X150385713Y-84190000D02*
X150338094Y-84237619D01*
X150338094Y-84237619D02*
X150290475Y-84190000D01*
X150290475Y-84190000D02*
X150338094Y-84142380D01*
X150338094Y-84142380D02*
X150338094Y-84237619D01*
X149861904Y-84475714D02*
X149861904Y-85142380D01*
X149861904Y-84570952D02*
X149814285Y-84523333D01*
X149814285Y-84523333D02*
X149719047Y-84475714D01*
X149719047Y-84475714D02*
X149576190Y-84475714D01*
X149576190Y-84475714D02*
X149480952Y-84523333D01*
X149480952Y-84523333D02*
X149433333Y-84618571D01*
X149433333Y-84618571D02*
X149433333Y-85142380D01*
X148957142Y-85142380D02*
X148957142Y-84142380D01*
X148861904Y-84761428D02*
X148576190Y-85142380D01*
X148576190Y-84475714D02*
X148957142Y-84856666D01*
X147766666Y-85094761D02*
X147861904Y-85142380D01*
X147861904Y-85142380D02*
X148052380Y-85142380D01*
X148052380Y-85142380D02*
X148147618Y-85094761D01*
X148147618Y-85094761D02*
X148195237Y-84999523D01*
X148195237Y-84999523D02*
X148195237Y-84618571D01*
X148195237Y-84618571D02*
X148147618Y-84523333D01*
X148147618Y-84523333D02*
X148052380Y-84475714D01*
X148052380Y-84475714D02*
X147861904Y-84475714D01*
X147861904Y-84475714D02*
X147766666Y-84523333D01*
X147766666Y-84523333D02*
X147719047Y-84618571D01*
X147719047Y-84618571D02*
X147719047Y-84713809D01*
X147719047Y-84713809D02*
X148195237Y-84809047D01*
X147290475Y-84475714D02*
X147290475Y-85142380D01*
X147290475Y-84570952D02*
X147242856Y-84523333D01*
X147242856Y-84523333D02*
X147147618Y-84475714D01*
X147147618Y-84475714D02*
X147004761Y-84475714D01*
X147004761Y-84475714D02*
X146909523Y-84523333D01*
X146909523Y-84523333D02*
X146861904Y-84618571D01*
X146861904Y-84618571D02*
X146861904Y-85142380D01*
X146385713Y-85142380D02*
X146385713Y-84142380D01*
X146385713Y-84523333D02*
X146290475Y-84475714D01*
X146290475Y-84475714D02*
X146099999Y-84475714D01*
X146099999Y-84475714D02*
X146004761Y-84523333D01*
X146004761Y-84523333D02*
X145957142Y-84570952D01*
X145957142Y-84570952D02*
X145909523Y-84666190D01*
X145909523Y-84666190D02*
X145909523Y-84951904D01*
X145909523Y-84951904D02*
X145957142Y-85047142D01*
X145957142Y-85047142D02*
X146004761Y-85094761D01*
X146004761Y-85094761D02*
X146099999Y-85142380D01*
X146099999Y-85142380D02*
X146290475Y-85142380D01*
X146290475Y-85142380D02*
X146385713Y-85094761D01*
X145480951Y-85142380D02*
X145480951Y-84475714D01*
X145480951Y-84666190D02*
X145433332Y-84570952D01*
X145433332Y-84570952D02*
X145385713Y-84523333D01*
X145385713Y-84523333D02*
X145290475Y-84475714D01*
X145290475Y-84475714D02*
X145195237Y-84475714D01*
X144433332Y-85142380D02*
X144433332Y-84618571D01*
X144433332Y-84618571D02*
X144480951Y-84523333D01*
X144480951Y-84523333D02*
X144576189Y-84475714D01*
X144576189Y-84475714D02*
X144766665Y-84475714D01*
X144766665Y-84475714D02*
X144861903Y-84523333D01*
X144433332Y-85094761D02*
X144528570Y-85142380D01*
X144528570Y-85142380D02*
X144766665Y-85142380D01*
X144766665Y-85142380D02*
X144861903Y-85094761D01*
X144861903Y-85094761D02*
X144909522Y-84999523D01*
X144909522Y-84999523D02*
X144909522Y-84904285D01*
X144909522Y-84904285D02*
X144861903Y-84809047D01*
X144861903Y-84809047D02*
X144766665Y-84761428D01*
X144766665Y-84761428D02*
X144528570Y-84761428D01*
X144528570Y-84761428D02*
X144433332Y-84713809D01*
X143957141Y-85142380D02*
X143957141Y-84475714D01*
X143957141Y-84142380D02*
X144004760Y-84190000D01*
X144004760Y-84190000D02*
X143957141Y-84237619D01*
X143957141Y-84237619D02*
X143909522Y-84190000D01*
X143909522Y-84190000D02*
X143957141Y-84142380D01*
X143957141Y-84142380D02*
X143957141Y-84237619D01*
X143480951Y-84475714D02*
X143480951Y-85142380D01*
X143480951Y-84570952D02*
X143433332Y-84523333D01*
X143433332Y-84523333D02*
X143338094Y-84475714D01*
X143338094Y-84475714D02*
X143195237Y-84475714D01*
X143195237Y-84475714D02*
X143099999Y-84523333D01*
X143099999Y-84523333D02*
X143052380Y-84618571D01*
X143052380Y-84618571D02*
X143052380Y-85142380D01*
X151290476Y-86762380D02*
X151623809Y-86286190D01*
X151861904Y-86762380D02*
X151861904Y-85762380D01*
X151861904Y-85762380D02*
X151480952Y-85762380D01*
X151480952Y-85762380D02*
X151385714Y-85810000D01*
X151385714Y-85810000D02*
X151338095Y-85857619D01*
X151338095Y-85857619D02*
X151290476Y-85952857D01*
X151290476Y-85952857D02*
X151290476Y-86095714D01*
X151290476Y-86095714D02*
X151338095Y-86190952D01*
X151338095Y-86190952D02*
X151385714Y-86238571D01*
X151385714Y-86238571D02*
X151480952Y-86286190D01*
X151480952Y-86286190D02*
X151861904Y-86286190D01*
X150480952Y-86714761D02*
X150576190Y-86762380D01*
X150576190Y-86762380D02*
X150766666Y-86762380D01*
X150766666Y-86762380D02*
X150861904Y-86714761D01*
X150861904Y-86714761D02*
X150909523Y-86619523D01*
X150909523Y-86619523D02*
X150909523Y-86238571D01*
X150909523Y-86238571D02*
X150861904Y-86143333D01*
X150861904Y-86143333D02*
X150766666Y-86095714D01*
X150766666Y-86095714D02*
X150576190Y-86095714D01*
X150576190Y-86095714D02*
X150480952Y-86143333D01*
X150480952Y-86143333D02*
X150433333Y-86238571D01*
X150433333Y-86238571D02*
X150433333Y-86333809D01*
X150433333Y-86333809D02*
X150909523Y-86429047D01*
X150099999Y-86095714D02*
X149861904Y-86762380D01*
X149861904Y-86762380D02*
X149623809Y-86095714D01*
X149242856Y-86667142D02*
X149195237Y-86714761D01*
X149195237Y-86714761D02*
X149242856Y-86762380D01*
X149242856Y-86762380D02*
X149290475Y-86714761D01*
X149290475Y-86714761D02*
X149242856Y-86667142D01*
X149242856Y-86667142D02*
X149242856Y-86762380D01*
X148214285Y-86476666D02*
X147738095Y-86476666D01*
X148309523Y-86762380D02*
X147976190Y-85762380D01*
X147976190Y-85762380D02*
X147642857Y-86762380D01*
X151576190Y-87382380D02*
X151576190Y-88096666D01*
X151576190Y-88096666D02*
X151623809Y-88239523D01*
X151623809Y-88239523D02*
X151719047Y-88334761D01*
X151719047Y-88334761D02*
X151861904Y-88382380D01*
X151861904Y-88382380D02*
X151957142Y-88382380D01*
X151099999Y-88382380D02*
X151099999Y-87382380D01*
X151099999Y-87382380D02*
X150719047Y-87382380D01*
X150719047Y-87382380D02*
X150623809Y-87430000D01*
X150623809Y-87430000D02*
X150576190Y-87477619D01*
X150576190Y-87477619D02*
X150528571Y-87572857D01*
X150528571Y-87572857D02*
X150528571Y-87715714D01*
X150528571Y-87715714D02*
X150576190Y-87810952D01*
X150576190Y-87810952D02*
X150623809Y-87858571D01*
X150623809Y-87858571D02*
X150719047Y-87906190D01*
X150719047Y-87906190D02*
X151099999Y-87906190D01*
X150099999Y-88382380D02*
X150099999Y-87382380D01*
X150099999Y-87382380D02*
X149528571Y-88382380D01*
X149528571Y-88382380D02*
X149528571Y-87382380D01*
X148404761Y-87382380D02*
X148499999Y-87572857D01*
X148023809Y-87477619D02*
X147976190Y-87430000D01*
X147976190Y-87430000D02*
X147880952Y-87382380D01*
X147880952Y-87382380D02*
X147642857Y-87382380D01*
X147642857Y-87382380D02*
X147547619Y-87430000D01*
X147547619Y-87430000D02*
X147500000Y-87477619D01*
X147500000Y-87477619D02*
X147452381Y-87572857D01*
X147452381Y-87572857D02*
X147452381Y-87668095D01*
X147452381Y-87668095D02*
X147500000Y-87810952D01*
X147500000Y-87810952D02*
X148071428Y-88382380D01*
X148071428Y-88382380D02*
X147452381Y-88382380D01*
X147119047Y-87382380D02*
X146500000Y-87382380D01*
X146500000Y-87382380D02*
X146833333Y-87763333D01*
X146833333Y-87763333D02*
X146690476Y-87763333D01*
X146690476Y-87763333D02*
X146595238Y-87810952D01*
X146595238Y-87810952D02*
X146547619Y-87858571D01*
X146547619Y-87858571D02*
X146500000Y-87953809D01*
X146500000Y-87953809D02*
X146500000Y-88191904D01*
X146500000Y-88191904D02*
X146547619Y-88287142D01*
X146547619Y-88287142D02*
X146595238Y-88334761D01*
X146595238Y-88334761D02*
X146690476Y-88382380D01*
X146690476Y-88382380D02*
X146976190Y-88382380D01*
X146976190Y-88382380D02*
X147071428Y-88334761D01*
X147071428Y-88334761D02*
X147119047Y-88287142D01*
X154061904Y-105882380D02*
X154061904Y-104882380D01*
X154061904Y-104882380D02*
X153680952Y-104882380D01*
X153680952Y-104882380D02*
X153585714Y-104930000D01*
X153585714Y-104930000D02*
X153538095Y-104977619D01*
X153538095Y-104977619D02*
X153490476Y-105072857D01*
X153490476Y-105072857D02*
X153490476Y-105215714D01*
X153490476Y-105215714D02*
X153538095Y-105310952D01*
X153538095Y-105310952D02*
X153585714Y-105358571D01*
X153585714Y-105358571D02*
X153680952Y-105406190D01*
X153680952Y-105406190D02*
X154061904Y-105406190D01*
X152919047Y-105882380D02*
X153014285Y-105834761D01*
X153014285Y-105834761D02*
X153061904Y-105787142D01*
X153061904Y-105787142D02*
X153109523Y-105691904D01*
X153109523Y-105691904D02*
X153109523Y-105406190D01*
X153109523Y-105406190D02*
X153061904Y-105310952D01*
X153061904Y-105310952D02*
X153014285Y-105263333D01*
X153014285Y-105263333D02*
X152919047Y-105215714D01*
X152919047Y-105215714D02*
X152776190Y-105215714D01*
X152776190Y-105215714D02*
X152680952Y-105263333D01*
X152680952Y-105263333D02*
X152633333Y-105310952D01*
X152633333Y-105310952D02*
X152585714Y-105406190D01*
X152585714Y-105406190D02*
X152585714Y-105691904D01*
X152585714Y-105691904D02*
X152633333Y-105787142D01*
X152633333Y-105787142D02*
X152680952Y-105834761D01*
X152680952Y-105834761D02*
X152776190Y-105882380D01*
X152776190Y-105882380D02*
X152919047Y-105882380D01*
X152252380Y-105215714D02*
X152061904Y-105882380D01*
X152061904Y-105882380D02*
X151871428Y-105406190D01*
X151871428Y-105406190D02*
X151680952Y-105882380D01*
X151680952Y-105882380D02*
X151490476Y-105215714D01*
X150728571Y-105834761D02*
X150823809Y-105882380D01*
X150823809Y-105882380D02*
X151014285Y-105882380D01*
X151014285Y-105882380D02*
X151109523Y-105834761D01*
X151109523Y-105834761D02*
X151157142Y-105739523D01*
X151157142Y-105739523D02*
X151157142Y-105358571D01*
X151157142Y-105358571D02*
X151109523Y-105263333D01*
X151109523Y-105263333D02*
X151014285Y-105215714D01*
X151014285Y-105215714D02*
X150823809Y-105215714D01*
X150823809Y-105215714D02*
X150728571Y-105263333D01*
X150728571Y-105263333D02*
X150680952Y-105358571D01*
X150680952Y-105358571D02*
X150680952Y-105453809D01*
X150680952Y-105453809D02*
X151157142Y-105549047D01*
X150252380Y-105882380D02*
X150252380Y-105215714D01*
X150252380Y-105406190D02*
X150204761Y-105310952D01*
X150204761Y-105310952D02*
X150157142Y-105263333D01*
X150157142Y-105263333D02*
X150061904Y-105215714D01*
X150061904Y-105215714D02*
X149966666Y-105215714D01*
X135390476Y-107764000D02*
X135466666Y-107725904D01*
X135466666Y-107725904D02*
X135580952Y-107725904D01*
X135580952Y-107725904D02*
X135695238Y-107764000D01*
X135695238Y-107764000D02*
X135771428Y-107840190D01*
X135771428Y-107840190D02*
X135809523Y-107916380D01*
X135809523Y-107916380D02*
X135847619Y-108068761D01*
X135847619Y-108068761D02*
X135847619Y-108183047D01*
X135847619Y-108183047D02*
X135809523Y-108335428D01*
X135809523Y-108335428D02*
X135771428Y-108411619D01*
X135771428Y-108411619D02*
X135695238Y-108487809D01*
X135695238Y-108487809D02*
X135580952Y-108525904D01*
X135580952Y-108525904D02*
X135504761Y-108525904D01*
X135504761Y-108525904D02*
X135390476Y-108487809D01*
X135390476Y-108487809D02*
X135352380Y-108449714D01*
X135352380Y-108449714D02*
X135352380Y-108183047D01*
X135352380Y-108183047D02*
X135504761Y-108183047D01*
X135009523Y-108525904D02*
X135009523Y-107725904D01*
X135009523Y-107725904D02*
X134552380Y-108525904D01*
X134552380Y-108525904D02*
X134552380Y-107725904D01*
X134171428Y-108525904D02*
X134171428Y-107725904D01*
X134171428Y-107725904D02*
X133980952Y-107725904D01*
X133980952Y-107725904D02*
X133866666Y-107764000D01*
X133866666Y-107764000D02*
X133790476Y-107840190D01*
X133790476Y-107840190D02*
X133752381Y-107916380D01*
X133752381Y-107916380D02*
X133714285Y-108068761D01*
X133714285Y-108068761D02*
X133714285Y-108183047D01*
X133714285Y-108183047D02*
X133752381Y-108335428D01*
X133752381Y-108335428D02*
X133790476Y-108411619D01*
X133790476Y-108411619D02*
X133866666Y-108487809D01*
X133866666Y-108487809D02*
X133980952Y-108525904D01*
X133980952Y-108525904D02*
X134171428Y-108525904D01*
%TO.C,TP4*%
X144009523Y-99693904D02*
X143552380Y-99693904D01*
X143780952Y-100493904D02*
X143780952Y-99693904D01*
X143285713Y-100493904D02*
X143285713Y-99693904D01*
X143285713Y-99693904D02*
X142980951Y-99693904D01*
X142980951Y-99693904D02*
X142904761Y-99732000D01*
X142904761Y-99732000D02*
X142866666Y-99770095D01*
X142866666Y-99770095D02*
X142828570Y-99846285D01*
X142828570Y-99846285D02*
X142828570Y-99960571D01*
X142828570Y-99960571D02*
X142866666Y-100036761D01*
X142866666Y-100036761D02*
X142904761Y-100074857D01*
X142904761Y-100074857D02*
X142980951Y-100112952D01*
X142980951Y-100112952D02*
X143285713Y-100112952D01*
X142142856Y-99960571D02*
X142142856Y-100493904D01*
X142333332Y-99655809D02*
X142523809Y-100227238D01*
X142523809Y-100227238D02*
X142028570Y-100227238D01*
%TO.C,RV1*%
X132676189Y-104393904D02*
X132942856Y-104012952D01*
X133133332Y-104393904D02*
X133133332Y-103593904D01*
X133133332Y-103593904D02*
X132828570Y-103593904D01*
X132828570Y-103593904D02*
X132752380Y-103632000D01*
X132752380Y-103632000D02*
X132714285Y-103670095D01*
X132714285Y-103670095D02*
X132676189Y-103746285D01*
X132676189Y-103746285D02*
X132676189Y-103860571D01*
X132676189Y-103860571D02*
X132714285Y-103936761D01*
X132714285Y-103936761D02*
X132752380Y-103974857D01*
X132752380Y-103974857D02*
X132828570Y-104012952D01*
X132828570Y-104012952D02*
X133133332Y-104012952D01*
X132447618Y-103593904D02*
X132180951Y-104393904D01*
X132180951Y-104393904D02*
X131914285Y-103593904D01*
X131228571Y-104393904D02*
X131685714Y-104393904D01*
X131457142Y-104393904D02*
X131457142Y-103593904D01*
X131457142Y-103593904D02*
X131533333Y-103708190D01*
X131533333Y-103708190D02*
X131609523Y-103784380D01*
X131609523Y-103784380D02*
X131685714Y-103822476D01*
%TO.C,R2*%
X136358332Y-102018904D02*
X136624999Y-101637952D01*
X136815475Y-102018904D02*
X136815475Y-101218904D01*
X136815475Y-101218904D02*
X136510713Y-101218904D01*
X136510713Y-101218904D02*
X136434523Y-101257000D01*
X136434523Y-101257000D02*
X136396428Y-101295095D01*
X136396428Y-101295095D02*
X136358332Y-101371285D01*
X136358332Y-101371285D02*
X136358332Y-101485571D01*
X136358332Y-101485571D02*
X136396428Y-101561761D01*
X136396428Y-101561761D02*
X136434523Y-101599857D01*
X136434523Y-101599857D02*
X136510713Y-101637952D01*
X136510713Y-101637952D02*
X136815475Y-101637952D01*
X136053571Y-101295095D02*
X136015475Y-101257000D01*
X136015475Y-101257000D02*
X135939285Y-101218904D01*
X135939285Y-101218904D02*
X135748809Y-101218904D01*
X135748809Y-101218904D02*
X135672618Y-101257000D01*
X135672618Y-101257000D02*
X135634523Y-101295095D01*
X135634523Y-101295095D02*
X135596428Y-101371285D01*
X135596428Y-101371285D02*
X135596428Y-101447476D01*
X135596428Y-101447476D02*
X135634523Y-101561761D01*
X135634523Y-101561761D02*
X136091666Y-102018904D01*
X136091666Y-102018904D02*
X135596428Y-102018904D01*
%TO.C,C6*%
X137933332Y-105117714D02*
X137971428Y-105155809D01*
X137971428Y-105155809D02*
X138085713Y-105193904D01*
X138085713Y-105193904D02*
X138161904Y-105193904D01*
X138161904Y-105193904D02*
X138276190Y-105155809D01*
X138276190Y-105155809D02*
X138352380Y-105079619D01*
X138352380Y-105079619D02*
X138390475Y-105003428D01*
X138390475Y-105003428D02*
X138428571Y-104851047D01*
X138428571Y-104851047D02*
X138428571Y-104736761D01*
X138428571Y-104736761D02*
X138390475Y-104584380D01*
X138390475Y-104584380D02*
X138352380Y-104508190D01*
X138352380Y-104508190D02*
X138276190Y-104432000D01*
X138276190Y-104432000D02*
X138161904Y-104393904D01*
X138161904Y-104393904D02*
X138085713Y-104393904D01*
X138085713Y-104393904D02*
X137971428Y-104432000D01*
X137971428Y-104432000D02*
X137933332Y-104470095D01*
X137247618Y-104393904D02*
X137399999Y-104393904D01*
X137399999Y-104393904D02*
X137476190Y-104432000D01*
X137476190Y-104432000D02*
X137514285Y-104470095D01*
X137514285Y-104470095D02*
X137590475Y-104584380D01*
X137590475Y-104584380D02*
X137628571Y-104736761D01*
X137628571Y-104736761D02*
X137628571Y-105041523D01*
X137628571Y-105041523D02*
X137590475Y-105117714D01*
X137590475Y-105117714D02*
X137552380Y-105155809D01*
X137552380Y-105155809D02*
X137476190Y-105193904D01*
X137476190Y-105193904D02*
X137323809Y-105193904D01*
X137323809Y-105193904D02*
X137247618Y-105155809D01*
X137247618Y-105155809D02*
X137209523Y-105117714D01*
X137209523Y-105117714D02*
X137171428Y-105041523D01*
X137171428Y-105041523D02*
X137171428Y-104851047D01*
X137171428Y-104851047D02*
X137209523Y-104774857D01*
X137209523Y-104774857D02*
X137247618Y-104736761D01*
X137247618Y-104736761D02*
X137323809Y-104698666D01*
X137323809Y-104698666D02*
X137476190Y-104698666D01*
X137476190Y-104698666D02*
X137552380Y-104736761D01*
X137552380Y-104736761D02*
X137590475Y-104774857D01*
X137590475Y-104774857D02*
X137628571Y-104851047D01*
%TO.C,TP1*%
X128009523Y-99293904D02*
X127552380Y-99293904D01*
X127780952Y-100093904D02*
X127780952Y-99293904D01*
X127285713Y-100093904D02*
X127285713Y-99293904D01*
X127285713Y-99293904D02*
X126980951Y-99293904D01*
X126980951Y-99293904D02*
X126904761Y-99332000D01*
X126904761Y-99332000D02*
X126866666Y-99370095D01*
X126866666Y-99370095D02*
X126828570Y-99446285D01*
X126828570Y-99446285D02*
X126828570Y-99560571D01*
X126828570Y-99560571D02*
X126866666Y-99636761D01*
X126866666Y-99636761D02*
X126904761Y-99674857D01*
X126904761Y-99674857D02*
X126980951Y-99712952D01*
X126980951Y-99712952D02*
X127285713Y-99712952D01*
X126066666Y-100093904D02*
X126523809Y-100093904D01*
X126295237Y-100093904D02*
X126295237Y-99293904D01*
X126295237Y-99293904D02*
X126371428Y-99408190D01*
X126371428Y-99408190D02*
X126447618Y-99484380D01*
X126447618Y-99484380D02*
X126523809Y-99522476D01*
%TO.C,Q1*%
X128070095Y-101523809D02*
X128032000Y-101447619D01*
X128032000Y-101447619D02*
X127955809Y-101371428D01*
X127955809Y-101371428D02*
X127841523Y-101257142D01*
X127841523Y-101257142D02*
X127803428Y-101180952D01*
X127803428Y-101180952D02*
X127803428Y-101104761D01*
X127993904Y-101142857D02*
X127955809Y-101066666D01*
X127955809Y-101066666D02*
X127879619Y-100990476D01*
X127879619Y-100990476D02*
X127727238Y-100952380D01*
X127727238Y-100952380D02*
X127460571Y-100952380D01*
X127460571Y-100952380D02*
X127308190Y-100990476D01*
X127308190Y-100990476D02*
X127232000Y-101066666D01*
X127232000Y-101066666D02*
X127193904Y-101142857D01*
X127193904Y-101142857D02*
X127193904Y-101295238D01*
X127193904Y-101295238D02*
X127232000Y-101371428D01*
X127232000Y-101371428D02*
X127308190Y-101447619D01*
X127308190Y-101447619D02*
X127460571Y-101485714D01*
X127460571Y-101485714D02*
X127727238Y-101485714D01*
X127727238Y-101485714D02*
X127879619Y-101447619D01*
X127879619Y-101447619D02*
X127955809Y-101371428D01*
X127955809Y-101371428D02*
X127993904Y-101295238D01*
X127993904Y-101295238D02*
X127993904Y-101142857D01*
X127993904Y-102247618D02*
X127993904Y-101790475D01*
X127993904Y-102019047D02*
X127193904Y-102019047D01*
X127193904Y-102019047D02*
X127308190Y-101942856D01*
X127308190Y-101942856D02*
X127384380Y-101866666D01*
X127384380Y-101866666D02*
X127422476Y-101790475D01*
%TO.C,TP2*%
X141109523Y-99793904D02*
X140652380Y-99793904D01*
X140880952Y-100593904D02*
X140880952Y-99793904D01*
X140385713Y-100593904D02*
X140385713Y-99793904D01*
X140385713Y-99793904D02*
X140080951Y-99793904D01*
X140080951Y-99793904D02*
X140004761Y-99832000D01*
X140004761Y-99832000D02*
X139966666Y-99870095D01*
X139966666Y-99870095D02*
X139928570Y-99946285D01*
X139928570Y-99946285D02*
X139928570Y-100060571D01*
X139928570Y-100060571D02*
X139966666Y-100136761D01*
X139966666Y-100136761D02*
X140004761Y-100174857D01*
X140004761Y-100174857D02*
X140080951Y-100212952D01*
X140080951Y-100212952D02*
X140385713Y-100212952D01*
X139623809Y-99870095D02*
X139585713Y-99832000D01*
X139585713Y-99832000D02*
X139509523Y-99793904D01*
X139509523Y-99793904D02*
X139319047Y-99793904D01*
X139319047Y-99793904D02*
X139242856Y-99832000D01*
X139242856Y-99832000D02*
X139204761Y-99870095D01*
X139204761Y-99870095D02*
X139166666Y-99946285D01*
X139166666Y-99946285D02*
X139166666Y-100022476D01*
X139166666Y-100022476D02*
X139204761Y-100136761D01*
X139204761Y-100136761D02*
X139661904Y-100593904D01*
X139661904Y-100593904D02*
X139166666Y-100593904D01*
%TO.C,U1*%
X138993904Y-104790476D02*
X139641523Y-104790476D01*
X139641523Y-104790476D02*
X139717714Y-104828571D01*
X139717714Y-104828571D02*
X139755809Y-104866666D01*
X139755809Y-104866666D02*
X139793904Y-104942857D01*
X139793904Y-104942857D02*
X139793904Y-105095238D01*
X139793904Y-105095238D02*
X139755809Y-105171428D01*
X139755809Y-105171428D02*
X139717714Y-105209523D01*
X139717714Y-105209523D02*
X139641523Y-105247619D01*
X139641523Y-105247619D02*
X138993904Y-105247619D01*
X139793904Y-106047618D02*
X139793904Y-105590475D01*
X139793904Y-105819047D02*
X138993904Y-105819047D01*
X138993904Y-105819047D02*
X139108190Y-105742856D01*
X139108190Y-105742856D02*
X139184380Y-105666666D01*
X139184380Y-105666666D02*
X139222476Y-105590475D01*
%TO.C,SW1*%
X147166667Y-110555809D02*
X147052381Y-110593904D01*
X147052381Y-110593904D02*
X146861905Y-110593904D01*
X146861905Y-110593904D02*
X146785714Y-110555809D01*
X146785714Y-110555809D02*
X146747619Y-110517714D01*
X146747619Y-110517714D02*
X146709524Y-110441523D01*
X146709524Y-110441523D02*
X146709524Y-110365333D01*
X146709524Y-110365333D02*
X146747619Y-110289142D01*
X146747619Y-110289142D02*
X146785714Y-110251047D01*
X146785714Y-110251047D02*
X146861905Y-110212952D01*
X146861905Y-110212952D02*
X147014286Y-110174857D01*
X147014286Y-110174857D02*
X147090476Y-110136761D01*
X147090476Y-110136761D02*
X147128571Y-110098666D01*
X147128571Y-110098666D02*
X147166667Y-110022476D01*
X147166667Y-110022476D02*
X147166667Y-109946285D01*
X147166667Y-109946285D02*
X147128571Y-109870095D01*
X147128571Y-109870095D02*
X147090476Y-109832000D01*
X147090476Y-109832000D02*
X147014286Y-109793904D01*
X147014286Y-109793904D02*
X146823809Y-109793904D01*
X146823809Y-109793904D02*
X146709524Y-109832000D01*
X146442857Y-109793904D02*
X146252381Y-110593904D01*
X146252381Y-110593904D02*
X146100000Y-110022476D01*
X146100000Y-110022476D02*
X145947619Y-110593904D01*
X145947619Y-110593904D02*
X145757143Y-109793904D01*
X145033333Y-110593904D02*
X145490476Y-110593904D01*
X145261904Y-110593904D02*
X145261904Y-109793904D01*
X145261904Y-109793904D02*
X145338095Y-109908190D01*
X145338095Y-109908190D02*
X145414285Y-109984380D01*
X145414285Y-109984380D02*
X145490476Y-110022476D01*
%TO.C,R5*%
X134793904Y-104366667D02*
X134412952Y-104100000D01*
X134793904Y-103909524D02*
X133993904Y-103909524D01*
X133993904Y-103909524D02*
X133993904Y-104214286D01*
X133993904Y-104214286D02*
X134032000Y-104290476D01*
X134032000Y-104290476D02*
X134070095Y-104328571D01*
X134070095Y-104328571D02*
X134146285Y-104366667D01*
X134146285Y-104366667D02*
X134260571Y-104366667D01*
X134260571Y-104366667D02*
X134336761Y-104328571D01*
X134336761Y-104328571D02*
X134374857Y-104290476D01*
X134374857Y-104290476D02*
X134412952Y-104214286D01*
X134412952Y-104214286D02*
X134412952Y-103909524D01*
X133993904Y-105090476D02*
X133993904Y-104709524D01*
X133993904Y-104709524D02*
X134374857Y-104671428D01*
X134374857Y-104671428D02*
X134336761Y-104709524D01*
X134336761Y-104709524D02*
X134298666Y-104785714D01*
X134298666Y-104785714D02*
X134298666Y-104976190D01*
X134298666Y-104976190D02*
X134336761Y-105052381D01*
X134336761Y-105052381D02*
X134374857Y-105090476D01*
X134374857Y-105090476D02*
X134451047Y-105128571D01*
X134451047Y-105128571D02*
X134641523Y-105128571D01*
X134641523Y-105128571D02*
X134717714Y-105090476D01*
X134717714Y-105090476D02*
X134755809Y-105052381D01*
X134755809Y-105052381D02*
X134793904Y-104976190D01*
X134793904Y-104976190D02*
X134793904Y-104785714D01*
X134793904Y-104785714D02*
X134755809Y-104709524D01*
X134755809Y-104709524D02*
X134717714Y-104671428D01*
%TO.C,D1*%
X151190475Y-102393904D02*
X151190475Y-101593904D01*
X151190475Y-101593904D02*
X150999999Y-101593904D01*
X150999999Y-101593904D02*
X150885713Y-101632000D01*
X150885713Y-101632000D02*
X150809523Y-101708190D01*
X150809523Y-101708190D02*
X150771428Y-101784380D01*
X150771428Y-101784380D02*
X150733332Y-101936761D01*
X150733332Y-101936761D02*
X150733332Y-102051047D01*
X150733332Y-102051047D02*
X150771428Y-102203428D01*
X150771428Y-102203428D02*
X150809523Y-102279619D01*
X150809523Y-102279619D02*
X150885713Y-102355809D01*
X150885713Y-102355809D02*
X150999999Y-102393904D01*
X150999999Y-102393904D02*
X151190475Y-102393904D01*
X149971428Y-102393904D02*
X150428571Y-102393904D01*
X150199999Y-102393904D02*
X150199999Y-101593904D01*
X150199999Y-101593904D02*
X150276190Y-101708190D01*
X150276190Y-101708190D02*
X150352380Y-101784380D01*
X150352380Y-101784380D02*
X150428571Y-101822476D01*
%TO.C,R3*%
X135933332Y-97393904D02*
X136199999Y-97012952D01*
X136390475Y-97393904D02*
X136390475Y-96593904D01*
X136390475Y-96593904D02*
X136085713Y-96593904D01*
X136085713Y-96593904D02*
X136009523Y-96632000D01*
X136009523Y-96632000D02*
X135971428Y-96670095D01*
X135971428Y-96670095D02*
X135933332Y-96746285D01*
X135933332Y-96746285D02*
X135933332Y-96860571D01*
X135933332Y-96860571D02*
X135971428Y-96936761D01*
X135971428Y-96936761D02*
X136009523Y-96974857D01*
X136009523Y-96974857D02*
X136085713Y-97012952D01*
X136085713Y-97012952D02*
X136390475Y-97012952D01*
X135666666Y-96593904D02*
X135171428Y-96593904D01*
X135171428Y-96593904D02*
X135438094Y-96898666D01*
X135438094Y-96898666D02*
X135323809Y-96898666D01*
X135323809Y-96898666D02*
X135247618Y-96936761D01*
X135247618Y-96936761D02*
X135209523Y-96974857D01*
X135209523Y-96974857D02*
X135171428Y-97051047D01*
X135171428Y-97051047D02*
X135171428Y-97241523D01*
X135171428Y-97241523D02*
X135209523Y-97317714D01*
X135209523Y-97317714D02*
X135247618Y-97355809D01*
X135247618Y-97355809D02*
X135323809Y-97393904D01*
X135323809Y-97393904D02*
X135552380Y-97393904D01*
X135552380Y-97393904D02*
X135628571Y-97355809D01*
X135628571Y-97355809D02*
X135666666Y-97317714D01*
%TO.C,BT1*%
X171374857Y-93471428D02*
X171412952Y-93585714D01*
X171412952Y-93585714D02*
X171451047Y-93623809D01*
X171451047Y-93623809D02*
X171527238Y-93661905D01*
X171527238Y-93661905D02*
X171641523Y-93661905D01*
X171641523Y-93661905D02*
X171717714Y-93623809D01*
X171717714Y-93623809D02*
X171755809Y-93585714D01*
X171755809Y-93585714D02*
X171793904Y-93509524D01*
X171793904Y-93509524D02*
X171793904Y-93204762D01*
X171793904Y-93204762D02*
X170993904Y-93204762D01*
X170993904Y-93204762D02*
X170993904Y-93471428D01*
X170993904Y-93471428D02*
X171032000Y-93547619D01*
X171032000Y-93547619D02*
X171070095Y-93585714D01*
X171070095Y-93585714D02*
X171146285Y-93623809D01*
X171146285Y-93623809D02*
X171222476Y-93623809D01*
X171222476Y-93623809D02*
X171298666Y-93585714D01*
X171298666Y-93585714D02*
X171336761Y-93547619D01*
X171336761Y-93547619D02*
X171374857Y-93471428D01*
X171374857Y-93471428D02*
X171374857Y-93204762D01*
X170993904Y-93890476D02*
X170993904Y-94347619D01*
X171793904Y-94119047D02*
X170993904Y-94119047D01*
X171793904Y-95033333D02*
X171793904Y-94576190D01*
X171793904Y-94804762D02*
X170993904Y-94804762D01*
X170993904Y-94804762D02*
X171108190Y-94728571D01*
X171108190Y-94728571D02*
X171184380Y-94652381D01*
X171184380Y-94652381D02*
X171222476Y-94576190D01*
%TO.C,C1*%
X137970832Y-96317714D02*
X138008928Y-96355809D01*
X138008928Y-96355809D02*
X138123213Y-96393904D01*
X138123213Y-96393904D02*
X138199404Y-96393904D01*
X138199404Y-96393904D02*
X138313690Y-96355809D01*
X138313690Y-96355809D02*
X138389880Y-96279619D01*
X138389880Y-96279619D02*
X138427975Y-96203428D01*
X138427975Y-96203428D02*
X138466071Y-96051047D01*
X138466071Y-96051047D02*
X138466071Y-95936761D01*
X138466071Y-95936761D02*
X138427975Y-95784380D01*
X138427975Y-95784380D02*
X138389880Y-95708190D01*
X138389880Y-95708190D02*
X138313690Y-95632000D01*
X138313690Y-95632000D02*
X138199404Y-95593904D01*
X138199404Y-95593904D02*
X138123213Y-95593904D01*
X138123213Y-95593904D02*
X138008928Y-95632000D01*
X138008928Y-95632000D02*
X137970832Y-95670095D01*
X137208928Y-96393904D02*
X137666071Y-96393904D01*
X137437499Y-96393904D02*
X137437499Y-95593904D01*
X137437499Y-95593904D02*
X137513690Y-95708190D01*
X137513690Y-95708190D02*
X137589880Y-95784380D01*
X137589880Y-95784380D02*
X137666071Y-95822476D01*
%TO.C,C4*%
X145517714Y-106716667D02*
X145555809Y-106678571D01*
X145555809Y-106678571D02*
X145593904Y-106564286D01*
X145593904Y-106564286D02*
X145593904Y-106488095D01*
X145593904Y-106488095D02*
X145555809Y-106373809D01*
X145555809Y-106373809D02*
X145479619Y-106297619D01*
X145479619Y-106297619D02*
X145403428Y-106259524D01*
X145403428Y-106259524D02*
X145251047Y-106221428D01*
X145251047Y-106221428D02*
X145136761Y-106221428D01*
X145136761Y-106221428D02*
X144984380Y-106259524D01*
X144984380Y-106259524D02*
X144908190Y-106297619D01*
X144908190Y-106297619D02*
X144832000Y-106373809D01*
X144832000Y-106373809D02*
X144793904Y-106488095D01*
X144793904Y-106488095D02*
X144793904Y-106564286D01*
X144793904Y-106564286D02*
X144832000Y-106678571D01*
X144832000Y-106678571D02*
X144870095Y-106716667D01*
X145060571Y-107402381D02*
X145593904Y-107402381D01*
X144755809Y-107211905D02*
X145327238Y-107021428D01*
X145327238Y-107021428D02*
X145327238Y-107516667D01*
%TO.C,C5*%
X146917714Y-106866667D02*
X146955809Y-106828571D01*
X146955809Y-106828571D02*
X146993904Y-106714286D01*
X146993904Y-106714286D02*
X146993904Y-106638095D01*
X146993904Y-106638095D02*
X146955809Y-106523809D01*
X146955809Y-106523809D02*
X146879619Y-106447619D01*
X146879619Y-106447619D02*
X146803428Y-106409524D01*
X146803428Y-106409524D02*
X146651047Y-106371428D01*
X146651047Y-106371428D02*
X146536761Y-106371428D01*
X146536761Y-106371428D02*
X146384380Y-106409524D01*
X146384380Y-106409524D02*
X146308190Y-106447619D01*
X146308190Y-106447619D02*
X146232000Y-106523809D01*
X146232000Y-106523809D02*
X146193904Y-106638095D01*
X146193904Y-106638095D02*
X146193904Y-106714286D01*
X146193904Y-106714286D02*
X146232000Y-106828571D01*
X146232000Y-106828571D02*
X146270095Y-106866667D01*
X146193904Y-107590476D02*
X146193904Y-107209524D01*
X146193904Y-107209524D02*
X146574857Y-107171428D01*
X146574857Y-107171428D02*
X146536761Y-107209524D01*
X146536761Y-107209524D02*
X146498666Y-107285714D01*
X146498666Y-107285714D02*
X146498666Y-107476190D01*
X146498666Y-107476190D02*
X146536761Y-107552381D01*
X146536761Y-107552381D02*
X146574857Y-107590476D01*
X146574857Y-107590476D02*
X146651047Y-107628571D01*
X146651047Y-107628571D02*
X146841523Y-107628571D01*
X146841523Y-107628571D02*
X146917714Y-107590476D01*
X146917714Y-107590476D02*
X146955809Y-107552381D01*
X146955809Y-107552381D02*
X146993904Y-107476190D01*
X146993904Y-107476190D02*
X146993904Y-107285714D01*
X146993904Y-107285714D02*
X146955809Y-107209524D01*
X146955809Y-107209524D02*
X146917714Y-107171428D01*
%TO.C,R6*%
X132333332Y-101893904D02*
X132599999Y-101512952D01*
X132790475Y-101893904D02*
X132790475Y-101093904D01*
X132790475Y-101093904D02*
X132485713Y-101093904D01*
X132485713Y-101093904D02*
X132409523Y-101132000D01*
X132409523Y-101132000D02*
X132371428Y-101170095D01*
X132371428Y-101170095D02*
X132333332Y-101246285D01*
X132333332Y-101246285D02*
X132333332Y-101360571D01*
X132333332Y-101360571D02*
X132371428Y-101436761D01*
X132371428Y-101436761D02*
X132409523Y-101474857D01*
X132409523Y-101474857D02*
X132485713Y-101512952D01*
X132485713Y-101512952D02*
X132790475Y-101512952D01*
X131647618Y-101093904D02*
X131799999Y-101093904D01*
X131799999Y-101093904D02*
X131876190Y-101132000D01*
X131876190Y-101132000D02*
X131914285Y-101170095D01*
X131914285Y-101170095D02*
X131990475Y-101284380D01*
X131990475Y-101284380D02*
X132028571Y-101436761D01*
X132028571Y-101436761D02*
X132028571Y-101741523D01*
X132028571Y-101741523D02*
X131990475Y-101817714D01*
X131990475Y-101817714D02*
X131952380Y-101855809D01*
X131952380Y-101855809D02*
X131876190Y-101893904D01*
X131876190Y-101893904D02*
X131723809Y-101893904D01*
X131723809Y-101893904D02*
X131647618Y-101855809D01*
X131647618Y-101855809D02*
X131609523Y-101817714D01*
X131609523Y-101817714D02*
X131571428Y-101741523D01*
X131571428Y-101741523D02*
X131571428Y-101551047D01*
X131571428Y-101551047D02*
X131609523Y-101474857D01*
X131609523Y-101474857D02*
X131647618Y-101436761D01*
X131647618Y-101436761D02*
X131723809Y-101398666D01*
X131723809Y-101398666D02*
X131876190Y-101398666D01*
X131876190Y-101398666D02*
X131952380Y-101436761D01*
X131952380Y-101436761D02*
X131990475Y-101474857D01*
X131990475Y-101474857D02*
X132028571Y-101551047D01*
%TO.C,R7*%
X150093904Y-103866667D02*
X149712952Y-103600000D01*
X150093904Y-103409524D02*
X149293904Y-103409524D01*
X149293904Y-103409524D02*
X149293904Y-103714286D01*
X149293904Y-103714286D02*
X149332000Y-103790476D01*
X149332000Y-103790476D02*
X149370095Y-103828571D01*
X149370095Y-103828571D02*
X149446285Y-103866667D01*
X149446285Y-103866667D02*
X149560571Y-103866667D01*
X149560571Y-103866667D02*
X149636761Y-103828571D01*
X149636761Y-103828571D02*
X149674857Y-103790476D01*
X149674857Y-103790476D02*
X149712952Y-103714286D01*
X149712952Y-103714286D02*
X149712952Y-103409524D01*
X149293904Y-104133333D02*
X149293904Y-104666667D01*
X149293904Y-104666667D02*
X150093904Y-104323809D01*
%TO.C,C7*%
X136133332Y-106217714D02*
X136171428Y-106255809D01*
X136171428Y-106255809D02*
X136285713Y-106293904D01*
X136285713Y-106293904D02*
X136361904Y-106293904D01*
X136361904Y-106293904D02*
X136476190Y-106255809D01*
X136476190Y-106255809D02*
X136552380Y-106179619D01*
X136552380Y-106179619D02*
X136590475Y-106103428D01*
X136590475Y-106103428D02*
X136628571Y-105951047D01*
X136628571Y-105951047D02*
X136628571Y-105836761D01*
X136628571Y-105836761D02*
X136590475Y-105684380D01*
X136590475Y-105684380D02*
X136552380Y-105608190D01*
X136552380Y-105608190D02*
X136476190Y-105532000D01*
X136476190Y-105532000D02*
X136361904Y-105493904D01*
X136361904Y-105493904D02*
X136285713Y-105493904D01*
X136285713Y-105493904D02*
X136171428Y-105532000D01*
X136171428Y-105532000D02*
X136133332Y-105570095D01*
X135866666Y-105493904D02*
X135333332Y-105493904D01*
X135333332Y-105493904D02*
X135676190Y-106293904D01*
%TO.C,R8*%
X125333332Y-103793904D02*
X125599999Y-103412952D01*
X125790475Y-103793904D02*
X125790475Y-102993904D01*
X125790475Y-102993904D02*
X125485713Y-102993904D01*
X125485713Y-102993904D02*
X125409523Y-103032000D01*
X125409523Y-103032000D02*
X125371428Y-103070095D01*
X125371428Y-103070095D02*
X125333332Y-103146285D01*
X125333332Y-103146285D02*
X125333332Y-103260571D01*
X125333332Y-103260571D02*
X125371428Y-103336761D01*
X125371428Y-103336761D02*
X125409523Y-103374857D01*
X125409523Y-103374857D02*
X125485713Y-103412952D01*
X125485713Y-103412952D02*
X125790475Y-103412952D01*
X124876190Y-103336761D02*
X124952380Y-103298666D01*
X124952380Y-103298666D02*
X124990475Y-103260571D01*
X124990475Y-103260571D02*
X125028571Y-103184380D01*
X125028571Y-103184380D02*
X125028571Y-103146285D01*
X125028571Y-103146285D02*
X124990475Y-103070095D01*
X124990475Y-103070095D02*
X124952380Y-103032000D01*
X124952380Y-103032000D02*
X124876190Y-102993904D01*
X124876190Y-102993904D02*
X124723809Y-102993904D01*
X124723809Y-102993904D02*
X124647618Y-103032000D01*
X124647618Y-103032000D02*
X124609523Y-103070095D01*
X124609523Y-103070095D02*
X124571428Y-103146285D01*
X124571428Y-103146285D02*
X124571428Y-103184380D01*
X124571428Y-103184380D02*
X124609523Y-103260571D01*
X124609523Y-103260571D02*
X124647618Y-103298666D01*
X124647618Y-103298666D02*
X124723809Y-103336761D01*
X124723809Y-103336761D02*
X124876190Y-103336761D01*
X124876190Y-103336761D02*
X124952380Y-103374857D01*
X124952380Y-103374857D02*
X124990475Y-103412952D01*
X124990475Y-103412952D02*
X125028571Y-103489142D01*
X125028571Y-103489142D02*
X125028571Y-103641523D01*
X125028571Y-103641523D02*
X124990475Y-103717714D01*
X124990475Y-103717714D02*
X124952380Y-103755809D01*
X124952380Y-103755809D02*
X124876190Y-103793904D01*
X124876190Y-103793904D02*
X124723809Y-103793904D01*
X124723809Y-103793904D02*
X124647618Y-103755809D01*
X124647618Y-103755809D02*
X124609523Y-103717714D01*
X124609523Y-103717714D02*
X124571428Y-103641523D01*
X124571428Y-103641523D02*
X124571428Y-103489142D01*
X124571428Y-103489142D02*
X124609523Y-103412952D01*
X124609523Y-103412952D02*
X124647618Y-103374857D01*
X124647618Y-103374857D02*
X124723809Y-103336761D01*
%TO.C,C2*%
X133633332Y-96417714D02*
X133671428Y-96455809D01*
X133671428Y-96455809D02*
X133785713Y-96493904D01*
X133785713Y-96493904D02*
X133861904Y-96493904D01*
X133861904Y-96493904D02*
X133976190Y-96455809D01*
X133976190Y-96455809D02*
X134052380Y-96379619D01*
X134052380Y-96379619D02*
X134090475Y-96303428D01*
X134090475Y-96303428D02*
X134128571Y-96151047D01*
X134128571Y-96151047D02*
X134128571Y-96036761D01*
X134128571Y-96036761D02*
X134090475Y-95884380D01*
X134090475Y-95884380D02*
X134052380Y-95808190D01*
X134052380Y-95808190D02*
X133976190Y-95732000D01*
X133976190Y-95732000D02*
X133861904Y-95693904D01*
X133861904Y-95693904D02*
X133785713Y-95693904D01*
X133785713Y-95693904D02*
X133671428Y-95732000D01*
X133671428Y-95732000D02*
X133633332Y-95770095D01*
X133328571Y-95770095D02*
X133290475Y-95732000D01*
X133290475Y-95732000D02*
X133214285Y-95693904D01*
X133214285Y-95693904D02*
X133023809Y-95693904D01*
X133023809Y-95693904D02*
X132947618Y-95732000D01*
X132947618Y-95732000D02*
X132909523Y-95770095D01*
X132909523Y-95770095D02*
X132871428Y-95846285D01*
X132871428Y-95846285D02*
X132871428Y-95922476D01*
X132871428Y-95922476D02*
X132909523Y-96036761D01*
X132909523Y-96036761D02*
X133366666Y-96493904D01*
X133366666Y-96493904D02*
X132871428Y-96493904D01*
%TO.C,C3*%
X131833332Y-96417714D02*
X131871428Y-96455809D01*
X131871428Y-96455809D02*
X131985713Y-96493904D01*
X131985713Y-96493904D02*
X132061904Y-96493904D01*
X132061904Y-96493904D02*
X132176190Y-96455809D01*
X132176190Y-96455809D02*
X132252380Y-96379619D01*
X132252380Y-96379619D02*
X132290475Y-96303428D01*
X132290475Y-96303428D02*
X132328571Y-96151047D01*
X132328571Y-96151047D02*
X132328571Y-96036761D01*
X132328571Y-96036761D02*
X132290475Y-95884380D01*
X132290475Y-95884380D02*
X132252380Y-95808190D01*
X132252380Y-95808190D02*
X132176190Y-95732000D01*
X132176190Y-95732000D02*
X132061904Y-95693904D01*
X132061904Y-95693904D02*
X131985713Y-95693904D01*
X131985713Y-95693904D02*
X131871428Y-95732000D01*
X131871428Y-95732000D02*
X131833332Y-95770095D01*
X131566666Y-95693904D02*
X131071428Y-95693904D01*
X131071428Y-95693904D02*
X131338094Y-95998666D01*
X131338094Y-95998666D02*
X131223809Y-95998666D01*
X131223809Y-95998666D02*
X131147618Y-96036761D01*
X131147618Y-96036761D02*
X131109523Y-96074857D01*
X131109523Y-96074857D02*
X131071428Y-96151047D01*
X131071428Y-96151047D02*
X131071428Y-96341523D01*
X131071428Y-96341523D02*
X131109523Y-96417714D01*
X131109523Y-96417714D02*
X131147618Y-96455809D01*
X131147618Y-96455809D02*
X131223809Y-96493904D01*
X131223809Y-96493904D02*
X131452380Y-96493904D01*
X131452380Y-96493904D02*
X131528571Y-96455809D01*
X131528571Y-96455809D02*
X131566666Y-96417714D01*
%TO.C,L1*%
X139933333Y-108593904D02*
X140314285Y-108593904D01*
X140314285Y-108593904D02*
X140314285Y-107793904D01*
X139247619Y-108593904D02*
X139704762Y-108593904D01*
X139476190Y-108593904D02*
X139476190Y-107793904D01*
X139476190Y-107793904D02*
X139552381Y-107908190D01*
X139552381Y-107908190D02*
X139628571Y-107984380D01*
X139628571Y-107984380D02*
X139704762Y-108022476D01*
%TO.C,R4*%
X135333332Y-99693904D02*
X135599999Y-99312952D01*
X135790475Y-99693904D02*
X135790475Y-98893904D01*
X135790475Y-98893904D02*
X135485713Y-98893904D01*
X135485713Y-98893904D02*
X135409523Y-98932000D01*
X135409523Y-98932000D02*
X135371428Y-98970095D01*
X135371428Y-98970095D02*
X135333332Y-99046285D01*
X135333332Y-99046285D02*
X135333332Y-99160571D01*
X135333332Y-99160571D02*
X135371428Y-99236761D01*
X135371428Y-99236761D02*
X135409523Y-99274857D01*
X135409523Y-99274857D02*
X135485713Y-99312952D01*
X135485713Y-99312952D02*
X135790475Y-99312952D01*
X134647618Y-99160571D02*
X134647618Y-99693904D01*
X134838094Y-98855809D02*
X135028571Y-99427238D01*
X135028571Y-99427238D02*
X134533332Y-99427238D01*
%TO.C,Q2*%
X143676190Y-95970095D02*
X143752380Y-95932000D01*
X143752380Y-95932000D02*
X143828571Y-95855809D01*
X143828571Y-95855809D02*
X143942857Y-95741523D01*
X143942857Y-95741523D02*
X144019047Y-95703428D01*
X144019047Y-95703428D02*
X144095238Y-95703428D01*
X144057142Y-95893904D02*
X144133333Y-95855809D01*
X144133333Y-95855809D02*
X144209523Y-95779619D01*
X144209523Y-95779619D02*
X144247619Y-95627238D01*
X144247619Y-95627238D02*
X144247619Y-95360571D01*
X144247619Y-95360571D02*
X144209523Y-95208190D01*
X144209523Y-95208190D02*
X144133333Y-95132000D01*
X144133333Y-95132000D02*
X144057142Y-95093904D01*
X144057142Y-95093904D02*
X143904761Y-95093904D01*
X143904761Y-95093904D02*
X143828571Y-95132000D01*
X143828571Y-95132000D02*
X143752380Y-95208190D01*
X143752380Y-95208190D02*
X143714285Y-95360571D01*
X143714285Y-95360571D02*
X143714285Y-95627238D01*
X143714285Y-95627238D02*
X143752380Y-95779619D01*
X143752380Y-95779619D02*
X143828571Y-95855809D01*
X143828571Y-95855809D02*
X143904761Y-95893904D01*
X143904761Y-95893904D02*
X144057142Y-95893904D01*
X143409524Y-95170095D02*
X143371428Y-95132000D01*
X143371428Y-95132000D02*
X143295238Y-95093904D01*
X143295238Y-95093904D02*
X143104762Y-95093904D01*
X143104762Y-95093904D02*
X143028571Y-95132000D01*
X143028571Y-95132000D02*
X142990476Y-95170095D01*
X142990476Y-95170095D02*
X142952381Y-95246285D01*
X142952381Y-95246285D02*
X142952381Y-95322476D01*
X142952381Y-95322476D02*
X142990476Y-95436761D01*
X142990476Y-95436761D02*
X143447619Y-95893904D01*
X143447619Y-95893904D02*
X142952381Y-95893904D01*
%TO.C,TP3*%
X141109523Y-95893904D02*
X140652380Y-95893904D01*
X140880952Y-96693904D02*
X140880952Y-95893904D01*
X140385713Y-96693904D02*
X140385713Y-95893904D01*
X140385713Y-95893904D02*
X140080951Y-95893904D01*
X140080951Y-95893904D02*
X140004761Y-95932000D01*
X140004761Y-95932000D02*
X139966666Y-95970095D01*
X139966666Y-95970095D02*
X139928570Y-96046285D01*
X139928570Y-96046285D02*
X139928570Y-96160571D01*
X139928570Y-96160571D02*
X139966666Y-96236761D01*
X139966666Y-96236761D02*
X140004761Y-96274857D01*
X140004761Y-96274857D02*
X140080951Y-96312952D01*
X140080951Y-96312952D02*
X140385713Y-96312952D01*
X139661904Y-95893904D02*
X139166666Y-95893904D01*
X139166666Y-95893904D02*
X139433332Y-96198666D01*
X139433332Y-96198666D02*
X139319047Y-96198666D01*
X139319047Y-96198666D02*
X139242856Y-96236761D01*
X139242856Y-96236761D02*
X139204761Y-96274857D01*
X139204761Y-96274857D02*
X139166666Y-96351047D01*
X139166666Y-96351047D02*
X139166666Y-96541523D01*
X139166666Y-96541523D02*
X139204761Y-96617714D01*
X139204761Y-96617714D02*
X139242856Y-96655809D01*
X139242856Y-96655809D02*
X139319047Y-96693904D01*
X139319047Y-96693904D02*
X139547618Y-96693904D01*
X139547618Y-96693904D02*
X139623809Y-96655809D01*
X139623809Y-96655809D02*
X139661904Y-96617714D01*
%TO.C,R9*%
X125333332Y-105693904D02*
X125599999Y-105312952D01*
X125790475Y-105693904D02*
X125790475Y-104893904D01*
X125790475Y-104893904D02*
X125485713Y-104893904D01*
X125485713Y-104893904D02*
X125409523Y-104932000D01*
X125409523Y-104932000D02*
X125371428Y-104970095D01*
X125371428Y-104970095D02*
X125333332Y-105046285D01*
X125333332Y-105046285D02*
X125333332Y-105160571D01*
X125333332Y-105160571D02*
X125371428Y-105236761D01*
X125371428Y-105236761D02*
X125409523Y-105274857D01*
X125409523Y-105274857D02*
X125485713Y-105312952D01*
X125485713Y-105312952D02*
X125790475Y-105312952D01*
X124952380Y-105693904D02*
X124799999Y-105693904D01*
X124799999Y-105693904D02*
X124723809Y-105655809D01*
X124723809Y-105655809D02*
X124685713Y-105617714D01*
X124685713Y-105617714D02*
X124609523Y-105503428D01*
X124609523Y-105503428D02*
X124571428Y-105351047D01*
X124571428Y-105351047D02*
X124571428Y-105046285D01*
X124571428Y-105046285D02*
X124609523Y-104970095D01*
X124609523Y-104970095D02*
X124647618Y-104932000D01*
X124647618Y-104932000D02*
X124723809Y-104893904D01*
X124723809Y-104893904D02*
X124876190Y-104893904D01*
X124876190Y-104893904D02*
X124952380Y-104932000D01*
X124952380Y-104932000D02*
X124990475Y-104970095D01*
X124990475Y-104970095D02*
X125028571Y-105046285D01*
X125028571Y-105046285D02*
X125028571Y-105236761D01*
X125028571Y-105236761D02*
X124990475Y-105312952D01*
X124990475Y-105312952D02*
X124952380Y-105351047D01*
X124952380Y-105351047D02*
X124876190Y-105389142D01*
X124876190Y-105389142D02*
X124723809Y-105389142D01*
X124723809Y-105389142D02*
X124647618Y-105351047D01*
X124647618Y-105351047D02*
X124609523Y-105312952D01*
X124609523Y-105312952D02*
X124571428Y-105236761D01*
%TO.C,R1*%
X137993904Y-102966667D02*
X137612952Y-102700000D01*
X137993904Y-102509524D02*
X137193904Y-102509524D01*
X137193904Y-102509524D02*
X137193904Y-102814286D01*
X137193904Y-102814286D02*
X137232000Y-102890476D01*
X137232000Y-102890476D02*
X137270095Y-102928571D01*
X137270095Y-102928571D02*
X137346285Y-102966667D01*
X137346285Y-102966667D02*
X137460571Y-102966667D01*
X137460571Y-102966667D02*
X137536761Y-102928571D01*
X137536761Y-102928571D02*
X137574857Y-102890476D01*
X137574857Y-102890476D02*
X137612952Y-102814286D01*
X137612952Y-102814286D02*
X137612952Y-102509524D01*
X137993904Y-103728571D02*
X137993904Y-103271428D01*
X137993904Y-103500000D02*
X137193904Y-103500000D01*
X137193904Y-103500000D02*
X137308190Y-103423809D01*
X137308190Y-103423809D02*
X137384380Y-103347619D01*
X137384380Y-103347619D02*
X137422476Y-103271428D01*
%TO.C,TP5*%
X136409523Y-108993904D02*
X135952380Y-108993904D01*
X136180952Y-109793904D02*
X136180952Y-108993904D01*
X135685713Y-109793904D02*
X135685713Y-108993904D01*
X135685713Y-108993904D02*
X135380951Y-108993904D01*
X135380951Y-108993904D02*
X135304761Y-109032000D01*
X135304761Y-109032000D02*
X135266666Y-109070095D01*
X135266666Y-109070095D02*
X135228570Y-109146285D01*
X135228570Y-109146285D02*
X135228570Y-109260571D01*
X135228570Y-109260571D02*
X135266666Y-109336761D01*
X135266666Y-109336761D02*
X135304761Y-109374857D01*
X135304761Y-109374857D02*
X135380951Y-109412952D01*
X135380951Y-109412952D02*
X135685713Y-109412952D01*
X134504761Y-108993904D02*
X134885713Y-108993904D01*
X134885713Y-108993904D02*
X134923809Y-109374857D01*
X134923809Y-109374857D02*
X134885713Y-109336761D01*
X134885713Y-109336761D02*
X134809523Y-109298666D01*
X134809523Y-109298666D02*
X134619047Y-109298666D01*
X134619047Y-109298666D02*
X134542856Y-109336761D01*
X134542856Y-109336761D02*
X134504761Y-109374857D01*
X134504761Y-109374857D02*
X134466666Y-109451047D01*
X134466666Y-109451047D02*
X134466666Y-109641523D01*
X134466666Y-109641523D02*
X134504761Y-109717714D01*
X134504761Y-109717714D02*
X134542856Y-109755809D01*
X134542856Y-109755809D02*
X134619047Y-109793904D01*
X134619047Y-109793904D02*
X134809523Y-109793904D01*
X134809523Y-109793904D02*
X134885713Y-109755809D01*
X134885713Y-109755809D02*
X134923809Y-109717714D01*
D11*
%TO.C,TP4*%
X145800000Y-101600000D02*
G75*
G03*
X145800000Y-101600000I-1200000J0D01*
G01*
%TO.C,R2*%
X136020000Y-100353641D02*
X136020000Y-100046359D01*
X136780000Y-100353641D02*
X136780000Y-100046359D01*
%TO.C,C6*%
X139610000Y-102659420D02*
X139610000Y-102940580D01*
X138590000Y-102659420D02*
X138590000Y-102940580D01*
%TO.C,TP1*%
X130600000Y-98700000D02*
G75*
G03*
X130600000Y-98700000I-1200000J0D01*
G01*
%TO.C,Q1*%
X130860000Y-101500000D02*
X130860000Y-102900000D01*
X128540000Y-102900000D02*
X128540000Y-101000000D01*
%TO.C,TP2*%
X142800000Y-101800000D02*
G75*
G03*
X142800000Y-101800000I-1200000J0D01*
G01*
%TO.C,U1*%
X142043750Y-103515000D02*
X141243750Y-103515000D01*
X142043750Y-103515000D02*
X142843750Y-103515000D01*
X142043750Y-106635000D02*
X140243750Y-106635000D01*
X142043750Y-106635000D02*
X142843750Y-106635000D01*
%TO.C,SW1*%
X147660000Y-106460000D02*
X147660000Y-107770000D01*
X147660000Y-109370000D02*
X147660000Y-110680000D01*
X149260000Y-107935000D02*
X152880000Y-107935000D01*
X149260000Y-109205000D02*
X149260000Y-107935000D01*
X151673333Y-107935000D02*
X151673333Y-109205000D01*
X152880000Y-107935000D02*
X152880000Y-109205000D01*
X152880000Y-108055000D02*
X151673333Y-108055000D01*
X152880000Y-108175000D02*
X151673333Y-108175000D01*
X152880000Y-108295000D02*
X151673333Y-108295000D01*
X152880000Y-108415000D02*
X151673333Y-108415000D01*
X152880000Y-108535000D02*
X151673333Y-108535000D01*
X152880000Y-108655000D02*
X151673333Y-108655000D01*
X152880000Y-108775000D02*
X151673333Y-108775000D01*
X152880000Y-108895000D02*
X151673333Y-108895000D01*
X152880000Y-109015000D02*
X151673333Y-109015000D01*
X152880000Y-109135000D02*
X151673333Y-109135000D01*
X152880000Y-109205000D02*
X149260000Y-109205000D01*
X154480000Y-106460000D02*
X147660000Y-106460000D01*
X154480000Y-106460000D02*
X154480000Y-107770000D01*
X154480000Y-109370000D02*
X154480000Y-110680000D01*
X154480000Y-110680000D02*
X147660000Y-110680000D01*
X154720000Y-106220000D02*
X153337000Y-106220000D01*
X154720000Y-106220000D02*
X154720000Y-107603000D01*
%TO.C,R5*%
X134020000Y-102653641D02*
X134020000Y-102346359D01*
X134780000Y-102653641D02*
X134780000Y-102346359D01*
%TO.C,D1*%
X146320000Y-95860000D02*
X149520000Y-95860000D01*
%TO.C,R3*%
X136053641Y-98530000D02*
X135746359Y-98530000D01*
X136053641Y-97770000D02*
X135746359Y-97770000D01*
%TO.C,BT1*%
X163730000Y-83220000D02*
X167680000Y-84660000D01*
X163100000Y-83220000D02*
X163730000Y-83220000D01*
X154640000Y-83220000D02*
X157100000Y-83220000D01*
X152560000Y-85300000D02*
X154640000Y-83220000D01*
X152560000Y-88800000D02*
X152560000Y-85300000D01*
X152560000Y-102700000D02*
X152560000Y-99200000D01*
X152560000Y-102700000D02*
X154640000Y-104780000D01*
X163730000Y-104780000D02*
X167680000Y-103340000D01*
X163100000Y-104780000D02*
X163730000Y-104780000D01*
X154640000Y-104780000D02*
X157100000Y-104780000D01*
X168666530Y-87996646D02*
G75*
G03*
X167680000Y-84660000I-1716531J1306646D01*
G01*
X167688169Y-103325243D02*
G75*
G03*
X168649999Y-100000000I-738169J2015243D01*
G01*
%TO.C,C1*%
X137290000Y-98240580D02*
X137290000Y-97959420D01*
X138310000Y-98240580D02*
X138310000Y-97959420D01*
%TO.C,C4*%
X145483750Y-104459420D02*
X145483750Y-104740580D01*
X144463750Y-104459420D02*
X144463750Y-104740580D01*
%TO.C,C5*%
X147143750Y-104489420D02*
X147143750Y-104770580D01*
X146123750Y-104489420D02*
X146123750Y-104770580D01*
%TO.C,R6*%
X132046359Y-100020000D02*
X132353641Y-100020000D01*
X132046359Y-100780000D02*
X132353641Y-100780000D01*
%TO.C,R7*%
X148822500Y-104362742D02*
X148822500Y-104837258D01*
X147777500Y-104362742D02*
X147777500Y-104837258D01*
%TO.C,C7*%
X136510000Y-103459420D02*
X136510000Y-103740580D01*
X135490000Y-103459420D02*
X135490000Y-103740580D01*
%TO.C,R8*%
X126420000Y-103553641D02*
X126420000Y-103246359D01*
X127180000Y-103553641D02*
X127180000Y-103246359D01*
%TO.C,C2*%
X133190000Y-98240580D02*
X133190000Y-97959420D01*
X134210000Y-98240580D02*
X134210000Y-97959420D01*
%TO.C,C3*%
X131390000Y-98240580D02*
X131390000Y-97959420D01*
X132410000Y-98240580D02*
X132410000Y-97959420D01*
%TO.C,L1*%
X142871252Y-109400000D02*
X142348748Y-109400000D01*
X142871252Y-107180000D02*
X142348748Y-107180000D01*
%TO.C,R4*%
X134353641Y-100780000D02*
X134046359Y-100780000D01*
X134353641Y-100020000D02*
X134046359Y-100020000D01*
%TO.C,Q2*%
X143700000Y-96340000D02*
X142900000Y-96340000D01*
X143700000Y-96340000D02*
X144500000Y-96340000D01*
X143700000Y-99460000D02*
X141900000Y-99460000D01*
X143700000Y-99460000D02*
X144500000Y-99460000D01*
%TO.C,TP3*%
X141300000Y-98100000D02*
G75*
G03*
X141300000Y-98100000I-1200000J0D01*
G01*
%TO.C,R9*%
X126420000Y-105553641D02*
X126420000Y-105246359D01*
X127180000Y-105553641D02*
X127180000Y-105246359D01*
%TO.C,R1*%
X137220000Y-101453641D02*
X137220000Y-101146359D01*
X137980000Y-101453641D02*
X137980000Y-101146359D01*
%TO.C,TP5*%
X138700000Y-107600000D02*
G75*
G03*
X138700000Y-107600000I-1200000J0D01*
G01*
%TD*%
M02*
