%TF.GenerationSoftware,KiCad,Pcbnew,8.0.1*%
%TF.CreationDate,2024-09-10T16:48:50-04:00*%
%TF.ProjectId,blinkenbrain,626c696e-6b65-46e6-9272-61696e2e6b69,B*%
%TF.SameCoordinates,Original*%
%TF.FileFunction,Paste,Bot*%
%TF.FilePolarity,Positive*%
%FSLAX46Y46*%
G04 Gerber Fmt 4.6, Leading zero omitted, Abs format (unit mm)*
G04 Created by KiCad (PCBNEW 8.0.1) date 2024-09-10 16:48:50*
%MOMM*%
%LPD*%
G01*
G04 APERTURE LIST*
G04 Aperture macros list*
%AMRoundRect*
0 Rectangle with rounded corners*
0 $1 Rounding radius*
0 $2 $3 $4 $5 $6 $7 $8 $9 X,Y pos of 4 corners*
0 Add a 4 corners polygon primitive as box body*
4,1,4,$2,$3,$4,$5,$6,$7,$8,$9,$2,$3,0*
0 Add four circle primitives for the rounded corners*
1,1,$1+$1,$2,$3*
1,1,$1+$1,$4,$5*
1,1,$1+$1,$6,$7*
1,1,$1+$1,$8,$9*
0 Add four rect primitives between the rounded corners*
20,1,$1+$1,$2,$3,$4,$5,0*
20,1,$1+$1,$4,$5,$6,$7,0*
20,1,$1+$1,$6,$7,$8,$9,0*
20,1,$1+$1,$8,$9,$2,$3,0*%
G04 Aperture macros list end*
%ADD10RoundRect,0.135000X0.185000X-0.135000X0.185000X0.135000X-0.185000X0.135000X-0.185000X-0.135000X0*%
%ADD11R,5.080000X1.550000*%
%ADD12R,0.700000X0.450000*%
%ADD13R,1.600000X1.100000*%
%ADD14RoundRect,0.200000X-0.275000X0.200000X-0.275000X-0.200000X0.275000X-0.200000X0.275000X0.200000X0*%
%ADD15RoundRect,0.225000X0.250000X-0.225000X0.250000X0.225000X-0.250000X0.225000X-0.250000X-0.225000X0*%
%ADD16RoundRect,0.250000X0.375000X0.850000X-0.375000X0.850000X-0.375000X-0.850000X0.375000X-0.850000X0*%
%ADD17RoundRect,0.225000X-0.250000X0.225000X-0.250000X-0.225000X0.250000X-0.225000X0.250000X0.225000X0*%
%ADD18R,1.200000X1.200000*%
%ADD19R,1.500000X1.600000*%
%ADD20R,2.600000X1.400000*%
%ADD21RoundRect,0.135000X0.135000X0.185000X-0.135000X0.185000X-0.135000X-0.185000X0.135000X-0.185000X0*%
%ADD22R,0.400000X0.650000*%
%ADD23RoundRect,0.135000X-0.135000X-0.185000X0.135000X-0.185000X0.135000X0.185000X-0.135000X0.185000X0*%
%ADD24RoundRect,0.150000X-0.512500X-0.150000X0.512500X-0.150000X0.512500X0.150000X-0.512500X0.150000X0*%
G04 APERTURE END LIST*
D10*
%TO.C,R2*%
X228219378Y-301186270D03*
X228219378Y-300166270D03*
%TD*%
D11*
%TO.C,BT1*%
X181919378Y-223351270D03*
X181919378Y-245601270D03*
%TD*%
D12*
%TO.C,Q2*%
X94519378Y-359026270D03*
X94519378Y-357726270D03*
X96519378Y-358376270D03*
%TD*%
%TO.C,Q2*%
X94519378Y-299026270D03*
X94519378Y-297726270D03*
X96519378Y-298376270D03*
%TD*%
D10*
%TO.C,R9*%
X288619378Y-306386270D03*
X288619378Y-305366270D03*
%TD*%
D13*
%TO.C,SW1*%
X106699378Y-249046270D03*
X99079378Y-249046270D03*
%TD*%
D14*
%TO.C,R7*%
X100119378Y-184251270D03*
X100119378Y-185901270D03*
%TD*%
D15*
%TO.C,C2*%
X155519378Y-359351270D03*
X155519378Y-357801270D03*
%TD*%
D16*
%TO.C,L1*%
X95504378Y-248766270D03*
X93354378Y-248766270D03*
%TD*%
D15*
%TO.C,C1*%
X159619378Y-239351270D03*
X159619378Y-237801270D03*
%TD*%
D10*
%TO.C,R1*%
X89419378Y-182286270D03*
X89419378Y-181266270D03*
%TD*%
D14*
%TO.C,R7*%
X100119378Y-364251270D03*
X100119378Y-365901270D03*
%TD*%
D17*
%TO.C,C6*%
X90919378Y-182501270D03*
X90919378Y-184051270D03*
%TD*%
D18*
%TO.C,RV1*%
X80650668Y-129774971D03*
D19*
X83900668Y-128774971D03*
D18*
X80650668Y-127774971D03*
%TD*%
D10*
%TO.C,R5*%
X296219378Y-243486270D03*
X296219378Y-242466270D03*
%TD*%
D15*
%TO.C,C3*%
X83719378Y-239351270D03*
X83719378Y-237801270D03*
%TD*%
D20*
%TO.C,D1*%
X239739378Y-297236270D03*
X239739378Y-302436270D03*
%TD*%
D17*
%TO.C,C5*%
X98784418Y-125929971D03*
X98784418Y-127479971D03*
%TD*%
D11*
%TO.C,BT1*%
X251919378Y-223351270D03*
X251919378Y-245601270D03*
%TD*%
D16*
%TO.C,L1*%
X305504378Y-368766270D03*
X303354378Y-368766270D03*
%TD*%
D18*
%TO.C,RV1*%
X220319378Y-248176270D03*
D19*
X223569378Y-247176270D03*
D18*
X220319378Y-246176270D03*
%TD*%
D21*
%TO.C,R4*%
X296529378Y-360876270D03*
X295509378Y-360876270D03*
%TD*%
D10*
%TO.C,R1*%
X229419378Y-302286270D03*
X229419378Y-301266270D03*
%TD*%
D16*
%TO.C,L1*%
X235504378Y-188766270D03*
X233354378Y-188766270D03*
%TD*%
D13*
%TO.C,SW1*%
X316699378Y-249046270D03*
X309079378Y-249046270D03*
%TD*%
%TO.C,SW1*%
X246699378Y-189046270D03*
X239079378Y-189046270D03*
%TD*%
D10*
%TO.C,R8*%
X288619378Y-244386270D03*
X288619378Y-243366270D03*
%TD*%
D14*
%TO.C,R7*%
X100450668Y-125849971D03*
X100450668Y-127499971D03*
%TD*%
D11*
%TO.C,BT1*%
X252250668Y-104949971D03*
X252250668Y-127199971D03*
%TD*%
D22*
%TO.C,Q1*%
X80869378Y-241726270D03*
X81519378Y-241726270D03*
X82169378Y-241726270D03*
X82169378Y-243626270D03*
X81519378Y-243626270D03*
X80869378Y-243626270D03*
%TD*%
D14*
%TO.C,R7*%
X170450668Y-125849971D03*
X170450668Y-127499971D03*
%TD*%
D15*
%TO.C,C1*%
X89619378Y-179351270D03*
X89619378Y-177801270D03*
%TD*%
D10*
%TO.C,R9*%
X148619378Y-246386270D03*
X148619378Y-245366270D03*
%TD*%
D17*
%TO.C,C4*%
X236793128Y-244301270D03*
X236793128Y-245851270D03*
%TD*%
%TO.C,C4*%
X96793128Y-244301270D03*
X96793128Y-245851270D03*
%TD*%
D20*
%TO.C,D1*%
X309739378Y-177236270D03*
X309739378Y-182436270D03*
%TD*%
D10*
%TO.C,R5*%
X86219378Y-363486270D03*
X86219378Y-362466270D03*
%TD*%
D17*
%TO.C,C7*%
X87819378Y-303301270D03*
X87819378Y-304851270D03*
%TD*%
D21*
%TO.C,R4*%
X156860668Y-122474971D03*
X155840668Y-122474971D03*
%TD*%
D14*
%TO.C,R7*%
X240119378Y-244251270D03*
X240119378Y-245901270D03*
%TD*%
D23*
%TO.C,R6*%
X293509378Y-240876270D03*
X294529378Y-240876270D03*
%TD*%
D21*
%TO.C,R3*%
X158229378Y-178626270D03*
X157209378Y-178626270D03*
%TD*%
%TO.C,R4*%
X156529378Y-360876270D03*
X155509378Y-360876270D03*
%TD*%
D23*
%TO.C,R6*%
X223509378Y-180876270D03*
X224529378Y-180876270D03*
%TD*%
D20*
%TO.C,D1*%
X239739378Y-357236270D03*
X239739378Y-362436270D03*
%TD*%
D23*
%TO.C,R6*%
X83840668Y-122474971D03*
X84860668Y-122474971D03*
%TD*%
D16*
%TO.C,L1*%
X165504378Y-308766270D03*
X163354378Y-308766270D03*
%TD*%
%TO.C,L1*%
X305504378Y-248766270D03*
X303354378Y-248766270D03*
%TD*%
D10*
%TO.C,R2*%
X88219378Y-361186270D03*
X88219378Y-360166270D03*
%TD*%
D13*
%TO.C,SW1*%
X107030668Y-130644971D03*
X99410668Y-130644971D03*
%TD*%
D10*
%TO.C,R8*%
X148619378Y-304386270D03*
X148619378Y-303366270D03*
%TD*%
%TO.C,R2*%
X88550668Y-122784971D03*
X88550668Y-121764971D03*
%TD*%
D22*
%TO.C,Q1*%
X290869378Y-301726270D03*
X291519378Y-301726270D03*
X292169378Y-301726270D03*
X292169378Y-303626270D03*
X291519378Y-303626270D03*
X290869378Y-303626270D03*
%TD*%
D15*
%TO.C,C2*%
X225850668Y-120949971D03*
X225850668Y-119399971D03*
%TD*%
D23*
%TO.C,R6*%
X83509378Y-300876270D03*
X84529378Y-300876270D03*
%TD*%
D10*
%TO.C,R2*%
X228219378Y-361186270D03*
X228219378Y-360166270D03*
%TD*%
D14*
%TO.C,R7*%
X310119378Y-244251270D03*
X310119378Y-245901270D03*
%TD*%
D15*
%TO.C,C3*%
X153719378Y-239351270D03*
X153719378Y-237801270D03*
%TD*%
%TO.C,C2*%
X155519378Y-179351270D03*
X155519378Y-177801270D03*
%TD*%
D24*
%TO.C,U1*%
X92725628Y-306501270D03*
X92725628Y-305551270D03*
X92725628Y-304601270D03*
X95000628Y-304601270D03*
X95000628Y-306501270D03*
%TD*%
D21*
%TO.C,R4*%
X86860668Y-122474971D03*
X85840668Y-122474971D03*
%TD*%
D17*
%TO.C,C5*%
X168453128Y-244331270D03*
X168453128Y-245881270D03*
%TD*%
D10*
%TO.C,R9*%
X288950668Y-127984971D03*
X288950668Y-126964971D03*
%TD*%
D24*
%TO.C,U1*%
X163056918Y-128099971D03*
X163056918Y-127149971D03*
X163056918Y-126199971D03*
X165331918Y-126199971D03*
X165331918Y-128099971D03*
%TD*%
D10*
%TO.C,R5*%
X296219378Y-183486270D03*
X296219378Y-182466270D03*
%TD*%
D11*
%TO.C,BT1*%
X182250668Y-104949971D03*
X182250668Y-127199971D03*
%TD*%
D13*
%TO.C,SW1*%
X176699378Y-309046270D03*
X169079378Y-309046270D03*
%TD*%
%TO.C,SW1*%
X106699378Y-309046270D03*
X99079378Y-309046270D03*
%TD*%
D20*
%TO.C,D1*%
X169739378Y-237236270D03*
X169739378Y-242436270D03*
%TD*%
D22*
%TO.C,Q1*%
X220869378Y-361726270D03*
X221519378Y-361726270D03*
X222169378Y-361726270D03*
X222169378Y-363626270D03*
X221519378Y-363626270D03*
X220869378Y-363626270D03*
%TD*%
D21*
%TO.C,R3*%
X298229378Y-298626270D03*
X297209378Y-298626270D03*
%TD*%
D13*
%TO.C,SW1*%
X176699378Y-189046270D03*
X169079378Y-189046270D03*
%TD*%
D11*
%TO.C,BT1*%
X321919378Y-283351270D03*
X321919378Y-305601270D03*
%TD*%
D10*
%TO.C,R9*%
X148619378Y-366386270D03*
X148619378Y-365366270D03*
%TD*%
%TO.C,R9*%
X78619378Y-306386270D03*
X78619378Y-305366270D03*
%TD*%
%TO.C,R2*%
X158550668Y-122784971D03*
X158550668Y-121764971D03*
%TD*%
D16*
%TO.C,L1*%
X235504378Y-368766270D03*
X233354378Y-368766270D03*
%TD*%
%TO.C,L1*%
X305504378Y-308766270D03*
X303354378Y-308766270D03*
%TD*%
D17*
%TO.C,C7*%
X87819378Y-243301270D03*
X87819378Y-244851270D03*
%TD*%
D24*
%TO.C,U1*%
X233056918Y-128099971D03*
X233056918Y-127149971D03*
X233056918Y-126199971D03*
X235331918Y-126199971D03*
X235331918Y-128099971D03*
%TD*%
D10*
%TO.C,R2*%
X88219378Y-241186270D03*
X88219378Y-240166270D03*
%TD*%
D17*
%TO.C,C4*%
X236793128Y-304301270D03*
X236793128Y-305851270D03*
%TD*%
D18*
%TO.C,RV1*%
X290319378Y-188176270D03*
D19*
X293569378Y-187176270D03*
D18*
X290319378Y-186176270D03*
%TD*%
D20*
%TO.C,D1*%
X239739378Y-237236270D03*
X239739378Y-242436270D03*
%TD*%
D10*
%TO.C,R9*%
X78619378Y-246386270D03*
X78619378Y-245366270D03*
%TD*%
%TO.C,R5*%
X226219378Y-243486270D03*
X226219378Y-242466270D03*
%TD*%
%TO.C,R1*%
X89419378Y-302286270D03*
X89419378Y-301266270D03*
%TD*%
%TO.C,R2*%
X228550668Y-122784971D03*
X228550668Y-121764971D03*
%TD*%
D17*
%TO.C,C6*%
X161250668Y-124099971D03*
X161250668Y-125649971D03*
%TD*%
D22*
%TO.C,Q1*%
X150869378Y-241726270D03*
X151519378Y-241726270D03*
X152169378Y-241726270D03*
X152169378Y-243626270D03*
X151519378Y-243626270D03*
X150869378Y-243626270D03*
%TD*%
%TO.C,Q1*%
X150869378Y-361726270D03*
X151519378Y-361726270D03*
X152169378Y-361726270D03*
X152169378Y-363626270D03*
X151519378Y-363626270D03*
X150869378Y-363626270D03*
%TD*%
D12*
%TO.C,Q2*%
X234519378Y-299026270D03*
X234519378Y-297726270D03*
X236519378Y-298376270D03*
%TD*%
D21*
%TO.C,R4*%
X156529378Y-300876270D03*
X155509378Y-300876270D03*
%TD*%
D12*
%TO.C,Q2*%
X234519378Y-359026270D03*
X234519378Y-357726270D03*
X236519378Y-358376270D03*
%TD*%
D20*
%TO.C,D1*%
X170070668Y-118834971D03*
X170070668Y-124034971D03*
%TD*%
D10*
%TO.C,R2*%
X158219378Y-301186270D03*
X158219378Y-300166270D03*
%TD*%
D17*
%TO.C,C4*%
X96793128Y-184301270D03*
X96793128Y-185851270D03*
%TD*%
D21*
%TO.C,R3*%
X298229378Y-238626270D03*
X297209378Y-238626270D03*
%TD*%
D11*
%TO.C,BT1*%
X251919378Y-283351270D03*
X251919378Y-305601270D03*
%TD*%
%TO.C,BT1*%
X181919378Y-283351270D03*
X181919378Y-305601270D03*
%TD*%
D12*
%TO.C,Q2*%
X164519378Y-179026270D03*
X164519378Y-177726270D03*
X166519378Y-178376270D03*
%TD*%
D21*
%TO.C,R3*%
X228229378Y-238626270D03*
X227209378Y-238626270D03*
%TD*%
D17*
%TO.C,C6*%
X160919378Y-182501270D03*
X160919378Y-184051270D03*
%TD*%
D15*
%TO.C,C3*%
X223719378Y-239351270D03*
X223719378Y-237801270D03*
%TD*%
D18*
%TO.C,RV1*%
X220319378Y-188176270D03*
D19*
X223569378Y-187176270D03*
D18*
X220319378Y-186176270D03*
%TD*%
D21*
%TO.C,R3*%
X158229378Y-238626270D03*
X157209378Y-238626270D03*
%TD*%
D17*
%TO.C,C7*%
X228150668Y-124899971D03*
X228150668Y-126449971D03*
%TD*%
D23*
%TO.C,R6*%
X293509378Y-180876270D03*
X294529378Y-180876270D03*
%TD*%
D16*
%TO.C,L1*%
X165504378Y-368766270D03*
X163354378Y-368766270D03*
%TD*%
D18*
%TO.C,RV1*%
X220319378Y-308176270D03*
D19*
X223569378Y-307176270D03*
D18*
X220319378Y-306176270D03*
%TD*%
D12*
%TO.C,Q2*%
X164519378Y-239026270D03*
X164519378Y-237726270D03*
X166519378Y-238376270D03*
%TD*%
D16*
%TO.C,L1*%
X235504378Y-308766270D03*
X233354378Y-308766270D03*
%TD*%
D17*
%TO.C,C6*%
X91250668Y-124099971D03*
X91250668Y-125649971D03*
%TD*%
%TO.C,C6*%
X230919378Y-242501270D03*
X230919378Y-244051270D03*
%TD*%
D10*
%TO.C,R5*%
X156219378Y-243486270D03*
X156219378Y-242466270D03*
%TD*%
D12*
%TO.C,Q2*%
X234519378Y-179026270D03*
X234519378Y-177726270D03*
X236519378Y-178376270D03*
%TD*%
D15*
%TO.C,C1*%
X229619378Y-239351270D03*
X229619378Y-237801270D03*
%TD*%
D17*
%TO.C,C6*%
X230919378Y-182501270D03*
X230919378Y-184051270D03*
%TD*%
D22*
%TO.C,Q1*%
X150869378Y-301726270D03*
X151519378Y-301726270D03*
X152169378Y-301726270D03*
X152169378Y-303626270D03*
X151519378Y-303626270D03*
X150869378Y-303626270D03*
%TD*%
D10*
%TO.C,R2*%
X88219378Y-301186270D03*
X88219378Y-300166270D03*
%TD*%
D14*
%TO.C,R7*%
X170119378Y-184251270D03*
X170119378Y-185901270D03*
%TD*%
D23*
%TO.C,R6*%
X223840668Y-122474971D03*
X224860668Y-122474971D03*
%TD*%
D22*
%TO.C,Q1*%
X220869378Y-241726270D03*
X221519378Y-241726270D03*
X222169378Y-241726270D03*
X222169378Y-243626270D03*
X221519378Y-243626270D03*
X220869378Y-243626270D03*
%TD*%
D10*
%TO.C,R2*%
X298219378Y-361186270D03*
X298219378Y-360166270D03*
%TD*%
D12*
%TO.C,Q2*%
X304519378Y-299026270D03*
X304519378Y-297726270D03*
X306519378Y-298376270D03*
%TD*%
D10*
%TO.C,R1*%
X299419378Y-242286270D03*
X299419378Y-241266270D03*
%TD*%
%TO.C,R5*%
X86550668Y-125084971D03*
X86550668Y-124064971D03*
%TD*%
%TO.C,R5*%
X226219378Y-303486270D03*
X226219378Y-302466270D03*
%TD*%
%TO.C,R5*%
X226219378Y-363486270D03*
X226219378Y-362466270D03*
%TD*%
%TO.C,R5*%
X296550668Y-125084971D03*
X296550668Y-124064971D03*
%TD*%
D21*
%TO.C,R3*%
X228560668Y-120224971D03*
X227540668Y-120224971D03*
%TD*%
D17*
%TO.C,C5*%
X238453128Y-364331270D03*
X238453128Y-365881270D03*
%TD*%
D15*
%TO.C,C3*%
X223719378Y-359351270D03*
X223719378Y-357801270D03*
%TD*%
D10*
%TO.C,R1*%
X299419378Y-302286270D03*
X299419378Y-301266270D03*
%TD*%
%TO.C,R8*%
X218619378Y-244386270D03*
X218619378Y-243366270D03*
%TD*%
D23*
%TO.C,R6*%
X83509378Y-240876270D03*
X84529378Y-240876270D03*
%TD*%
D12*
%TO.C,Q2*%
X94519378Y-179026270D03*
X94519378Y-177726270D03*
X96519378Y-178376270D03*
%TD*%
D17*
%TO.C,C6*%
X90919378Y-302501270D03*
X90919378Y-304051270D03*
%TD*%
D10*
%TO.C,R2*%
X158219378Y-241186270D03*
X158219378Y-240166270D03*
%TD*%
%TO.C,R1*%
X229750668Y-123884971D03*
X229750668Y-122864971D03*
%TD*%
D24*
%TO.C,U1*%
X232725628Y-306501270D03*
X232725628Y-305551270D03*
X232725628Y-304601270D03*
X235000628Y-304601270D03*
X235000628Y-306501270D03*
%TD*%
D20*
%TO.C,D1*%
X99739378Y-297236270D03*
X99739378Y-302436270D03*
%TD*%
D22*
%TO.C,Q1*%
X80869378Y-181726270D03*
X81519378Y-181726270D03*
X82169378Y-181726270D03*
X82169378Y-183626270D03*
X81519378Y-183626270D03*
X80869378Y-183626270D03*
%TD*%
D17*
%TO.C,C5*%
X168453128Y-184331270D03*
X168453128Y-185881270D03*
%TD*%
D11*
%TO.C,BT1*%
X181919378Y-343351270D03*
X181919378Y-365601270D03*
%TD*%
D21*
%TO.C,R4*%
X156529378Y-240876270D03*
X155509378Y-240876270D03*
%TD*%
D24*
%TO.C,U1*%
X302725628Y-246501270D03*
X302725628Y-245551270D03*
X302725628Y-244601270D03*
X305000628Y-244601270D03*
X305000628Y-246501270D03*
%TD*%
D12*
%TO.C,Q2*%
X164519378Y-359026270D03*
X164519378Y-357726270D03*
X166519378Y-358376270D03*
%TD*%
D23*
%TO.C,R6*%
X153509378Y-240876270D03*
X154529378Y-240876270D03*
%TD*%
D10*
%TO.C,R2*%
X228219378Y-241186270D03*
X228219378Y-240166270D03*
%TD*%
D24*
%TO.C,U1*%
X232725628Y-186501270D03*
X232725628Y-185551270D03*
X232725628Y-184601270D03*
X235000628Y-184601270D03*
X235000628Y-186501270D03*
%TD*%
D14*
%TO.C,R7*%
X100119378Y-244251270D03*
X100119378Y-245901270D03*
%TD*%
%TO.C,R7*%
X310119378Y-364251270D03*
X310119378Y-365901270D03*
%TD*%
D21*
%TO.C,R3*%
X158229378Y-358626270D03*
X157209378Y-358626270D03*
%TD*%
D22*
%TO.C,Q1*%
X290869378Y-181726270D03*
X291519378Y-181726270D03*
X292169378Y-181726270D03*
X292169378Y-183626270D03*
X291519378Y-183626270D03*
X290869378Y-183626270D03*
%TD*%
D17*
%TO.C,C5*%
X308453128Y-304331270D03*
X308453128Y-305881270D03*
%TD*%
D21*
%TO.C,R3*%
X298229378Y-358626270D03*
X297209378Y-358626270D03*
%TD*%
D10*
%TO.C,R9*%
X148619378Y-306386270D03*
X148619378Y-305366270D03*
%TD*%
D17*
%TO.C,C5*%
X98453128Y-304331270D03*
X98453128Y-305881270D03*
%TD*%
D13*
%TO.C,SW1*%
X176699378Y-249046270D03*
X169079378Y-249046270D03*
%TD*%
D17*
%TO.C,C5*%
X308453128Y-244331270D03*
X308453128Y-245881270D03*
%TD*%
D10*
%TO.C,R2*%
X88219378Y-181186270D03*
X88219378Y-180166270D03*
%TD*%
D17*
%TO.C,C4*%
X166793128Y-184301270D03*
X166793128Y-185851270D03*
%TD*%
D15*
%TO.C,C2*%
X85519378Y-359351270D03*
X85519378Y-357801270D03*
%TD*%
D11*
%TO.C,BT1*%
X321919378Y-343351270D03*
X321919378Y-365601270D03*
%TD*%
D17*
%TO.C,C7*%
X87819378Y-363301270D03*
X87819378Y-364851270D03*
%TD*%
%TO.C,C4*%
X97124418Y-125899971D03*
X97124418Y-127449971D03*
%TD*%
D23*
%TO.C,R6*%
X83509378Y-180876270D03*
X84529378Y-180876270D03*
%TD*%
D13*
%TO.C,SW1*%
X106699378Y-369046270D03*
X99079378Y-369046270D03*
%TD*%
D17*
%TO.C,C7*%
X297819378Y-183301270D03*
X297819378Y-184851270D03*
%TD*%
D10*
%TO.C,R1*%
X159419378Y-362286270D03*
X159419378Y-361266270D03*
%TD*%
D12*
%TO.C,Q2*%
X304850668Y-120624971D03*
X304850668Y-119324971D03*
X306850668Y-119974971D03*
%TD*%
D16*
%TO.C,L1*%
X165835668Y-130364971D03*
X163685668Y-130364971D03*
%TD*%
D17*
%TO.C,C4*%
X237124418Y-125899971D03*
X237124418Y-127449971D03*
%TD*%
D21*
%TO.C,R4*%
X86529378Y-240876270D03*
X85509378Y-240876270D03*
%TD*%
D18*
%TO.C,RV1*%
X150319378Y-368176270D03*
D19*
X153569378Y-367176270D03*
D18*
X150319378Y-366176270D03*
%TD*%
D15*
%TO.C,C3*%
X293719378Y-239351270D03*
X293719378Y-237801270D03*
%TD*%
D22*
%TO.C,Q1*%
X290869378Y-361726270D03*
X291519378Y-361726270D03*
X292169378Y-361726270D03*
X292169378Y-363626270D03*
X291519378Y-363626270D03*
X290869378Y-363626270D03*
%TD*%
D11*
%TO.C,BT1*%
X251919378Y-343351270D03*
X251919378Y-365601270D03*
%TD*%
D22*
%TO.C,Q1*%
X290869378Y-241726270D03*
X291519378Y-241726270D03*
X292169378Y-241726270D03*
X292169378Y-243626270D03*
X291519378Y-243626270D03*
X290869378Y-243626270D03*
%TD*%
D23*
%TO.C,R6*%
X83509378Y-360876270D03*
X84529378Y-360876270D03*
%TD*%
D14*
%TO.C,R7*%
X240119378Y-304251270D03*
X240119378Y-305901270D03*
%TD*%
D18*
%TO.C,RV1*%
X290319378Y-308176270D03*
D19*
X293569378Y-307176270D03*
D18*
X290319378Y-306176270D03*
%TD*%
D10*
%TO.C,R9*%
X148950668Y-127984971D03*
X148950668Y-126964971D03*
%TD*%
D20*
%TO.C,D1*%
X309739378Y-237236270D03*
X309739378Y-242436270D03*
%TD*%
D13*
%TO.C,SW1*%
X316699378Y-369046270D03*
X309079378Y-369046270D03*
%TD*%
D16*
%TO.C,L1*%
X235835668Y-130364971D03*
X233685668Y-130364971D03*
%TD*%
D23*
%TO.C,R6*%
X293509378Y-300876270D03*
X294529378Y-300876270D03*
%TD*%
D17*
%TO.C,C7*%
X297819378Y-303301270D03*
X297819378Y-304851270D03*
%TD*%
%TO.C,C5*%
X98453128Y-364331270D03*
X98453128Y-365881270D03*
%TD*%
D21*
%TO.C,R3*%
X158229378Y-298626270D03*
X157209378Y-298626270D03*
%TD*%
D15*
%TO.C,C2*%
X155850668Y-120949971D03*
X155850668Y-119399971D03*
%TD*%
D23*
%TO.C,R6*%
X153509378Y-180876270D03*
X154529378Y-180876270D03*
%TD*%
D17*
%TO.C,C5*%
X98453128Y-184331270D03*
X98453128Y-185881270D03*
%TD*%
D10*
%TO.C,R5*%
X156219378Y-363486270D03*
X156219378Y-362466270D03*
%TD*%
D20*
%TO.C,D1*%
X309739378Y-357236270D03*
X309739378Y-362436270D03*
%TD*%
D10*
%TO.C,R2*%
X298550668Y-122784971D03*
X298550668Y-121764971D03*
%TD*%
D15*
%TO.C,C2*%
X85519378Y-299351270D03*
X85519378Y-297801270D03*
%TD*%
D22*
%TO.C,Q1*%
X80869378Y-361726270D03*
X81519378Y-361726270D03*
X82169378Y-361726270D03*
X82169378Y-363626270D03*
X81519378Y-363626270D03*
X80869378Y-363626270D03*
%TD*%
D10*
%TO.C,R8*%
X78619378Y-364386270D03*
X78619378Y-363366270D03*
%TD*%
D21*
%TO.C,R4*%
X226529378Y-300876270D03*
X225509378Y-300876270D03*
%TD*%
D13*
%TO.C,SW1*%
X177030668Y-130644971D03*
X169410668Y-130644971D03*
%TD*%
D21*
%TO.C,R3*%
X298560668Y-120224971D03*
X297540668Y-120224971D03*
%TD*%
D12*
%TO.C,Q2*%
X304519378Y-359026270D03*
X304519378Y-357726270D03*
X306519378Y-358376270D03*
%TD*%
D15*
%TO.C,C3*%
X293719378Y-179351270D03*
X293719378Y-177801270D03*
%TD*%
D17*
%TO.C,C6*%
X231250668Y-124099971D03*
X231250668Y-125649971D03*
%TD*%
%TO.C,C5*%
X308784418Y-125929971D03*
X308784418Y-127479971D03*
%TD*%
D10*
%TO.C,R9*%
X218950668Y-127984971D03*
X218950668Y-126964971D03*
%TD*%
%TO.C,R9*%
X218619378Y-246386270D03*
X218619378Y-245366270D03*
%TD*%
D21*
%TO.C,R4*%
X296529378Y-240876270D03*
X295509378Y-240876270D03*
%TD*%
%TO.C,R4*%
X296529378Y-180876270D03*
X295509378Y-180876270D03*
%TD*%
D11*
%TO.C,BT1*%
X181919378Y-163351270D03*
X181919378Y-185601270D03*
%TD*%
D15*
%TO.C,C2*%
X225519378Y-239351270D03*
X225519378Y-237801270D03*
%TD*%
D17*
%TO.C,C7*%
X298150668Y-124899971D03*
X298150668Y-126449971D03*
%TD*%
D12*
%TO.C,Q2*%
X304519378Y-239026270D03*
X304519378Y-237726270D03*
X306519378Y-238376270D03*
%TD*%
D17*
%TO.C,C6*%
X300919378Y-362501270D03*
X300919378Y-364051270D03*
%TD*%
D10*
%TO.C,R1*%
X229419378Y-242286270D03*
X229419378Y-241266270D03*
%TD*%
%TO.C,R1*%
X89750668Y-123884971D03*
X89750668Y-122864971D03*
%TD*%
D21*
%TO.C,R3*%
X228229378Y-358626270D03*
X227209378Y-358626270D03*
%TD*%
D20*
%TO.C,D1*%
X100070668Y-118834971D03*
X100070668Y-124034971D03*
%TD*%
D24*
%TO.C,U1*%
X302725628Y-306501270D03*
X302725628Y-305551270D03*
X302725628Y-304601270D03*
X305000628Y-304601270D03*
X305000628Y-306501270D03*
%TD*%
D20*
%TO.C,D1*%
X169739378Y-177236270D03*
X169739378Y-182436270D03*
%TD*%
D14*
%TO.C,R7*%
X170119378Y-364251270D03*
X170119378Y-365901270D03*
%TD*%
D21*
%TO.C,R4*%
X86529378Y-180876270D03*
X85509378Y-180876270D03*
%TD*%
D15*
%TO.C,C3*%
X294050668Y-120949971D03*
X294050668Y-119399971D03*
%TD*%
D17*
%TO.C,C5*%
X238453128Y-304331270D03*
X238453128Y-305881270D03*
%TD*%
D12*
%TO.C,Q2*%
X164519378Y-299026270D03*
X164519378Y-297726270D03*
X166519378Y-298376270D03*
%TD*%
D24*
%TO.C,U1*%
X232725628Y-246501270D03*
X232725628Y-245551270D03*
X232725628Y-244601270D03*
X235000628Y-244601270D03*
X235000628Y-246501270D03*
%TD*%
D16*
%TO.C,L1*%
X95504378Y-308766270D03*
X93354378Y-308766270D03*
%TD*%
D17*
%TO.C,C4*%
X306793128Y-304301270D03*
X306793128Y-305851270D03*
%TD*%
D15*
%TO.C,C2*%
X85850668Y-120949971D03*
X85850668Y-119399971D03*
%TD*%
D24*
%TO.C,U1*%
X93056918Y-128099971D03*
X93056918Y-127149971D03*
X93056918Y-126199971D03*
X95331918Y-126199971D03*
X95331918Y-128099971D03*
%TD*%
D23*
%TO.C,R6*%
X293509378Y-360876270D03*
X294529378Y-360876270D03*
%TD*%
D24*
%TO.C,U1*%
X92725628Y-246501270D03*
X92725628Y-245551270D03*
X92725628Y-244601270D03*
X95000628Y-244601270D03*
X95000628Y-246501270D03*
%TD*%
D23*
%TO.C,R6*%
X293840668Y-122474971D03*
X294860668Y-122474971D03*
%TD*%
D15*
%TO.C,C3*%
X154050668Y-120949971D03*
X154050668Y-119399971D03*
%TD*%
D18*
%TO.C,RV1*%
X150319378Y-308176270D03*
D19*
X153569378Y-307176270D03*
D18*
X150319378Y-306176270D03*
%TD*%
D20*
%TO.C,D1*%
X309739378Y-297236270D03*
X309739378Y-302436270D03*
%TD*%
D17*
%TO.C,C4*%
X96793128Y-304301270D03*
X96793128Y-305851270D03*
%TD*%
D18*
%TO.C,RV1*%
X290650668Y-129774971D03*
D19*
X293900668Y-128774971D03*
D18*
X290650668Y-127774971D03*
%TD*%
D20*
%TO.C,D1*%
X169739378Y-357236270D03*
X169739378Y-362436270D03*
%TD*%
D14*
%TO.C,R7*%
X170119378Y-304251270D03*
X170119378Y-305901270D03*
%TD*%
D15*
%TO.C,C1*%
X89950668Y-120949971D03*
X89950668Y-119399971D03*
%TD*%
D12*
%TO.C,Q2*%
X234850668Y-120624971D03*
X234850668Y-119324971D03*
X236850668Y-119974971D03*
%TD*%
D15*
%TO.C,C1*%
X159619378Y-299351270D03*
X159619378Y-297801270D03*
%TD*%
D23*
%TO.C,R6*%
X223509378Y-240876270D03*
X224529378Y-240876270D03*
%TD*%
D21*
%TO.C,R4*%
X296860668Y-122474971D03*
X295840668Y-122474971D03*
%TD*%
D15*
%TO.C,C2*%
X225519378Y-179351270D03*
X225519378Y-177801270D03*
%TD*%
D17*
%TO.C,C6*%
X300919378Y-182501270D03*
X300919378Y-184051270D03*
%TD*%
D15*
%TO.C,C1*%
X229950668Y-120949971D03*
X229950668Y-119399971D03*
%TD*%
D24*
%TO.C,U1*%
X302725628Y-366501270D03*
X302725628Y-365551270D03*
X302725628Y-364601270D03*
X305000628Y-364601270D03*
X305000628Y-366501270D03*
%TD*%
D16*
%TO.C,L1*%
X165504378Y-188766270D03*
X163354378Y-188766270D03*
%TD*%
D17*
%TO.C,C7*%
X227819378Y-243301270D03*
X227819378Y-244851270D03*
%TD*%
%TO.C,C5*%
X168453128Y-304331270D03*
X168453128Y-305881270D03*
%TD*%
D10*
%TO.C,R9*%
X288619378Y-186386270D03*
X288619378Y-185366270D03*
%TD*%
%TO.C,R8*%
X218619378Y-364386270D03*
X218619378Y-363366270D03*
%TD*%
D15*
%TO.C,C1*%
X229619378Y-359351270D03*
X229619378Y-357801270D03*
%TD*%
D17*
%TO.C,C7*%
X157819378Y-183301270D03*
X157819378Y-184851270D03*
%TD*%
D15*
%TO.C,C2*%
X295850668Y-120949971D03*
X295850668Y-119399971D03*
%TD*%
%TO.C,C3*%
X223719378Y-299351270D03*
X223719378Y-297801270D03*
%TD*%
D10*
%TO.C,R8*%
X288619378Y-184386270D03*
X288619378Y-183366270D03*
%TD*%
D15*
%TO.C,C2*%
X295519378Y-239351270D03*
X295519378Y-237801270D03*
%TD*%
D10*
%TO.C,R5*%
X86219378Y-303486270D03*
X86219378Y-302466270D03*
%TD*%
D18*
%TO.C,RV1*%
X80319378Y-368176270D03*
D19*
X83569378Y-367176270D03*
D18*
X80319378Y-366176270D03*
%TD*%
D20*
%TO.C,D1*%
X310070668Y-118834971D03*
X310070668Y-124034971D03*
%TD*%
D10*
%TO.C,R9*%
X288619378Y-366386270D03*
X288619378Y-365366270D03*
%TD*%
D18*
%TO.C,RV1*%
X150319378Y-188176270D03*
D19*
X153569378Y-187176270D03*
D18*
X150319378Y-186176270D03*
%TD*%
D13*
%TO.C,SW1*%
X246699378Y-309046270D03*
X239079378Y-309046270D03*
%TD*%
D17*
%TO.C,C7*%
X227819378Y-183301270D03*
X227819378Y-184851270D03*
%TD*%
D21*
%TO.C,R3*%
X88229378Y-298626270D03*
X87209378Y-298626270D03*
%TD*%
D10*
%TO.C,R5*%
X296219378Y-363486270D03*
X296219378Y-362466270D03*
%TD*%
D16*
%TO.C,L1*%
X235504378Y-248766270D03*
X233354378Y-248766270D03*
%TD*%
D17*
%TO.C,C5*%
X168784418Y-125929971D03*
X168784418Y-127479971D03*
%TD*%
D15*
%TO.C,C2*%
X155519378Y-299351270D03*
X155519378Y-297801270D03*
%TD*%
D21*
%TO.C,R4*%
X86529378Y-300876270D03*
X85509378Y-300876270D03*
%TD*%
D17*
%TO.C,C4*%
X306793128Y-244301270D03*
X306793128Y-245851270D03*
%TD*%
D15*
%TO.C,C1*%
X89619378Y-239351270D03*
X89619378Y-237801270D03*
%TD*%
D24*
%TO.C,U1*%
X232725628Y-366501270D03*
X232725628Y-365551270D03*
X232725628Y-364601270D03*
X235000628Y-364601270D03*
X235000628Y-366501270D03*
%TD*%
D15*
%TO.C,C1*%
X159950668Y-120949971D03*
X159950668Y-119399971D03*
%TD*%
%TO.C,C3*%
X83719378Y-179351270D03*
X83719378Y-177801270D03*
%TD*%
D17*
%TO.C,C5*%
X308453128Y-364331270D03*
X308453128Y-365881270D03*
%TD*%
D15*
%TO.C,C1*%
X299619378Y-359351270D03*
X299619378Y-357801270D03*
%TD*%
%TO.C,C3*%
X293719378Y-299351270D03*
X293719378Y-297801270D03*
%TD*%
D21*
%TO.C,R3*%
X88229378Y-358626270D03*
X87209378Y-358626270D03*
%TD*%
D18*
%TO.C,RV1*%
X150650668Y-129774971D03*
D19*
X153900668Y-128774971D03*
D18*
X150650668Y-127774971D03*
%TD*%
D12*
%TO.C,Q2*%
X234519378Y-239026270D03*
X234519378Y-237726270D03*
X236519378Y-238376270D03*
%TD*%
D14*
%TO.C,R7*%
X240119378Y-184251270D03*
X240119378Y-185901270D03*
%TD*%
D10*
%TO.C,R5*%
X156219378Y-183486270D03*
X156219378Y-182466270D03*
%TD*%
%TO.C,R1*%
X159419378Y-182286270D03*
X159419378Y-181266270D03*
%TD*%
D18*
%TO.C,RV1*%
X80319378Y-188176270D03*
D19*
X83569378Y-187176270D03*
D18*
X80319378Y-186176270D03*
%TD*%
D12*
%TO.C,Q2*%
X164850668Y-120624971D03*
X164850668Y-119324971D03*
X166850668Y-119974971D03*
%TD*%
D17*
%TO.C,C5*%
X168453128Y-364331270D03*
X168453128Y-365881270D03*
%TD*%
D15*
%TO.C,C3*%
X223719378Y-179351270D03*
X223719378Y-177801270D03*
%TD*%
D24*
%TO.C,U1*%
X162725628Y-366501270D03*
X162725628Y-365551270D03*
X162725628Y-364601270D03*
X165000628Y-364601270D03*
X165000628Y-366501270D03*
%TD*%
D13*
%TO.C,SW1*%
X176699378Y-369046270D03*
X169079378Y-369046270D03*
%TD*%
D20*
%TO.C,D1*%
X240070668Y-118834971D03*
X240070668Y-124034971D03*
%TD*%
D10*
%TO.C,R2*%
X158219378Y-181186270D03*
X158219378Y-180166270D03*
%TD*%
D17*
%TO.C,C4*%
X306793128Y-364301270D03*
X306793128Y-365851270D03*
%TD*%
%TO.C,C4*%
X236793128Y-184301270D03*
X236793128Y-185851270D03*
%TD*%
D10*
%TO.C,R8*%
X288619378Y-364386270D03*
X288619378Y-363366270D03*
%TD*%
%TO.C,R9*%
X218619378Y-186386270D03*
X218619378Y-185366270D03*
%TD*%
D17*
%TO.C,C5*%
X98453128Y-244331270D03*
X98453128Y-245881270D03*
%TD*%
D10*
%TO.C,R8*%
X218619378Y-184386270D03*
X218619378Y-183366270D03*
%TD*%
D14*
%TO.C,R7*%
X240119378Y-364251270D03*
X240119378Y-365901270D03*
%TD*%
D11*
%TO.C,BT1*%
X111919378Y-283351270D03*
X111919378Y-305601270D03*
%TD*%
%TO.C,BT1*%
X111919378Y-163351270D03*
X111919378Y-185601270D03*
%TD*%
D10*
%TO.C,R1*%
X89419378Y-242286270D03*
X89419378Y-241266270D03*
%TD*%
D17*
%TO.C,C6*%
X230919378Y-362501270D03*
X230919378Y-364051270D03*
%TD*%
D14*
%TO.C,R7*%
X310450668Y-125849971D03*
X310450668Y-127499971D03*
%TD*%
D17*
%TO.C,C6*%
X300919378Y-302501270D03*
X300919378Y-304051270D03*
%TD*%
D13*
%TO.C,SW1*%
X316699378Y-309046270D03*
X309079378Y-309046270D03*
%TD*%
%TO.C,SW1*%
X246699378Y-369046270D03*
X239079378Y-369046270D03*
%TD*%
D18*
%TO.C,RV1*%
X220650668Y-129774971D03*
D19*
X223900668Y-128774971D03*
D18*
X220650668Y-127774971D03*
%TD*%
D10*
%TO.C,R9*%
X78950668Y-127984971D03*
X78950668Y-126964971D03*
%TD*%
D11*
%TO.C,BT1*%
X321919378Y-223351270D03*
X321919378Y-245601270D03*
%TD*%
D16*
%TO.C,L1*%
X95504378Y-368766270D03*
X93354378Y-368766270D03*
%TD*%
D17*
%TO.C,C6*%
X300919378Y-242501270D03*
X300919378Y-244051270D03*
%TD*%
%TO.C,C4*%
X166793128Y-304301270D03*
X166793128Y-305851270D03*
%TD*%
%TO.C,C7*%
X297819378Y-363301270D03*
X297819378Y-364851270D03*
%TD*%
D10*
%TO.C,R9*%
X288619378Y-246386270D03*
X288619378Y-245366270D03*
%TD*%
D12*
%TO.C,Q2*%
X94519378Y-239026270D03*
X94519378Y-237726270D03*
X96519378Y-238376270D03*
%TD*%
D10*
%TO.C,R8*%
X78950668Y-125984971D03*
X78950668Y-124964971D03*
%TD*%
%TO.C,R1*%
X299750668Y-123884971D03*
X299750668Y-122864971D03*
%TD*%
D17*
%TO.C,C7*%
X157819378Y-243301270D03*
X157819378Y-244851270D03*
%TD*%
D11*
%TO.C,BT1*%
X251919378Y-163351270D03*
X251919378Y-185601270D03*
%TD*%
D10*
%TO.C,R1*%
X299419378Y-362286270D03*
X299419378Y-361266270D03*
%TD*%
%TO.C,R1*%
X229419378Y-362286270D03*
X229419378Y-361266270D03*
%TD*%
D24*
%TO.C,U1*%
X92725628Y-186501270D03*
X92725628Y-185551270D03*
X92725628Y-184601270D03*
X95000628Y-184601270D03*
X95000628Y-186501270D03*
%TD*%
D17*
%TO.C,C6*%
X90919378Y-362501270D03*
X90919378Y-364051270D03*
%TD*%
D13*
%TO.C,SW1*%
X106699378Y-189046270D03*
X99079378Y-189046270D03*
%TD*%
D20*
%TO.C,D1*%
X99739378Y-357236270D03*
X99739378Y-362436270D03*
%TD*%
D15*
%TO.C,C1*%
X89619378Y-299351270D03*
X89619378Y-297801270D03*
%TD*%
D10*
%TO.C,R8*%
X218619378Y-304386270D03*
X218619378Y-303366270D03*
%TD*%
D18*
%TO.C,RV1*%
X80319378Y-308176270D03*
D19*
X83569378Y-307176270D03*
D18*
X80319378Y-306176270D03*
%TD*%
D10*
%TO.C,R1*%
X159419378Y-302286270D03*
X159419378Y-301266270D03*
%TD*%
D21*
%TO.C,R3*%
X228229378Y-298626270D03*
X227209378Y-298626270D03*
%TD*%
D15*
%TO.C,C2*%
X85519378Y-239351270D03*
X85519378Y-237801270D03*
%TD*%
D21*
%TO.C,R3*%
X88560668Y-120224971D03*
X87540668Y-120224971D03*
%TD*%
D15*
%TO.C,C1*%
X299619378Y-299351270D03*
X299619378Y-297801270D03*
%TD*%
%TO.C,C3*%
X293719378Y-359351270D03*
X293719378Y-357801270D03*
%TD*%
%TO.C,C3*%
X84050668Y-120949971D03*
X84050668Y-119399971D03*
%TD*%
D17*
%TO.C,C4*%
X236793128Y-364301270D03*
X236793128Y-365851270D03*
%TD*%
D15*
%TO.C,C1*%
X159619378Y-359351270D03*
X159619378Y-357801270D03*
%TD*%
D17*
%TO.C,C5*%
X238453128Y-244331270D03*
X238453128Y-245881270D03*
%TD*%
D15*
%TO.C,C1*%
X299619378Y-239351270D03*
X299619378Y-237801270D03*
%TD*%
%TO.C,C3*%
X83719378Y-299351270D03*
X83719378Y-297801270D03*
%TD*%
D10*
%TO.C,R2*%
X228219378Y-181186270D03*
X228219378Y-180166270D03*
%TD*%
%TO.C,R5*%
X226550668Y-125084971D03*
X226550668Y-124064971D03*
%TD*%
D13*
%TO.C,SW1*%
X316699378Y-189046270D03*
X309079378Y-189046270D03*
%TD*%
D16*
%TO.C,L1*%
X95835668Y-130364971D03*
X93685668Y-130364971D03*
%TD*%
D17*
%TO.C,C6*%
X160919378Y-362501270D03*
X160919378Y-364051270D03*
%TD*%
D15*
%TO.C,C1*%
X229619378Y-179351270D03*
X229619378Y-177801270D03*
%TD*%
D10*
%TO.C,R8*%
X148619378Y-184386270D03*
X148619378Y-183366270D03*
%TD*%
D18*
%TO.C,RV1*%
X290319378Y-368176270D03*
D19*
X293569378Y-367176270D03*
D18*
X290319378Y-366176270D03*
%TD*%
D22*
%TO.C,Q1*%
X221200668Y-123324971D03*
X221850668Y-123324971D03*
X222500668Y-123324971D03*
X222500668Y-125224971D03*
X221850668Y-125224971D03*
X221200668Y-125224971D03*
%TD*%
D17*
%TO.C,C6*%
X160919378Y-242501270D03*
X160919378Y-244051270D03*
%TD*%
D14*
%TO.C,R7*%
X310119378Y-184251270D03*
X310119378Y-185901270D03*
%TD*%
D17*
%TO.C,C6*%
X301250668Y-124099971D03*
X301250668Y-125649971D03*
%TD*%
%TO.C,C4*%
X96793128Y-364301270D03*
X96793128Y-365851270D03*
%TD*%
D10*
%TO.C,R5*%
X156550668Y-125084971D03*
X156550668Y-124064971D03*
%TD*%
D17*
%TO.C,C7*%
X158150668Y-124899971D03*
X158150668Y-126449971D03*
%TD*%
D13*
%TO.C,SW1*%
X246699378Y-249046270D03*
X239079378Y-249046270D03*
%TD*%
D22*
%TO.C,Q1*%
X81200668Y-123324971D03*
X81850668Y-123324971D03*
X82500668Y-123324971D03*
X82500668Y-125224971D03*
X81850668Y-125224971D03*
X81200668Y-125224971D03*
%TD*%
D10*
%TO.C,R9*%
X148619378Y-186386270D03*
X148619378Y-185366270D03*
%TD*%
D12*
%TO.C,Q2*%
X94850668Y-120624971D03*
X94850668Y-119324971D03*
X96850668Y-119974971D03*
%TD*%
D14*
%TO.C,R7*%
X310119378Y-304251270D03*
X310119378Y-305901270D03*
%TD*%
D10*
%TO.C,R1*%
X299419378Y-182286270D03*
X299419378Y-181266270D03*
%TD*%
D15*
%TO.C,C3*%
X224050668Y-120949971D03*
X224050668Y-119399971D03*
%TD*%
%TO.C,C1*%
X159619378Y-179351270D03*
X159619378Y-177801270D03*
%TD*%
D17*
%TO.C,C5*%
X308453128Y-184331270D03*
X308453128Y-185881270D03*
%TD*%
D22*
%TO.C,Q1*%
X150869378Y-181726270D03*
X151519378Y-181726270D03*
X152169378Y-181726270D03*
X152169378Y-183626270D03*
X151519378Y-183626270D03*
X150869378Y-183626270D03*
%TD*%
D10*
%TO.C,R2*%
X298219378Y-241186270D03*
X298219378Y-240166270D03*
%TD*%
D15*
%TO.C,C2*%
X85519378Y-179351270D03*
X85519378Y-177801270D03*
%TD*%
D10*
%TO.C,R9*%
X218619378Y-366386270D03*
X218619378Y-365366270D03*
%TD*%
%TO.C,R8*%
X78619378Y-184386270D03*
X78619378Y-183366270D03*
%TD*%
D17*
%TO.C,C7*%
X297819378Y-243301270D03*
X297819378Y-244851270D03*
%TD*%
D21*
%TO.C,R4*%
X226529378Y-360876270D03*
X225509378Y-360876270D03*
%TD*%
D18*
%TO.C,RV1*%
X290319378Y-248176270D03*
D19*
X293569378Y-247176270D03*
D18*
X290319378Y-246176270D03*
%TD*%
D23*
%TO.C,R6*%
X153840668Y-122474971D03*
X154860668Y-122474971D03*
%TD*%
D15*
%TO.C,C3*%
X153719378Y-359351270D03*
X153719378Y-357801270D03*
%TD*%
D16*
%TO.C,L1*%
X165504378Y-248766270D03*
X163354378Y-248766270D03*
%TD*%
D11*
%TO.C,BT1*%
X322250668Y-104949971D03*
X322250668Y-127199971D03*
%TD*%
%TO.C,BT1*%
X112250668Y-104949971D03*
X112250668Y-127199971D03*
%TD*%
D15*
%TO.C,C3*%
X153719378Y-179351270D03*
X153719378Y-177801270D03*
%TD*%
D22*
%TO.C,Q1*%
X80869378Y-301726270D03*
X81519378Y-301726270D03*
X82169378Y-301726270D03*
X82169378Y-303626270D03*
X81519378Y-303626270D03*
X80869378Y-303626270D03*
%TD*%
D21*
%TO.C,R4*%
X156529378Y-180876270D03*
X155509378Y-180876270D03*
%TD*%
D10*
%TO.C,R2*%
X298219378Y-301186270D03*
X298219378Y-300166270D03*
%TD*%
D17*
%TO.C,C4*%
X306793128Y-184301270D03*
X306793128Y-185851270D03*
%TD*%
D20*
%TO.C,D1*%
X239739378Y-177236270D03*
X239739378Y-182436270D03*
%TD*%
D17*
%TO.C,C4*%
X307124418Y-125899971D03*
X307124418Y-127449971D03*
%TD*%
D22*
%TO.C,Q1*%
X151200668Y-123324971D03*
X151850668Y-123324971D03*
X152500668Y-123324971D03*
X152500668Y-125224971D03*
X151850668Y-125224971D03*
X151200668Y-125224971D03*
%TD*%
D15*
%TO.C,C2*%
X155519378Y-239351270D03*
X155519378Y-237801270D03*
%TD*%
D11*
%TO.C,BT1*%
X111919378Y-223351270D03*
X111919378Y-245601270D03*
%TD*%
D10*
%TO.C,R8*%
X148619378Y-364386270D03*
X148619378Y-363366270D03*
%TD*%
%TO.C,R8*%
X148619378Y-244386270D03*
X148619378Y-243366270D03*
%TD*%
%TO.C,R8*%
X148950668Y-125984971D03*
X148950668Y-124964971D03*
%TD*%
D22*
%TO.C,Q1*%
X220869378Y-301726270D03*
X221519378Y-301726270D03*
X222169378Y-301726270D03*
X222169378Y-303626270D03*
X221519378Y-303626270D03*
X220869378Y-303626270D03*
%TD*%
D10*
%TO.C,R1*%
X89419378Y-362286270D03*
X89419378Y-361266270D03*
%TD*%
D18*
%TO.C,RV1*%
X80319378Y-248176270D03*
D19*
X83569378Y-247176270D03*
D18*
X80319378Y-246176270D03*
%TD*%
D20*
%TO.C,D1*%
X169739378Y-297236270D03*
X169739378Y-302436270D03*
%TD*%
D24*
%TO.C,U1*%
X162725628Y-186501270D03*
X162725628Y-185551270D03*
X162725628Y-184601270D03*
X165000628Y-184601270D03*
X165000628Y-186501270D03*
%TD*%
D17*
%TO.C,C6*%
X90919378Y-242501270D03*
X90919378Y-244051270D03*
%TD*%
D13*
%TO.C,SW1*%
X317030668Y-130644971D03*
X309410668Y-130644971D03*
%TD*%
D17*
%TO.C,C6*%
X160919378Y-302501270D03*
X160919378Y-304051270D03*
%TD*%
D10*
%TO.C,R1*%
X159750668Y-123884971D03*
X159750668Y-122864971D03*
%TD*%
D15*
%TO.C,C1*%
X229619378Y-299351270D03*
X229619378Y-297801270D03*
%TD*%
D10*
%TO.C,R5*%
X86219378Y-183486270D03*
X86219378Y-182466270D03*
%TD*%
D20*
%TO.C,D1*%
X99739378Y-237236270D03*
X99739378Y-242436270D03*
%TD*%
D21*
%TO.C,R3*%
X88229378Y-178626270D03*
X87209378Y-178626270D03*
%TD*%
D24*
%TO.C,U1*%
X92725628Y-366501270D03*
X92725628Y-365551270D03*
X92725628Y-364601270D03*
X95000628Y-364601270D03*
X95000628Y-366501270D03*
%TD*%
%TO.C,U1*%
X162725628Y-306501270D03*
X162725628Y-305551270D03*
X162725628Y-304601270D03*
X165000628Y-304601270D03*
X165000628Y-306501270D03*
%TD*%
D20*
%TO.C,D1*%
X99739378Y-177236270D03*
X99739378Y-182436270D03*
%TD*%
D10*
%TO.C,R8*%
X78619378Y-244386270D03*
X78619378Y-243366270D03*
%TD*%
D24*
%TO.C,U1*%
X302725628Y-186501270D03*
X302725628Y-185551270D03*
X302725628Y-184601270D03*
X305000628Y-184601270D03*
X305000628Y-186501270D03*
%TD*%
D15*
%TO.C,C2*%
X295519378Y-299351270D03*
X295519378Y-297801270D03*
%TD*%
D12*
%TO.C,Q2*%
X304519378Y-179026270D03*
X304519378Y-177726270D03*
X306519378Y-178376270D03*
%TD*%
D10*
%TO.C,R9*%
X78619378Y-186386270D03*
X78619378Y-185366270D03*
%TD*%
%TO.C,R8*%
X288950668Y-125984971D03*
X288950668Y-124964971D03*
%TD*%
D21*
%TO.C,R4*%
X226529378Y-180876270D03*
X225509378Y-180876270D03*
%TD*%
D15*
%TO.C,C3*%
X83719378Y-359351270D03*
X83719378Y-357801270D03*
%TD*%
D23*
%TO.C,R6*%
X223509378Y-300876270D03*
X224529378Y-300876270D03*
%TD*%
D16*
%TO.C,L1*%
X95504378Y-188766270D03*
X93354378Y-188766270D03*
%TD*%
%TO.C,L1*%
X305504378Y-188766270D03*
X303354378Y-188766270D03*
%TD*%
D11*
%TO.C,BT1*%
X321919378Y-163351270D03*
X321919378Y-185601270D03*
%TD*%
D22*
%TO.C,Q1*%
X220869378Y-181726270D03*
X221519378Y-181726270D03*
X222169378Y-181726270D03*
X222169378Y-183626270D03*
X221519378Y-183626270D03*
X220869378Y-183626270D03*
%TD*%
D23*
%TO.C,R6*%
X153509378Y-300876270D03*
X154529378Y-300876270D03*
%TD*%
D14*
%TO.C,R7*%
X100119378Y-304251270D03*
X100119378Y-305901270D03*
%TD*%
D17*
%TO.C,C7*%
X227819378Y-303301270D03*
X227819378Y-304851270D03*
%TD*%
D23*
%TO.C,R6*%
X153509378Y-360876270D03*
X154529378Y-360876270D03*
%TD*%
D10*
%TO.C,R2*%
X298219378Y-181186270D03*
X298219378Y-180166270D03*
%TD*%
D17*
%TO.C,C5*%
X238784418Y-125929971D03*
X238784418Y-127479971D03*
%TD*%
%TO.C,C7*%
X87819378Y-183301270D03*
X87819378Y-184851270D03*
%TD*%
D15*
%TO.C,C3*%
X153719378Y-299351270D03*
X153719378Y-297801270D03*
%TD*%
D17*
%TO.C,C4*%
X167124418Y-125899971D03*
X167124418Y-127449971D03*
%TD*%
D15*
%TO.C,C2*%
X225519378Y-299351270D03*
X225519378Y-297801270D03*
%TD*%
D10*
%TO.C,R8*%
X288619378Y-304386270D03*
X288619378Y-303366270D03*
%TD*%
D24*
%TO.C,U1*%
X303056918Y-128099971D03*
X303056918Y-127149971D03*
X303056918Y-126199971D03*
X305331918Y-126199971D03*
X305331918Y-128099971D03*
%TD*%
D17*
%TO.C,C7*%
X157819378Y-303301270D03*
X157819378Y-304851270D03*
%TD*%
D22*
%TO.C,Q1*%
X291200668Y-123324971D03*
X291850668Y-123324971D03*
X292500668Y-123324971D03*
X292500668Y-125224971D03*
X291850668Y-125224971D03*
X291200668Y-125224971D03*
%TD*%
D13*
%TO.C,SW1*%
X247030668Y-130644971D03*
X239410668Y-130644971D03*
%TD*%
D24*
%TO.C,U1*%
X162725628Y-246501270D03*
X162725628Y-245551270D03*
X162725628Y-244601270D03*
X165000628Y-244601270D03*
X165000628Y-246501270D03*
%TD*%
D17*
%TO.C,C7*%
X88150668Y-124899971D03*
X88150668Y-126449971D03*
%TD*%
D10*
%TO.C,R5*%
X156219378Y-303486270D03*
X156219378Y-302466270D03*
%TD*%
D17*
%TO.C,C7*%
X157819378Y-363301270D03*
X157819378Y-364851270D03*
%TD*%
D15*
%TO.C,C2*%
X295519378Y-179351270D03*
X295519378Y-177801270D03*
%TD*%
%TO.C,C2*%
X225519378Y-359351270D03*
X225519378Y-357801270D03*
%TD*%
D10*
%TO.C,R8*%
X78619378Y-304386270D03*
X78619378Y-303366270D03*
%TD*%
%TO.C,R9*%
X218619378Y-306386270D03*
X218619378Y-305366270D03*
%TD*%
D21*
%TO.C,R3*%
X88229378Y-238626270D03*
X87209378Y-238626270D03*
%TD*%
D18*
%TO.C,RV1*%
X220319378Y-368176270D03*
D19*
X223569378Y-367176270D03*
D18*
X220319378Y-366176270D03*
%TD*%
D21*
%TO.C,R3*%
X228229378Y-178626270D03*
X227209378Y-178626270D03*
%TD*%
D17*
%TO.C,C6*%
X230919378Y-302501270D03*
X230919378Y-304051270D03*
%TD*%
D23*
%TO.C,R6*%
X223509378Y-360876270D03*
X224529378Y-360876270D03*
%TD*%
D10*
%TO.C,R5*%
X226219378Y-183486270D03*
X226219378Y-182466270D03*
%TD*%
D17*
%TO.C,C4*%
X166793128Y-364301270D03*
X166793128Y-365851270D03*
%TD*%
D16*
%TO.C,L1*%
X305835668Y-130364971D03*
X303685668Y-130364971D03*
%TD*%
D10*
%TO.C,R1*%
X159419378Y-242286270D03*
X159419378Y-241266270D03*
%TD*%
D17*
%TO.C,C4*%
X166793128Y-244301270D03*
X166793128Y-245851270D03*
%TD*%
D21*
%TO.C,R4*%
X86529378Y-360876270D03*
X85509378Y-360876270D03*
%TD*%
D14*
%TO.C,R7*%
X240450668Y-125849971D03*
X240450668Y-127499971D03*
%TD*%
D10*
%TO.C,R5*%
X86219378Y-243486270D03*
X86219378Y-242466270D03*
%TD*%
D15*
%TO.C,C1*%
X299950668Y-120949971D03*
X299950668Y-119399971D03*
%TD*%
D21*
%TO.C,R3*%
X298229378Y-178626270D03*
X297209378Y-178626270D03*
%TD*%
D11*
%TO.C,BT1*%
X111919378Y-343351270D03*
X111919378Y-365601270D03*
%TD*%
D10*
%TO.C,R8*%
X218950668Y-125984971D03*
X218950668Y-124964971D03*
%TD*%
D21*
%TO.C,R4*%
X226529378Y-240876270D03*
X225509378Y-240876270D03*
%TD*%
%TO.C,R3*%
X158560668Y-120224971D03*
X157540668Y-120224971D03*
%TD*%
D18*
%TO.C,RV1*%
X150319378Y-248176270D03*
D19*
X153569378Y-247176270D03*
D18*
X150319378Y-246176270D03*
%TD*%
D15*
%TO.C,C2*%
X295519378Y-359351270D03*
X295519378Y-357801270D03*
%TD*%
D10*
%TO.C,R2*%
X158219378Y-361186270D03*
X158219378Y-360166270D03*
%TD*%
D21*
%TO.C,R4*%
X226860668Y-122474971D03*
X225840668Y-122474971D03*
%TD*%
D17*
%TO.C,C5*%
X238453128Y-184331270D03*
X238453128Y-185881270D03*
%TD*%
D14*
%TO.C,R7*%
X170119378Y-244251270D03*
X170119378Y-245901270D03*
%TD*%
D10*
%TO.C,R1*%
X229419378Y-182286270D03*
X229419378Y-181266270D03*
%TD*%
D15*
%TO.C,C1*%
X89619378Y-359351270D03*
X89619378Y-357801270D03*
%TD*%
D21*
%TO.C,R4*%
X296529378Y-300876270D03*
X295509378Y-300876270D03*
%TD*%
D10*
%TO.C,R9*%
X78619378Y-366386270D03*
X78619378Y-365366270D03*
%TD*%
%TO.C,R5*%
X296219378Y-303486270D03*
X296219378Y-302466270D03*
%TD*%
D17*
%TO.C,C7*%
X227819378Y-363301270D03*
X227819378Y-364851270D03*
%TD*%
D15*
%TO.C,C1*%
X299619378Y-179351270D03*
X299619378Y-177801270D03*
%TD*%
M02*
