<?xml version="1.0" encoding="UTF-8" standalone="no"?>
<!-- Created with Inkscape (http://www.inkscape.org/) -->

<svg
   width="210mm"
   height="297mm"
   viewBox="0 0 210 297"
   version="1.1"
   id="svg664"
   inkscape:version="1.2.1 (9c6d41e410, 2022-07-14)"
   sodipodi:docname="f-mask.svg"
   xmlns:inkscape="http://www.inkscape.org/namespaces/inkscape"
   xmlns:sodipodi="http://sodipodi.sourceforge.net/DTD/sodipodi-0.dtd"
   xmlns="http://www.w3.org/2000/svg"
   xmlns:svg="http://www.w3.org/2000/svg">
  <sodipodi:namedview
     id="namedview666"
     pagecolor="#ffffff"
     bordercolor="#666666"
     borderopacity="1.0"
     inkscape:showpageshadow="2"
     inkscape:pageopacity="0.0"
     inkscape:pagecheckerboard="0"
     inkscape:deskcolor="#d1d1d1"
     inkscape:document-units="mm"
     showgrid="false"
     inkscape:zoom="0.74564394"
     inkscape:cx="298.3998"
     inkscape:cy="561.9304"
     inkscape:window-width="1920"
     inkscape:window-height="1017"
     inkscape:window-x="-8"
     inkscape:window-y="-8"
     inkscape:window-maximized="1"
     inkscape:current-layer="layer1" />
  <defs
     id="defs661" />
  <g
     inkscape:label="Layer 1"
     inkscape:groupmode="layer"
     id="layer1">
    <path
       style="fill:#000000;stroke-width:0.070847"
       d="m 93.865391,141.91977 c -0.287466,-0.0355 -0.777175,-0.11283 -1.088239,-0.17182 -0.676615,-0.12836 -1.397013,-0.13189 -2.360294,-0.0116 -1.209962,0.15114 -2.444256,-0.0621 -3.192217,-0.55158 -0.123006,-0.0805 -0.451667,-0.27386 -0.730358,-0.42974 -0.278692,-0.15586 -0.768579,-0.44547 -1.088638,-0.64358 -0.415526,-0.25718 -0.835115,-0.43818 -1.467356,-0.63296 -1.339066,-0.41252 -1.798083,-0.36235 -3.309743,0.36168 -0.359052,0.17196 -0.669021,0.31266 -0.688821,0.31266 -0.0198,0 -0.204247,0.0787 -0.409883,0.17475 -0.205636,0.0961 -0.692695,0.25971 -1.082352,0.36357 -0.6102,0.16266 -0.850963,0.18909 -1.735752,0.1906 -1.012747,0.002 -1.039812,-0.002 -1.912869,-0.28791 -1.13385,-0.37089 -1.508716,-0.4642 -2.763033,-0.68781 -1.3964,-0.24892 -1.644361,-0.33669 -1.863889,-0.65974 -0.191104,-0.28121 -0.403216,-0.85035 -0.403216,-1.08192 0,-0.30297 -0.190158,-0.61068 -0.403771,-0.65341 -0.32829,-0.0657 -0.513741,-0.26629 -0.668719,-0.72347 -0.212407,-0.6266 -0.240617,-1.1932 -0.09866,-1.98161 0.148154,-0.82283 0.336778,-1.19104 1.434572,-2.80046 1.163525,-1.70577 1.54453,-2.13119 2.362029,-2.63739 0.615113,-0.3809 0.833333,-0.44524 1.843395,-0.54363 1.044256,-0.10166 1.095304,-0.12921 0.87216,-0.46977 -0.12446,-0.18995 -0.101647,-0.44346 0.09207,-1.02299 0.409243,-1.22432 0.790181,-1.72041 2.749945,-3.58123 0.138717,-0.13173 0.577758,-0.48584 0.92059,-0.74254 0.07806,-0.0584 0.349155,-0.32797 0.602433,-0.59893 0.952565,-1.01906 1.847416,-1.86116 2.177289,-2.04899 0.05988,-0.0342 0.160381,-0.10434 0.223329,-0.15611 0.166068,-0.13659 0.939766,-0.74701 1.182188,-0.9327 0.114129,-0.0874 0.335033,-0.25814 0.490896,-0.37936 0.616245,-0.47928 2.964068,-1.96576 4.321668,-2.73619 1.011142,-0.57381 2.677907,-1.23604 4.215401,-1.67485 1.422129,-0.40588 1.867184,-0.46148 4.317506,-0.5393 1.95344,-0.0621 2.09866,-0.0757 2.28773,-0.2155 0.34382,-0.25421 1.06606,-0.4827 1.906108,-0.60303 0.44276,-0.0635 0.96225,-0.1607 1.1544,-0.21618 1.17315,-0.33859 3.05873,0.20483 4.92872,1.42045 0.37018,0.24065 0.89622,0.52526 1.16899,0.63249 0.5206,0.20467 1.30966,0.62029 1.46646,0.77244 0.0507,0.0492 0.20375,0.16705 0.34013,0.26191 0.13638,0.0948 0.2842,0.20537 0.32849,0.24563 0.0442,0.0403 0.25151,0.21633 0.4605,0.39132 0.41657,0.34879 0.70001,0.63147 1.00264,0.99993 0.24469,0.29791 0.61415,0.85863 0.61587,0.93472 0.002,0.10667 0.64057,1.41543 0.90128,1.84844 0.2503,0.41574 0.48039,0.68093 0.5908,0.68093 0.0717,0 1.1579,1.08588 1.59106,1.59063 0.47274,0.55089 0.63059,0.79835 0.7252,1.13698 0.28328,1.01393 0.0961,2.98004 -0.33386,3.50693 -0.0795,0.0974 -0.43918,0.48506 -0.79929,0.86143 -0.36012,0.37639 -0.76205,0.86223 -0.89317,1.07964 l -0.23844,0.39531 0.0885,0.46925 c 0.23148,1.22673 -0.19369,2.87191 -0.91991,3.55952 -0.26581,0.25167 -0.90669,0.57785 -1.13536,0.57785 -0.3002,0 -0.96664,-0.31464 -1.23786,-0.5844 -0.32575,-0.32403 -0.30312,-0.33761 -0.74601,0.44723 -0.34862,0.61781 -2.01758,2.27406 -2.86978,2.84793 -0.19484,0.13121 -0.49892,0.33779 -0.67574,0.4591 -0.17683,0.12131 -0.4069,0.24199 -0.51128,0.26819 -0.10438,0.0262 -0.18287,0.0806 -0.17443,0.12107 0.008,0.0404 -0.071,0.0978 -0.17654,0.1277 -0.10556,0.0299 -0.28582,0.12113 -0.4006,0.20286 -0.11479,0.0818 -0.22509,0.1486 -0.24512,0.1486 -0.02,0 -0.36044,0.19129 -0.75645,0.42508 -0.396,0.23381 -0.74373,0.42509 -0.77274,0.42509 -0.0921,0 -0.34236,0.30849 -0.50378,0.6212 -0.20204,0.39145 -0.51101,0.64058 -1.10947,0.89463 -0.26582,0.11286 -0.57895,0.24665 -0.69584,0.29732 -0.42602,0.18468 -1.494339,0.45518 -2.085899,0.52812 -0.33345,0.0412 -0.90916,0.15683 -1.27935,0.25713 -0.570369,0.15454 -0.85136,0.1856 -1.84202,0.20362 -0.64293,0.0117 -1.404162,-0.007 -1.691636,-0.0433 z"
       id="path16511-1" />
  </g>
</svg>
